%TF.GenerationSoftware,KiCad,Pcbnew,9.0.7*%
%TF.CreationDate,2026-01-21T23:56:55+00:00*%
%TF.ProjectId,WeeKett comms board,5765654b-6574-4742-9063-6f6d6d732062,rev?*%
%TF.SameCoordinates,Original*%
%TF.FileFunction,Soldermask,Top*%
%TF.FilePolarity,Negative*%
%FSLAX46Y46*%
G04 Gerber Fmt 4.6, Leading zero omitted, Abs format (unit mm)*
G04 Created by KiCad (PCBNEW 9.0.7) date 2026-01-21 23:56:55*
%MOMM*%
%LPD*%
G01*
G04 APERTURE LIST*
G04 Aperture macros list*
%AMRoundRect*
0 Rectangle with rounded corners*
0 $1 Rounding radius*
0 $2 $3 $4 $5 $6 $7 $8 $9 X,Y pos of 4 corners*
0 Add a 4 corners polygon primitive as box body*
4,1,4,$2,$3,$4,$5,$6,$7,$8,$9,$2,$3,0*
0 Add four circle primitives for the rounded corners*
1,1,$1+$1,$2,$3*
1,1,$1+$1,$4,$5*
1,1,$1+$1,$6,$7*
1,1,$1+$1,$8,$9*
0 Add four rect primitives between the rounded corners*
20,1,$1+$1,$2,$3,$4,$5,0*
20,1,$1+$1,$4,$5,$6,$7,0*
20,1,$1+$1,$6,$7,$8,$9,0*
20,1,$1+$1,$8,$9,$2,$3,0*%
G04 Aperture macros list end*
%ADD10RoundRect,0.250000X0.750000X-0.600000X0.750000X0.600000X-0.750000X0.600000X-0.750000X-0.600000X0*%
%ADD11O,2.000000X1.700000*%
%ADD12RoundRect,0.150000X0.587500X0.150000X-0.587500X0.150000X-0.587500X-0.150000X0.587500X-0.150000X0*%
%ADD13RoundRect,0.152400X1.063600X0.609600X-1.063600X0.609600X-1.063600X-0.609600X1.063600X-0.609600X0*%
%ADD14C,1.524000*%
%ADD15RoundRect,0.152400X-1.063600X-0.609600X1.063600X-0.609600X1.063600X0.609600X-1.063600X0.609600X0*%
%ADD16RoundRect,0.250000X0.450000X-0.262500X0.450000X0.262500X-0.450000X0.262500X-0.450000X-0.262500X0*%
%ADD17C,3.200000*%
%ADD18RoundRect,0.250000X-0.475000X0.250000X-0.475000X-0.250000X0.475000X-0.250000X0.475000X0.250000X0*%
%ADD19RoundRect,0.250000X0.475000X-0.250000X0.475000X0.250000X-0.475000X0.250000X-0.475000X-0.250000X0*%
%ADD20RoundRect,0.250000X-0.450000X0.262500X-0.450000X-0.262500X0.450000X-0.262500X0.450000X0.262500X0*%
G04 APERTURE END LIST*
D10*
%TO.C,J2*%
X61000000Y-69000000D03*
D11*
X61000000Y-66500000D03*
%TD*%
D12*
%TO.C,Q2*%
X70937500Y-64950000D03*
X70937500Y-63050000D03*
X69062500Y-64000000D03*
%TD*%
%TO.C,Q1*%
X70937500Y-59450000D03*
X70937500Y-57550000D03*
X69062500Y-58500000D03*
%TD*%
D13*
%TO.C,U1*%
X77590000Y-74500000D03*
D14*
X78425000Y-74500000D03*
D13*
X77590000Y-71960000D03*
D14*
X78425000Y-71960000D03*
D13*
X77590000Y-69420000D03*
D14*
X78425000Y-69420000D03*
D13*
X77590000Y-66880000D03*
D14*
X78425000Y-66880000D03*
D13*
X77590000Y-64340000D03*
D14*
X78425000Y-64340000D03*
D13*
X77590000Y-61800000D03*
D14*
X78425000Y-61800000D03*
D13*
X77590000Y-59260000D03*
D14*
X78425000Y-59260000D03*
X93665000Y-59260000D03*
D15*
X94500000Y-59260000D03*
D14*
X93665000Y-61800000D03*
D15*
X94500000Y-61800000D03*
D14*
X93665000Y-64340000D03*
D15*
X94500000Y-64340000D03*
D14*
X93665000Y-66880000D03*
D15*
X94500000Y-66880000D03*
D14*
X93665000Y-69420000D03*
D15*
X94500000Y-69420000D03*
D14*
X93665000Y-71960000D03*
D15*
X94500000Y-71960000D03*
D14*
X93665000Y-74500000D03*
D15*
X94500000Y-74500000D03*
%TD*%
D16*
%TO.C,R3*%
X67000000Y-63087500D03*
X67000000Y-64912500D03*
%TD*%
D17*
%TO.C,REF\u002A\u002A*%
X67000000Y-73000000D03*
%TD*%
D16*
%TO.C,R4*%
X73000000Y-64912500D03*
X73000000Y-63087500D03*
%TD*%
%TO.C,R2*%
X73000000Y-59412500D03*
X73000000Y-57587500D03*
%TD*%
D18*
%TO.C,C1*%
X64500000Y-57550000D03*
X64500000Y-59450000D03*
%TD*%
D19*
%TO.C,C2*%
X74000000Y-73900000D03*
X74000000Y-72000000D03*
%TD*%
D20*
%TO.C,R1*%
X67000000Y-57587500D03*
X67000000Y-59412500D03*
%TD*%
D11*
%TO.C,J1*%
X61000000Y-58000000D03*
D10*
X61000000Y-60500000D03*
%TD*%
M02*
