%TF.GenerationSoftware,KiCad,Pcbnew,9.0.7*%
%TF.CreationDate,2026-01-21T23:56:55+00:00*%
%TF.ProjectId,WeeKett comms board,5765654b-6574-4742-9063-6f6d6d732062,rev?*%
%TF.SameCoordinates,Original*%
%TF.FileFunction,Legend,Top*%
%TF.FilePolarity,Positive*%
%FSLAX46Y46*%
G04 Gerber Fmt 4.6, Leading zero omitted, Abs format (unit mm)*
G04 Created by KiCad (PCBNEW 9.0.7) date 2026-01-21 23:56:55*
%MOMM*%
%LPD*%
G01*
G04 APERTURE LIST*
G04 Aperture macros list*
%AMRoundRect*
0 Rectangle with rounded corners*
0 $1 Rounding radius*
0 $2 $3 $4 $5 $6 $7 $8 $9 X,Y pos of 4 corners*
0 Add a 4 corners polygon primitive as box body*
4,1,4,$2,$3,$4,$5,$6,$7,$8,$9,$2,$3,0*
0 Add four circle primitives for the rounded corners*
1,1,$1+$1,$2,$3*
1,1,$1+$1,$4,$5*
1,1,$1+$1,$6,$7*
1,1,$1+$1,$8,$9*
0 Add four rect primitives between the rounded corners*
20,1,$1+$1,$2,$3,$4,$5,0*
20,1,$1+$1,$4,$5,$6,$7,0*
20,1,$1+$1,$6,$7,$8,$9,0*
20,1,$1+$1,$8,$9,$2,$3,0*%
G04 Aperture macros list end*
%ADD10C,0.200000*%
%ADD11C,0.100000*%
%ADD12C,0.150000*%
%ADD13C,0.127000*%
%ADD14C,0.120000*%
%ADD15C,0.504000*%
%ADD16RoundRect,0.250000X0.750000X-0.600000X0.750000X0.600000X-0.750000X0.600000X-0.750000X-0.600000X0*%
%ADD17O,2.000000X1.700000*%
%ADD18RoundRect,0.150000X0.587500X0.150000X-0.587500X0.150000X-0.587500X-0.150000X0.587500X-0.150000X0*%
%ADD19RoundRect,0.152400X1.063600X0.609600X-1.063600X0.609600X-1.063600X-0.609600X1.063600X-0.609600X0*%
%ADD20C,1.524000*%
%ADD21RoundRect,0.152400X-1.063600X-0.609600X1.063600X-0.609600X1.063600X0.609600X-1.063600X0.609600X0*%
%ADD22RoundRect,0.250000X0.450000X-0.262500X0.450000X0.262500X-0.450000X0.262500X-0.450000X-0.262500X0*%
%ADD23C,3.200000*%
%ADD24RoundRect,0.250000X-0.475000X0.250000X-0.475000X-0.250000X0.475000X-0.250000X0.475000X0.250000X0*%
%ADD25RoundRect,0.250000X0.475000X-0.250000X0.475000X0.250000X-0.475000X0.250000X-0.475000X-0.250000X0*%
%ADD26RoundRect,0.250000X-0.450000X0.262500X-0.450000X-0.262500X0.450000X-0.262500X0.450000X0.262500X0*%
G04 APERTURE END LIST*
D10*
G36*
X57844523Y-65959243D02*
G01*
X57895355Y-65976933D01*
X57936578Y-66006665D01*
X57965526Y-66046866D01*
X57982550Y-66095386D01*
X57988626Y-66155218D01*
X57982502Y-66211785D01*
X57965050Y-66259205D01*
X57936047Y-66298883D01*
X57895355Y-66329058D01*
X57845328Y-66347398D01*
X57779065Y-66354142D01*
X57561488Y-66354142D01*
X57561488Y-65952723D01*
X57777239Y-65952723D01*
X57844523Y-65959243D01*
G37*
G36*
X59625790Y-67183944D02*
G01*
X57150568Y-67183944D01*
X57150568Y-66354142D01*
X57295012Y-66354142D01*
X57295012Y-67039500D01*
X57561488Y-67039500D01*
X57561488Y-66561956D01*
X57773181Y-66561956D01*
X58017916Y-67039500D01*
X58302966Y-67039500D01*
X58364167Y-67039500D01*
X58673189Y-67039500D01*
X58923630Y-66578625D01*
X59174070Y-67039500D01*
X59481346Y-67039500D01*
X59095882Y-66386449D01*
X59471583Y-65744035D01*
X59166926Y-65744035D01*
X58923630Y-66196019D01*
X58680333Y-65744035D01*
X58373931Y-65744035D01*
X58750504Y-66386449D01*
X58364167Y-67039500D01*
X58302966Y-67039500D01*
X58302966Y-67027037D01*
X58022314Y-66496044D01*
X58053443Y-66482561D01*
X58121347Y-66438601D01*
X58177615Y-66383002D01*
X58219936Y-66314611D01*
X58238825Y-66263754D01*
X58250788Y-66204603D01*
X58255021Y-66135691D01*
X58248133Y-66052343D01*
X58228596Y-65981444D01*
X58197313Y-65920733D01*
X58154034Y-65867843D01*
X58099667Y-65823938D01*
X58032601Y-65788646D01*
X57959928Y-65764674D01*
X57875455Y-65749434D01*
X57777239Y-65744035D01*
X57295012Y-65744035D01*
X57295012Y-66354142D01*
X57150568Y-66354142D01*
X57150568Y-65599591D01*
X59625790Y-65599591D01*
X59625790Y-67183944D01*
G37*
G36*
X59638570Y-58701724D02*
G01*
X57216056Y-58701724D01*
X57216056Y-58178802D01*
X57360500Y-58178802D01*
X57371331Y-58265248D01*
X57399078Y-58339068D01*
X57442203Y-58403887D01*
X57497667Y-58458215D01*
X57563122Y-58501104D01*
X57637135Y-58532276D01*
X57716066Y-58550997D01*
X57798275Y-58557280D01*
X57872311Y-58553113D01*
X57936379Y-58541310D01*
X57991880Y-58522671D01*
X58067389Y-58481010D01*
X58127697Y-58427258D01*
X58174971Y-58362307D01*
X58208505Y-58288821D01*
X58228431Y-58209540D01*
X58235176Y-58125062D01*
X58228196Y-58026207D01*
X58208505Y-57942252D01*
X58175244Y-57866760D01*
X58130872Y-57805641D01*
X58074648Y-57756536D01*
X58006962Y-57720388D01*
X57930741Y-57698759D01*
X57840028Y-57691098D01*
X57777103Y-57695601D01*
X57722785Y-57708402D01*
X57644676Y-57740789D01*
X57676587Y-57450976D01*
X58192550Y-57450976D01*
X58192550Y-57244035D01*
X58317413Y-57244035D01*
X58765030Y-58539500D01*
X58848458Y-58539500D01*
X59043889Y-58539500D01*
X59494126Y-57244035D01*
X59197487Y-57244035D01*
X58904476Y-58230131D01*
X58612305Y-57244035D01*
X58317413Y-57244035D01*
X58192550Y-57244035D01*
X57466153Y-57244035D01*
X57392410Y-57902404D01*
X57596731Y-57951302D01*
X57625064Y-57924907D01*
X57661028Y-57900658D01*
X57704429Y-57884695D01*
X57770730Y-57878432D01*
X57821049Y-57882872D01*
X57862651Y-57895340D01*
X57898984Y-57915908D01*
X57927900Y-57943205D01*
X57950121Y-57976710D01*
X57966082Y-58016869D01*
X57975297Y-58060866D01*
X57978544Y-58111726D01*
X57975898Y-58163017D01*
X57968304Y-58208886D01*
X57955054Y-58251517D01*
X57936791Y-58286995D01*
X57912155Y-58316611D01*
X57880829Y-58338909D01*
X57843813Y-58352581D01*
X57797401Y-58357484D01*
X57747413Y-58351889D01*
X57705877Y-58335972D01*
X57670841Y-58309942D01*
X57643247Y-58274453D01*
X57624635Y-58231654D01*
X57614433Y-58178802D01*
X57360500Y-58178802D01*
X57216056Y-58178802D01*
X57216056Y-57099591D01*
X59638570Y-57099591D01*
X59638570Y-58701724D01*
G37*
D11*
G36*
X56594949Y-77333489D02*
G01*
X56956306Y-77333489D01*
X57031365Y-77337648D01*
X57095743Y-77349376D01*
X57150968Y-77367805D01*
X57201889Y-77394885D01*
X57243170Y-77428609D01*
X57276020Y-77469288D01*
X57299703Y-77515945D01*
X57314514Y-77570485D01*
X57319740Y-77634640D01*
X57316476Y-77685719D01*
X57307185Y-77730210D01*
X57292384Y-77769096D01*
X57259503Y-77821432D01*
X57215570Y-77864473D01*
X57162526Y-77898321D01*
X57099066Y-77924801D01*
X57040326Y-77954842D01*
X56721345Y-77954842D01*
X56719940Y-77806587D01*
X56958382Y-77806587D01*
X57013282Y-77801035D01*
X57054675Y-77785949D01*
X57088429Y-77761172D01*
X57112377Y-77728857D01*
X57126837Y-77690409D01*
X57131856Y-77645570D01*
X57126844Y-77597627D01*
X57112744Y-77558497D01*
X57088866Y-77526082D01*
X57054675Y-77501711D01*
X57012584Y-77487141D01*
X56956306Y-77481744D01*
X56782833Y-77481744D01*
X56782833Y-78330000D01*
X56594949Y-78330000D01*
X56594949Y-77333489D01*
G37*
G36*
X57156463Y-78330000D02*
G01*
X56926264Y-77885172D01*
X57125078Y-77884501D01*
X57358025Y-78320413D01*
X57358025Y-78330000D01*
X57156463Y-78330000D01*
G37*
G36*
X57802302Y-78343677D02*
G01*
X57721145Y-78336596D01*
X57651360Y-78316383D01*
X57588999Y-78283407D01*
X57537604Y-78240301D01*
X57496421Y-78187583D01*
X57465858Y-78126240D01*
X57447283Y-78059186D01*
X57440945Y-77985983D01*
X57440945Y-77958628D01*
X57447312Y-77875811D01*
X57465553Y-77803351D01*
X57495665Y-77737570D01*
X57535223Y-77682878D01*
X57584703Y-77638187D01*
X57643178Y-77605026D01*
X57708396Y-77584727D01*
X57781847Y-77577732D01*
X57857329Y-77584581D01*
X57920455Y-77603927D01*
X57975944Y-77635659D01*
X58020900Y-77677688D01*
X58055885Y-77729196D01*
X58081716Y-77791566D01*
X58096916Y-77859973D01*
X58102233Y-77937990D01*
X58102233Y-78013461D01*
X57522950Y-78013461D01*
X57522950Y-77889080D01*
X57924607Y-77889080D01*
X57924607Y-77875586D01*
X57919727Y-77834392D01*
X57908182Y-77797733D01*
X57889015Y-77765812D01*
X57861714Y-77741069D01*
X57827134Y-77725514D01*
X57780443Y-77719820D01*
X57742097Y-77724343D01*
X57710406Y-77737222D01*
X57683521Y-77757971D01*
X57661252Y-77786376D01*
X57644588Y-77820194D01*
X57632187Y-77861786D01*
X57625151Y-77906738D01*
X57622662Y-77958628D01*
X57622662Y-77985922D01*
X57625907Y-78031213D01*
X57635301Y-78071957D01*
X57651200Y-78109230D01*
X57672854Y-78140528D01*
X57700340Y-78166268D01*
X57732998Y-78185591D01*
X57769875Y-78197435D01*
X57813232Y-78201589D01*
X57867956Y-78195906D01*
X57916058Y-78179424D01*
X57958782Y-78152152D01*
X57996353Y-78113478D01*
X58087212Y-78207756D01*
X58060732Y-78240392D01*
X58024685Y-78273335D01*
X57982310Y-78301249D01*
X57930041Y-78324199D01*
X57872160Y-78338542D01*
X57802302Y-78343677D01*
G37*
G36*
X58459071Y-78193468D02*
G01*
X58631202Y-77591409D01*
X58819757Y-77591409D01*
X58566294Y-78330000D01*
X58451561Y-78330000D01*
X58459071Y-78193468D01*
G37*
G36*
X58333347Y-77591409D02*
G01*
X58507554Y-78194811D01*
X58513721Y-78330000D01*
X58398255Y-78330000D01*
X58144120Y-77591409D01*
X58333347Y-77591409D01*
G37*
G36*
X59717044Y-77333489D02*
G01*
X59717044Y-78330000D01*
X59536060Y-78330000D01*
X59536060Y-77544392D01*
X59296275Y-77623588D01*
X59296275Y-77477531D01*
X59696589Y-77333489D01*
X59717044Y-77333489D01*
G37*
G36*
X60068754Y-78248056D02*
G01*
X60075825Y-78210131D01*
X60096781Y-78179057D01*
X60117051Y-78163821D01*
X60141894Y-78154388D01*
X60172618Y-78151031D01*
X60203341Y-78154389D01*
X60228162Y-78163823D01*
X60248394Y-78179057D01*
X60269350Y-78210131D01*
X60276421Y-78248056D01*
X60269373Y-78285298D01*
X60248394Y-78316017D01*
X60228190Y-78331037D01*
X60203369Y-78340356D01*
X60172618Y-78343677D01*
X60141866Y-78340357D01*
X60117023Y-78331039D01*
X60096781Y-78316017D01*
X60075803Y-78285298D01*
X60068754Y-78248056D01*
G37*
G36*
X60835204Y-77323699D02*
G01*
X60887517Y-77334893D01*
X60936018Y-77354207D01*
X60979047Y-77381788D01*
X61016230Y-77417645D01*
X61048412Y-77463914D01*
X61073155Y-77517479D01*
X61092437Y-77584326D01*
X61103725Y-77657271D01*
X61107824Y-77746198D01*
X61107824Y-77913871D01*
X61101546Y-78024414D01*
X61084621Y-78110303D01*
X61066074Y-78163183D01*
X61043672Y-78207148D01*
X61017698Y-78243415D01*
X60986405Y-78275027D01*
X60951689Y-78300205D01*
X60913162Y-78319375D01*
X60850010Y-78337408D01*
X60777913Y-78343677D01*
X60719825Y-78339731D01*
X60667210Y-78328290D01*
X60618469Y-78308549D01*
X60575314Y-78280418D01*
X60538086Y-78243941D01*
X60505643Y-78197254D01*
X60480647Y-78143263D01*
X60461252Y-78076109D01*
X60450003Y-78002843D01*
X60445926Y-77913871D01*
X60445926Y-77746198D01*
X60447395Y-77720797D01*
X60626910Y-77720797D01*
X60626910Y-77938600D01*
X60628648Y-77994354D01*
X60633382Y-78039289D01*
X60641784Y-78080637D01*
X60652555Y-78113234D01*
X60666996Y-78141966D01*
X60683269Y-78163609D01*
X60702937Y-78180605D01*
X60725279Y-78192369D01*
X60750042Y-78199220D01*
X60777913Y-78201589D01*
X60812582Y-78197866D01*
X60841782Y-78187240D01*
X60866841Y-78169097D01*
X60888555Y-78141688D01*
X60904761Y-78107501D01*
X60917620Y-78060172D01*
X60924821Y-78007207D01*
X60927512Y-77938600D01*
X60927512Y-77720797D01*
X60925754Y-77665089D01*
X60920978Y-77620474D01*
X60912699Y-77579470D01*
X60902233Y-77547568D01*
X60888003Y-77519586D01*
X60871519Y-77498597D01*
X60851621Y-77482163D01*
X60829143Y-77470814D01*
X60804402Y-77464191D01*
X60776570Y-77461899D01*
X60742417Y-77465520D01*
X60713005Y-77475943D01*
X60687591Y-77493659D01*
X60665867Y-77520151D01*
X60649719Y-77553311D01*
X60636802Y-77599897D01*
X60629611Y-77652227D01*
X60626910Y-77720797D01*
X60447395Y-77720797D01*
X60452315Y-77635760D01*
X60469495Y-77550498D01*
X60488241Y-77498066D01*
X60510760Y-77454417D01*
X60536784Y-77418363D01*
X60568081Y-77386996D01*
X60602773Y-77362167D01*
X60641259Y-77343442D01*
X60704386Y-77325914D01*
X60776570Y-77319811D01*
X60835204Y-77323699D01*
G37*
G36*
X62269870Y-78187911D02*
G01*
X62269870Y-78330000D01*
X61596310Y-78330000D01*
X61596310Y-78208428D01*
X61919382Y-77858794D01*
X61999310Y-77758899D01*
X62025431Y-77716710D01*
X62041320Y-77681901D01*
X62050921Y-77647464D01*
X62053960Y-77615833D01*
X62049663Y-77571898D01*
X62037534Y-77535478D01*
X62017355Y-77504610D01*
X61990090Y-77481744D01*
X61956527Y-77467623D01*
X61913948Y-77462571D01*
X61866827Y-77468592D01*
X61828890Y-77485652D01*
X61798165Y-77512846D01*
X61775584Y-77549277D01*
X61762215Y-77591868D01*
X61757510Y-77642212D01*
X61576465Y-77642212D01*
X61581122Y-77584311D01*
X61594796Y-77530761D01*
X61617437Y-77480706D01*
X61648530Y-77435467D01*
X61687439Y-77396620D01*
X61734979Y-77363714D01*
X61787630Y-77339852D01*
X61847708Y-77325006D01*
X61916695Y-77319811D01*
X61984384Y-77323939D01*
X62041669Y-77335529D01*
X62090169Y-77353700D01*
X62134433Y-77379909D01*
X62170083Y-77411828D01*
X62198124Y-77449809D01*
X62218172Y-77492707D01*
X62230640Y-77541766D01*
X62235005Y-77598248D01*
X62231091Y-77645637D01*
X62219251Y-77692648D01*
X62200634Y-77738423D01*
X62175226Y-77784666D01*
X62144780Y-77829674D01*
X62107937Y-77876685D01*
X62021170Y-77971756D01*
X61827180Y-78187911D01*
X62269870Y-78187911D01*
G37*
G36*
X62781331Y-77323699D02*
G01*
X62833644Y-77334893D01*
X62882145Y-77354207D01*
X62925174Y-77381788D01*
X62962357Y-77417645D01*
X62994539Y-77463914D01*
X63019282Y-77517479D01*
X63038564Y-77584326D01*
X63049852Y-77657271D01*
X63053951Y-77746198D01*
X63053951Y-77913871D01*
X63047673Y-78024414D01*
X63030748Y-78110303D01*
X63012201Y-78163183D01*
X62989799Y-78207148D01*
X62963825Y-78243415D01*
X62932532Y-78275027D01*
X62897816Y-78300205D01*
X62859289Y-78319375D01*
X62796137Y-78337408D01*
X62724040Y-78343677D01*
X62665952Y-78339731D01*
X62613337Y-78328290D01*
X62564596Y-78308549D01*
X62521441Y-78280418D01*
X62484213Y-78243941D01*
X62451770Y-78197254D01*
X62426774Y-78143263D01*
X62407379Y-78076109D01*
X62396130Y-78002843D01*
X62392053Y-77913871D01*
X62392053Y-77746198D01*
X62393522Y-77720797D01*
X62573037Y-77720797D01*
X62573037Y-77938600D01*
X62574775Y-77994354D01*
X62579509Y-78039289D01*
X62587911Y-78080637D01*
X62598682Y-78113234D01*
X62613123Y-78141966D01*
X62629396Y-78163609D01*
X62649064Y-78180605D01*
X62671406Y-78192369D01*
X62696169Y-78199220D01*
X62724040Y-78201589D01*
X62758709Y-78197866D01*
X62787909Y-78187240D01*
X62812968Y-78169097D01*
X62834682Y-78141688D01*
X62850888Y-78107501D01*
X62863747Y-78060172D01*
X62870948Y-78007207D01*
X62873639Y-77938600D01*
X62873639Y-77720797D01*
X62871881Y-77665089D01*
X62867105Y-77620474D01*
X62858826Y-77579470D01*
X62848360Y-77547568D01*
X62834130Y-77519586D01*
X62817646Y-77498597D01*
X62797748Y-77482163D01*
X62775270Y-77470814D01*
X62750529Y-77464191D01*
X62722697Y-77461899D01*
X62688544Y-77465520D01*
X62659132Y-77475943D01*
X62633718Y-77493659D01*
X62611994Y-77520151D01*
X62595846Y-77553311D01*
X62582929Y-77599897D01*
X62575738Y-77652227D01*
X62573037Y-77720797D01*
X62393522Y-77720797D01*
X62398442Y-77635760D01*
X62415622Y-77550498D01*
X62434368Y-77498066D01*
X62456887Y-77454417D01*
X62482911Y-77418363D01*
X62514208Y-77386996D01*
X62548900Y-77362167D01*
X62587386Y-77343442D01*
X62650513Y-77325914D01*
X62722697Y-77319811D01*
X62781331Y-77323699D01*
G37*
G36*
X63868196Y-78187911D02*
G01*
X63868196Y-78330000D01*
X63194635Y-78330000D01*
X63194635Y-78208428D01*
X63517707Y-77858794D01*
X63597636Y-77758899D01*
X63623756Y-77716710D01*
X63639645Y-77681901D01*
X63649246Y-77647464D01*
X63652285Y-77615833D01*
X63647988Y-77571898D01*
X63635860Y-77535478D01*
X63615681Y-77504610D01*
X63588415Y-77481744D01*
X63554852Y-77467623D01*
X63512273Y-77462571D01*
X63465152Y-77468592D01*
X63427215Y-77485652D01*
X63396490Y-77512846D01*
X63373909Y-77549277D01*
X63360540Y-77591868D01*
X63355835Y-77642212D01*
X63174790Y-77642212D01*
X63179447Y-77584311D01*
X63193121Y-77530761D01*
X63215762Y-77480706D01*
X63246855Y-77435467D01*
X63285765Y-77396620D01*
X63333304Y-77363714D01*
X63385955Y-77339852D01*
X63446033Y-77325006D01*
X63515020Y-77319811D01*
X63582709Y-77323939D01*
X63639994Y-77335529D01*
X63688494Y-77353700D01*
X63732759Y-77379909D01*
X63768408Y-77411828D01*
X63796449Y-77449809D01*
X63816498Y-77492707D01*
X63828965Y-77541766D01*
X63833330Y-77598248D01*
X63829416Y-77645637D01*
X63817576Y-77692648D01*
X63798960Y-77738423D01*
X63773551Y-77784666D01*
X63743105Y-77829674D01*
X63706263Y-77876685D01*
X63619495Y-77971756D01*
X63425505Y-78187911D01*
X63868196Y-78187911D01*
G37*
G36*
X64495900Y-77333489D02*
G01*
X64520446Y-77333489D01*
X64520446Y-77478996D01*
X64508845Y-77478996D01*
X64429328Y-77485600D01*
X64363642Y-77504092D01*
X64305848Y-77534548D01*
X64259839Y-77574190D01*
X64223766Y-77622881D01*
X64197313Y-77680497D01*
X64181614Y-77743627D01*
X64176186Y-77814220D01*
X64176186Y-77974077D01*
X64179356Y-78028358D01*
X64188093Y-78072568D01*
X64202870Y-78112414D01*
X64221554Y-78143703D01*
X64245304Y-78169112D01*
X64272112Y-78186690D01*
X64302335Y-78197295D01*
X64336043Y-78200917D01*
X64369555Y-78197300D01*
X64398874Y-78186812D01*
X64424799Y-78169810D01*
X64447051Y-78146695D01*
X64464603Y-78118883D01*
X64477765Y-78085757D01*
X64485600Y-78049658D01*
X64488328Y-78008942D01*
X64485688Y-77968804D01*
X64478070Y-77932800D01*
X64465287Y-77899500D01*
X64448028Y-77871128D01*
X64425860Y-77847490D01*
X64399180Y-77830034D01*
X64368733Y-77819298D01*
X64333295Y-77815563D01*
X64287557Y-77821244D01*
X64247871Y-77837789D01*
X64214081Y-77863454D01*
X64188459Y-77895491D01*
X64171487Y-77932284D01*
X64164584Y-77970657D01*
X64103768Y-77940615D01*
X64111847Y-77884341D01*
X64128681Y-77834064D01*
X64154089Y-77788439D01*
X64186749Y-77749312D01*
X64226480Y-77717370D01*
X64273517Y-77693319D01*
X64325633Y-77678597D01*
X64385197Y-77673475D01*
X64453182Y-77680475D01*
X64509516Y-77700280D01*
X64558440Y-77731989D01*
X64597993Y-77773126D01*
X64628567Y-77822153D01*
X64650933Y-77879127D01*
X64664194Y-77940245D01*
X64668702Y-78005523D01*
X64662867Y-78074925D01*
X64645804Y-78138330D01*
X64617700Y-78196384D01*
X64579858Y-78246102D01*
X64532709Y-78286915D01*
X64476055Y-78317971D01*
X64412663Y-78337029D01*
X64339462Y-78343677D01*
X64286850Y-78340199D01*
X64239395Y-78330135D01*
X64196336Y-78313818D01*
X64137625Y-78278165D01*
X64088014Y-78231020D01*
X64048523Y-78174141D01*
X64019016Y-78107433D01*
X64001254Y-78034863D01*
X63995141Y-77954659D01*
X63995141Y-77882730D01*
X63998837Y-77805820D01*
X64009643Y-77734039D01*
X64027259Y-77666819D01*
X64052464Y-77602312D01*
X64084204Y-77544279D01*
X64122513Y-77492063D01*
X64167765Y-77445958D01*
X64219794Y-77407111D01*
X64279317Y-77375254D01*
X64343004Y-77352589D01*
X64414759Y-77338432D01*
X64495900Y-77333489D01*
G37*
G36*
X65161828Y-77831561D02*
G01*
X65161828Y-77974382D01*
X64788136Y-77974382D01*
X64788136Y-77831561D01*
X65161828Y-77831561D01*
G37*
G36*
X65691729Y-77323699D02*
G01*
X65744042Y-77334893D01*
X65792542Y-77354207D01*
X65835572Y-77381788D01*
X65872755Y-77417645D01*
X65904937Y-77463914D01*
X65929679Y-77517479D01*
X65948961Y-77584326D01*
X65960250Y-77657271D01*
X65964349Y-77746198D01*
X65964349Y-77913871D01*
X65958071Y-78024414D01*
X65941146Y-78110303D01*
X65922599Y-78163183D01*
X65900197Y-78207148D01*
X65874223Y-78243415D01*
X65842930Y-78275027D01*
X65808214Y-78300205D01*
X65769687Y-78319375D01*
X65706535Y-78337408D01*
X65634438Y-78343677D01*
X65576349Y-78339731D01*
X65523735Y-78328290D01*
X65474993Y-78308549D01*
X65431838Y-78280418D01*
X65394611Y-78243941D01*
X65362168Y-78197254D01*
X65337172Y-78143263D01*
X65317777Y-78076109D01*
X65306528Y-78002843D01*
X65302451Y-77913871D01*
X65302451Y-77746198D01*
X65303920Y-77720797D01*
X65483435Y-77720797D01*
X65483435Y-77938600D01*
X65485172Y-77994354D01*
X65489907Y-78039289D01*
X65498309Y-78080637D01*
X65509080Y-78113234D01*
X65523520Y-78141966D01*
X65539794Y-78163609D01*
X65559462Y-78180605D01*
X65581803Y-78192369D01*
X65606567Y-78199220D01*
X65634438Y-78201589D01*
X65669106Y-78197866D01*
X65698307Y-78187240D01*
X65723366Y-78169097D01*
X65745080Y-78141688D01*
X65761285Y-78107501D01*
X65774145Y-78060172D01*
X65781345Y-78007207D01*
X65784036Y-77938600D01*
X65784036Y-77720797D01*
X65782279Y-77665089D01*
X65777503Y-77620474D01*
X65769223Y-77579470D01*
X65758757Y-77547568D01*
X65744528Y-77519586D01*
X65728044Y-77498597D01*
X65708146Y-77482163D01*
X65685668Y-77470814D01*
X65660926Y-77464191D01*
X65633094Y-77461899D01*
X65598941Y-77465520D01*
X65569530Y-77475943D01*
X65544116Y-77493659D01*
X65522391Y-77520151D01*
X65506244Y-77553311D01*
X65493326Y-77599897D01*
X65486136Y-77652227D01*
X65483435Y-77720797D01*
X65303920Y-77720797D01*
X65308839Y-77635760D01*
X65326020Y-77550498D01*
X65344766Y-77498066D01*
X65367285Y-77454417D01*
X65393309Y-77418363D01*
X65424606Y-77386996D01*
X65459298Y-77362167D01*
X65497784Y-77343442D01*
X65560911Y-77325914D01*
X65633094Y-77319811D01*
X65691729Y-77323699D01*
G37*
G36*
X66569521Y-77333489D02*
G01*
X66569521Y-78330000D01*
X66388538Y-78330000D01*
X66388538Y-77544392D01*
X66148752Y-77623588D01*
X66148752Y-77477531D01*
X66549066Y-77333489D01*
X66569521Y-77333489D01*
G37*
G36*
X67273063Y-77831561D02*
G01*
X67273063Y-77974382D01*
X66899371Y-77974382D01*
X66899371Y-77831561D01*
X67273063Y-77831561D01*
G37*
G36*
X68090666Y-78187911D02*
G01*
X68090666Y-78330000D01*
X67417105Y-78330000D01*
X67417105Y-78208428D01*
X67740177Y-77858794D01*
X67820106Y-77758899D01*
X67846226Y-77716710D01*
X67862116Y-77681901D01*
X67871717Y-77647464D01*
X67874755Y-77615833D01*
X67870459Y-77571898D01*
X67858330Y-77535478D01*
X67838151Y-77504610D01*
X67810886Y-77481744D01*
X67777322Y-77467623D01*
X67734743Y-77462571D01*
X67687623Y-77468592D01*
X67649685Y-77485652D01*
X67618960Y-77512846D01*
X67596379Y-77549277D01*
X67583010Y-77591868D01*
X67578306Y-77642212D01*
X67397260Y-77642212D01*
X67401917Y-77584311D01*
X67415592Y-77530761D01*
X67438232Y-77480706D01*
X67469326Y-77435467D01*
X67508235Y-77396620D01*
X67555774Y-77363714D01*
X67608426Y-77339852D01*
X67668503Y-77325006D01*
X67737491Y-77319811D01*
X67805179Y-77323939D01*
X67862465Y-77335529D01*
X67910964Y-77353700D01*
X67955229Y-77379909D01*
X67990878Y-77411828D01*
X68018920Y-77449809D01*
X68038968Y-77492707D01*
X68051435Y-77541766D01*
X68055800Y-77598248D01*
X68051886Y-77645637D01*
X68040047Y-77692648D01*
X68021430Y-77738423D01*
X67996022Y-77784666D01*
X67965575Y-77829674D01*
X67928733Y-77876685D01*
X67841966Y-77971756D01*
X67647976Y-78187911D01*
X68090666Y-78187911D01*
G37*
G36*
X68680757Y-77333489D02*
G01*
X68680757Y-78330000D01*
X68499773Y-78330000D01*
X68499773Y-77544392D01*
X68259987Y-77623588D01*
X68259987Y-77477531D01*
X68660301Y-77333489D01*
X68680757Y-77333489D01*
G37*
G36*
X69895962Y-77532655D02*
G01*
X69950560Y-77550771D01*
X69994417Y-77579441D01*
X70020323Y-77608017D01*
X70039380Y-77643258D01*
X70051532Y-77686594D01*
X70055905Y-77739970D01*
X69952773Y-77739970D01*
X69948611Y-77696926D01*
X69937607Y-77666359D01*
X69920961Y-77645020D01*
X69898096Y-77629831D01*
X69867759Y-77619964D01*
X69827721Y-77616322D01*
X69786119Y-77622168D01*
X69753288Y-77638731D01*
X69727245Y-77664901D01*
X69707859Y-77700403D01*
X69696520Y-77741605D01*
X69692472Y-77791383D01*
X69692472Y-77872716D01*
X69696510Y-77922488D01*
X69707859Y-77964002D01*
X69727268Y-77999812D01*
X69753288Y-78026039D01*
X69786119Y-78042603D01*
X69827721Y-78048449D01*
X69867756Y-78044797D01*
X69897954Y-78034925D01*
X69920594Y-78019750D01*
X69937009Y-77998395D01*
X69947907Y-77967633D01*
X69952041Y-77924129D01*
X70055233Y-77924129D01*
X70050886Y-77977485D01*
X70038797Y-78020892D01*
X70019830Y-78056268D01*
X69994050Y-78085024D01*
X69950396Y-78113856D01*
X69895934Y-78132075D01*
X69827721Y-78138635D01*
X69779969Y-78134687D01*
X69738192Y-78123355D01*
X69701325Y-78104991D01*
X69668697Y-78079793D01*
X69641366Y-78048856D01*
X69619016Y-78011507D01*
X69603252Y-77970666D01*
X69593436Y-77924662D01*
X69590012Y-77872594D01*
X69590012Y-77792177D01*
X69593437Y-77740108D01*
X69603254Y-77694126D01*
X69619016Y-77653325D01*
X69641372Y-77615940D01*
X69668703Y-77585005D01*
X69701325Y-77559841D01*
X69738196Y-77541442D01*
X69779972Y-77530090D01*
X69827721Y-77526135D01*
X69895962Y-77532655D01*
G37*
G36*
X69903398Y-77324196D02*
G01*
X69965913Y-77337142D01*
X70025497Y-77358585D01*
X70081715Y-77387852D01*
X70133030Y-77423856D01*
X70179858Y-77466906D01*
X70220830Y-77515652D01*
X70255507Y-77569758D01*
X70284028Y-77629755D01*
X70304725Y-77692892D01*
X70317339Y-77760097D01*
X70321641Y-77832049D01*
X70317341Y-77903962D01*
X70304728Y-77971168D01*
X70284028Y-78034344D01*
X70255522Y-78094356D01*
X70220846Y-78148589D01*
X70179858Y-78197559D01*
X70133025Y-78240824D01*
X70081708Y-78277052D01*
X70025497Y-78306552D01*
X69965899Y-78328167D01*
X69903386Y-78341214D01*
X69837308Y-78345631D01*
X69771189Y-78341213D01*
X69708656Y-78328166D01*
X69649057Y-78306552D01*
X69592865Y-78277072D01*
X69541422Y-78240847D01*
X69494330Y-78197559D01*
X69453159Y-78148570D01*
X69418385Y-78094336D01*
X69389855Y-78034344D01*
X69369189Y-77971171D01*
X69356596Y-77903964D01*
X69352302Y-77832049D01*
X69433574Y-77832049D01*
X69437114Y-77891809D01*
X69447525Y-77948014D01*
X69464654Y-78001188D01*
X69488328Y-78051767D01*
X69517213Y-78097371D01*
X69551421Y-78138452D01*
X69611539Y-78190624D01*
X69680198Y-78229677D01*
X69729817Y-78247700D01*
X69782002Y-78258591D01*
X69837308Y-78262283D01*
X69892168Y-78258601D01*
X69944134Y-78247719D01*
X69993745Y-78229677D01*
X70040508Y-78205042D01*
X70083198Y-78174725D01*
X70122156Y-78138452D01*
X70171240Y-78075197D01*
X70208862Y-78001188D01*
X70226197Y-77947998D01*
X70236728Y-77891795D01*
X70240308Y-77832049D01*
X70236709Y-77771820D01*
X70226160Y-77715632D01*
X70208862Y-77662911D01*
X70171261Y-77589534D01*
X70122156Y-77526685D01*
X70062359Y-77474775D01*
X69993745Y-77435765D01*
X69944134Y-77417723D01*
X69892168Y-77406841D01*
X69837308Y-77403159D01*
X69782002Y-77406851D01*
X69729817Y-77417742D01*
X69680198Y-77435765D01*
X69611517Y-77474757D01*
X69551421Y-77526685D01*
X69502094Y-77589571D01*
X69464654Y-77662911D01*
X69447562Y-77715616D01*
X69437133Y-77771806D01*
X69433574Y-77832049D01*
X69352302Y-77832049D01*
X69356597Y-77760095D01*
X69369192Y-77692889D01*
X69389855Y-77629755D01*
X69418399Y-77569777D01*
X69453175Y-77515671D01*
X69494330Y-77466906D01*
X69541416Y-77423834D01*
X69592858Y-77387832D01*
X69649057Y-77358585D01*
X69708642Y-77337144D01*
X69771177Y-77324196D01*
X69837308Y-77319811D01*
X69903398Y-77324196D01*
G37*
G36*
X71483688Y-78187911D02*
G01*
X71483688Y-78330000D01*
X70810127Y-78330000D01*
X70810127Y-78208428D01*
X71133199Y-77858794D01*
X71213128Y-77758899D01*
X71239248Y-77716710D01*
X71255137Y-77681901D01*
X71264738Y-77647464D01*
X71267777Y-77615833D01*
X71263480Y-77571898D01*
X71251352Y-77535478D01*
X71231173Y-77504610D01*
X71203907Y-77481744D01*
X71170344Y-77467623D01*
X71127765Y-77462571D01*
X71080644Y-77468592D01*
X71042707Y-77485652D01*
X71011982Y-77512846D01*
X70989401Y-77549277D01*
X70976032Y-77591868D01*
X70971327Y-77642212D01*
X70790282Y-77642212D01*
X70794939Y-77584311D01*
X70808613Y-77530761D01*
X70831254Y-77480706D01*
X70862347Y-77435467D01*
X70901257Y-77396620D01*
X70948796Y-77363714D01*
X71001447Y-77339852D01*
X71061525Y-77325006D01*
X71130512Y-77319811D01*
X71198201Y-77323939D01*
X71255486Y-77335529D01*
X71303986Y-77353700D01*
X71348251Y-77379909D01*
X71383900Y-77411828D01*
X71411941Y-77449809D01*
X71431990Y-77492707D01*
X71444457Y-77541766D01*
X71448822Y-77598248D01*
X71444908Y-77645637D01*
X71433068Y-77692648D01*
X71414452Y-77738423D01*
X71389043Y-77784666D01*
X71358597Y-77829674D01*
X71321755Y-77876685D01*
X71234987Y-77971756D01*
X71040997Y-78187911D01*
X71483688Y-78187911D01*
G37*
G36*
X71995148Y-77323699D02*
G01*
X72047461Y-77334893D01*
X72095962Y-77354207D01*
X72138991Y-77381788D01*
X72176174Y-77417645D01*
X72208356Y-77463914D01*
X72233099Y-77517479D01*
X72252381Y-77584326D01*
X72263669Y-77657271D01*
X72267768Y-77746198D01*
X72267768Y-77913871D01*
X72261490Y-78024414D01*
X72244565Y-78110303D01*
X72226018Y-78163183D01*
X72203616Y-78207148D01*
X72177643Y-78243415D01*
X72146349Y-78275027D01*
X72111633Y-78300205D01*
X72073107Y-78319375D01*
X72009954Y-78337408D01*
X71937857Y-78343677D01*
X71879769Y-78339731D01*
X71827154Y-78328290D01*
X71778413Y-78308549D01*
X71735258Y-78280418D01*
X71698030Y-78243941D01*
X71665587Y-78197254D01*
X71640591Y-78143263D01*
X71621196Y-78076109D01*
X71609947Y-78002843D01*
X71605870Y-77913871D01*
X71605870Y-77746198D01*
X71607339Y-77720797D01*
X71786854Y-77720797D01*
X71786854Y-77938600D01*
X71788592Y-77994354D01*
X71793326Y-78039289D01*
X71801728Y-78080637D01*
X71812500Y-78113234D01*
X71826940Y-78141966D01*
X71843213Y-78163609D01*
X71862881Y-78180605D01*
X71885223Y-78192369D01*
X71909986Y-78199220D01*
X71937857Y-78201589D01*
X71972526Y-78197866D01*
X72001727Y-78187240D01*
X72026785Y-78169097D01*
X72048499Y-78141688D01*
X72064705Y-78107501D01*
X72077564Y-78060172D01*
X72084765Y-78007207D01*
X72087456Y-77938600D01*
X72087456Y-77720797D01*
X72085698Y-77665089D01*
X72080922Y-77620474D01*
X72072643Y-77579470D01*
X72062177Y-77547568D01*
X72047947Y-77519586D01*
X72031463Y-77498597D01*
X72011565Y-77482163D01*
X71989087Y-77470814D01*
X71964346Y-77464191D01*
X71936514Y-77461899D01*
X71902361Y-77465520D01*
X71872950Y-77475943D01*
X71847535Y-77493659D01*
X71825811Y-77520151D01*
X71809663Y-77553311D01*
X71796746Y-77599897D01*
X71789555Y-77652227D01*
X71786854Y-77720797D01*
X71607339Y-77720797D01*
X71612259Y-77635760D01*
X71629439Y-77550498D01*
X71648185Y-77498066D01*
X71670704Y-77454417D01*
X71696728Y-77418363D01*
X71728025Y-77386996D01*
X71762717Y-77362167D01*
X71801203Y-77343442D01*
X71864330Y-77325914D01*
X71936514Y-77319811D01*
X71995148Y-77323699D01*
G37*
G36*
X73082013Y-78187911D02*
G01*
X73082013Y-78330000D01*
X72408452Y-78330000D01*
X72408452Y-78208428D01*
X72731524Y-77858794D01*
X72811453Y-77758899D01*
X72837573Y-77716710D01*
X72853463Y-77681901D01*
X72863063Y-77647464D01*
X72866102Y-77615833D01*
X72861806Y-77571898D01*
X72849677Y-77535478D01*
X72829498Y-77504610D01*
X72802233Y-77481744D01*
X72768669Y-77467623D01*
X72726090Y-77462571D01*
X72678970Y-77468592D01*
X72641032Y-77485652D01*
X72610307Y-77512846D01*
X72587726Y-77549277D01*
X72574357Y-77591868D01*
X72569652Y-77642212D01*
X72388607Y-77642212D01*
X72393264Y-77584311D01*
X72406939Y-77530761D01*
X72429579Y-77480706D01*
X72460673Y-77435467D01*
X72499582Y-77396620D01*
X72547121Y-77363714D01*
X72599772Y-77339852D01*
X72659850Y-77325006D01*
X72728838Y-77319811D01*
X72796526Y-77323939D01*
X72853812Y-77335529D01*
X72902311Y-77353700D01*
X72946576Y-77379909D01*
X72982225Y-77411828D01*
X73010266Y-77449809D01*
X73030315Y-77492707D01*
X73042782Y-77541766D01*
X73047147Y-77598248D01*
X73043233Y-77645637D01*
X73031393Y-77692648D01*
X73012777Y-77738423D01*
X72987369Y-77784666D01*
X72956922Y-77829674D01*
X72920080Y-77876685D01*
X72833312Y-77971756D01*
X72639323Y-78187911D01*
X73082013Y-78187911D01*
G37*
G36*
X73709717Y-77333489D02*
G01*
X73734263Y-77333489D01*
X73734263Y-77478996D01*
X73722662Y-77478996D01*
X73643145Y-77485600D01*
X73577459Y-77504092D01*
X73519666Y-77534548D01*
X73473656Y-77574190D01*
X73437583Y-77622881D01*
X73411130Y-77680497D01*
X73395432Y-77743627D01*
X73390003Y-77814220D01*
X73390003Y-77974077D01*
X73393173Y-78028358D01*
X73401910Y-78072568D01*
X73416687Y-78112414D01*
X73435371Y-78143703D01*
X73459121Y-78169112D01*
X73485929Y-78186690D01*
X73516152Y-78197295D01*
X73549860Y-78200917D01*
X73583372Y-78197300D01*
X73612691Y-78186812D01*
X73638616Y-78169810D01*
X73660868Y-78146695D01*
X73678420Y-78118883D01*
X73691582Y-78085757D01*
X73699417Y-78049658D01*
X73702145Y-78008942D01*
X73699505Y-77968804D01*
X73691887Y-77932800D01*
X73679104Y-77899500D01*
X73661845Y-77871128D01*
X73639678Y-77847490D01*
X73612997Y-77830034D01*
X73582550Y-77819298D01*
X73547112Y-77815563D01*
X73501374Y-77821244D01*
X73461688Y-77837789D01*
X73427898Y-77863454D01*
X73402276Y-77895491D01*
X73385304Y-77932284D01*
X73378401Y-77970657D01*
X73317585Y-77940615D01*
X73325664Y-77884341D01*
X73342498Y-77834064D01*
X73367906Y-77788439D01*
X73400566Y-77749312D01*
X73440298Y-77717370D01*
X73487334Y-77693319D01*
X73539450Y-77678597D01*
X73599014Y-77673475D01*
X73666999Y-77680475D01*
X73723333Y-77700280D01*
X73772257Y-77731989D01*
X73811810Y-77773126D01*
X73842384Y-77822153D01*
X73864750Y-77879127D01*
X73878011Y-77940245D01*
X73882519Y-78005523D01*
X73876685Y-78074925D01*
X73859621Y-78138330D01*
X73831517Y-78196384D01*
X73793675Y-78246102D01*
X73746527Y-78286915D01*
X73689872Y-78317971D01*
X73626480Y-78337029D01*
X73553279Y-78343677D01*
X73500667Y-78340199D01*
X73453212Y-78330135D01*
X73410153Y-78313818D01*
X73351442Y-78278165D01*
X73301831Y-78231020D01*
X73262340Y-78174141D01*
X73232833Y-78107433D01*
X73215071Y-78034863D01*
X73208958Y-77954659D01*
X73208958Y-77882730D01*
X73212654Y-77805820D01*
X73223460Y-77734039D01*
X73241076Y-77666819D01*
X73266281Y-77602312D01*
X73298021Y-77544279D01*
X73336331Y-77492063D01*
X73381582Y-77445958D01*
X73433611Y-77407111D01*
X73493135Y-77375254D01*
X73556821Y-77352589D01*
X73628576Y-77338432D01*
X73709717Y-77333489D01*
G37*
D10*
G36*
X59625790Y-69683944D02*
G01*
X57110958Y-69683944D01*
X57110958Y-68452723D01*
X57255402Y-68452723D01*
X57646979Y-68452723D01*
X57646979Y-69539500D01*
X57912501Y-69539500D01*
X58364167Y-69539500D01*
X58673189Y-69539500D01*
X58923630Y-69078625D01*
X59174070Y-69539500D01*
X59481346Y-69539500D01*
X59095882Y-68886449D01*
X59471583Y-68244035D01*
X59166926Y-68244035D01*
X58923630Y-68696019D01*
X58680334Y-68244035D01*
X58373931Y-68244035D01*
X58750504Y-68886449D01*
X58364167Y-69539500D01*
X57912501Y-69539500D01*
X57912501Y-68452723D01*
X58310348Y-68452723D01*
X58310348Y-68244035D01*
X57255402Y-68244035D01*
X57255402Y-68452723D01*
X57110958Y-68452723D01*
X57110958Y-68099591D01*
X59625790Y-68099591D01*
X59625790Y-69683944D01*
G37*
G36*
X58906925Y-59959578D02*
G01*
X58969352Y-59978997D01*
X59024130Y-60011566D01*
X59069687Y-60056947D01*
X59104879Y-60113169D01*
X59131443Y-60184271D01*
X59146772Y-60263273D01*
X59152320Y-60359698D01*
X59152320Y-60422963D01*
X59147820Y-60509183D01*
X59135194Y-60582495D01*
X59115488Y-60644748D01*
X59086183Y-60702306D01*
X59049976Y-60748209D01*
X59006660Y-60784058D01*
X58956695Y-60809887D01*
X58898412Y-60826005D01*
X58829962Y-60831685D01*
X58699463Y-60831685D01*
X58699463Y-59952723D01*
X58832661Y-59952723D01*
X58906925Y-59959578D01*
G37*
G36*
X59566732Y-61201724D02*
G01*
X55733892Y-61201724D01*
X55733892Y-60352237D01*
X55878336Y-60352237D01*
X55878336Y-60433124D01*
X55883083Y-60532174D01*
X55896658Y-60620219D01*
X55918264Y-60698567D01*
X55949445Y-60773333D01*
X55987519Y-60838301D01*
X56032411Y-60894554D01*
X56084986Y-60943551D01*
X56143819Y-60983891D01*
X56209585Y-61015924D01*
X56279383Y-61038561D01*
X56355153Y-61052490D01*
X56437799Y-61057280D01*
X56573411Y-61049098D01*
X56619121Y-61039500D01*
X57148955Y-61039500D01*
X57415430Y-61039500D01*
X57415430Y-60171094D01*
X57934885Y-61039500D01*
X58201361Y-61039500D01*
X58201361Y-60831685D01*
X58432988Y-60831685D01*
X58432988Y-61039500D01*
X58548485Y-61039500D01*
X58829962Y-61039500D01*
X58916724Y-61034407D01*
X58996479Y-61019580D01*
X59070163Y-60995444D01*
X59139855Y-60961642D01*
X59202090Y-60919917D01*
X59257577Y-60870025D01*
X59305556Y-60812765D01*
X59346065Y-60747953D01*
X59379185Y-60674753D01*
X59402760Y-60597709D01*
X59417288Y-60514066D01*
X59422288Y-60422884D01*
X59422288Y-60361524D01*
X59417271Y-60269754D01*
X59402727Y-60185998D01*
X59379185Y-60109258D01*
X59346062Y-60036332D01*
X59305405Y-59971507D01*
X59257100Y-59913986D01*
X59201373Y-59863739D01*
X59139279Y-59821870D01*
X59070163Y-59788091D01*
X58997061Y-59763931D01*
X58918196Y-59749116D01*
X58832661Y-59744035D01*
X58699463Y-59744035D01*
X58432988Y-59744035D01*
X58432988Y-60831685D01*
X58201361Y-60831685D01*
X58201361Y-59744035D01*
X57935838Y-59744035D01*
X57935838Y-60613314D01*
X57415430Y-59744035D01*
X57148955Y-59744035D01*
X57148955Y-61039500D01*
X56619121Y-61039500D01*
X56678476Y-61027037D01*
X56772183Y-60992206D01*
X56840965Y-60954405D01*
X56898664Y-60911099D01*
X56934235Y-60875582D01*
X56934235Y-60361762D01*
X56424463Y-60361762D01*
X56424463Y-60551795D01*
X56667839Y-60551795D01*
X56667839Y-60782391D01*
X56627356Y-60812396D01*
X56598768Y-60826182D01*
X56559011Y-60838750D01*
X56514203Y-60846517D01*
X56453754Y-60849466D01*
X56381400Y-60842486D01*
X56321429Y-60822795D01*
X56269392Y-60789766D01*
X56225937Y-60743178D01*
X56192868Y-60685690D01*
X56167831Y-60612441D01*
X56153489Y-60531414D01*
X56148304Y-60433124D01*
X56148304Y-60350411D01*
X56153280Y-60251364D01*
X56166958Y-60170697D01*
X56190614Y-60097641D01*
X56221094Y-60040833D01*
X56261169Y-59994308D01*
X56308570Y-59961216D01*
X56363281Y-59941071D01*
X56427162Y-59934069D01*
X56503348Y-59941581D01*
X56559011Y-59961692D01*
X56604331Y-59994745D01*
X56637596Y-60038214D01*
X56660293Y-60090128D01*
X56674904Y-60152996D01*
X56933362Y-60152996D01*
X56919216Y-60071624D01*
X56895571Y-59998347D01*
X56862714Y-59932084D01*
X56819382Y-59872985D01*
X56764659Y-59822782D01*
X56697130Y-59780947D01*
X56622863Y-59751914D01*
X56531659Y-59733073D01*
X56420018Y-59726255D01*
X56339800Y-59731101D01*
X56266422Y-59745187D01*
X56198948Y-59768087D01*
X56135566Y-59800250D01*
X56078614Y-59840701D01*
X56027489Y-59889855D01*
X55984061Y-59946014D01*
X55947158Y-60011147D01*
X55916914Y-60086397D01*
X55896042Y-60164942D01*
X55882923Y-60253133D01*
X55878336Y-60352237D01*
X55733892Y-60352237D01*
X55733892Y-59581811D01*
X59566732Y-59581811D01*
X59566732Y-61201724D01*
G37*
D11*
G36*
X56805364Y-74559630D02*
G01*
X57003445Y-73653489D01*
X57121659Y-73653489D01*
X57185833Y-73730853D01*
X56974747Y-74650000D01*
X56844321Y-74650000D01*
X56805364Y-74559630D01*
G37*
G36*
X56752730Y-73653489D02*
G01*
X56920097Y-74566530D01*
X56877110Y-74650000D01*
X56726107Y-74650000D01*
X56515020Y-73653489D01*
X56752730Y-73653489D01*
G37*
G36*
X57294460Y-74561706D02*
G01*
X57460484Y-73653489D01*
X57697522Y-73653489D01*
X57486435Y-74650000D01*
X57336165Y-74650000D01*
X57294460Y-74561706D01*
G37*
G36*
X57207021Y-73653489D02*
G01*
X57409926Y-74565125D01*
X57368954Y-74650000D01*
X57238468Y-74650000D01*
X57022557Y-73729448D01*
X57089541Y-73653489D01*
X57207021Y-73653489D01*
G37*
G36*
X58117681Y-74663677D02*
G01*
X58058076Y-74660346D01*
X58004585Y-74650755D01*
X57956420Y-74635345D01*
X57890276Y-74601201D01*
X57836557Y-74557187D01*
X57793555Y-74503606D01*
X57762124Y-74442515D01*
X57742949Y-74376090D01*
X57736479Y-74305251D01*
X57736479Y-74279361D01*
X57742265Y-74200080D01*
X57759010Y-74128846D01*
X57787319Y-74063412D01*
X57825994Y-74007641D01*
X57857785Y-73975846D01*
X57894698Y-73948923D01*
X57937308Y-73926735D01*
X57982840Y-73911028D01*
X58034437Y-73901180D01*
X58093073Y-73897732D01*
X58168937Y-73904303D01*
X58233818Y-73923011D01*
X58291575Y-73953914D01*
X58339331Y-73995368D01*
X58377197Y-74046714D01*
X58405582Y-74109368D01*
X58422517Y-74178791D01*
X58428480Y-74259516D01*
X58428480Y-74353000D01*
X57824651Y-74353000D01*
X57824651Y-74208897D01*
X58203777Y-74208897D01*
X58203777Y-74191189D01*
X58200760Y-74156167D01*
X58191137Y-74128480D01*
X58174801Y-74105625D01*
X58152547Y-74088974D01*
X58125439Y-74078965D01*
X58091058Y-74075357D01*
X58055795Y-74079716D01*
X58029204Y-74091721D01*
X58007853Y-74110890D01*
X57991652Y-74136418D01*
X57980502Y-74166158D01*
X57972845Y-74201570D01*
X57967411Y-74279361D01*
X57967411Y-74305251D01*
X57970325Y-74345037D01*
X57978646Y-74379684D01*
X57992696Y-74410966D01*
X58011435Y-74436592D01*
X58035088Y-74457394D01*
X58063398Y-74473107D01*
X58095224Y-74482682D01*
X58132702Y-74486051D01*
X58179264Y-74481652D01*
X58225575Y-74468283D01*
X58267798Y-74444953D01*
X58304160Y-74409542D01*
X58408696Y-74533862D01*
X58382556Y-74564406D01*
X58344827Y-74596083D01*
X58300511Y-74622801D01*
X58246092Y-74644931D01*
X58186643Y-74658796D01*
X58117681Y-74663677D01*
G37*
G36*
X58879719Y-74663677D02*
G01*
X58820113Y-74660346D01*
X58766622Y-74650755D01*
X58718457Y-74635345D01*
X58652314Y-74601201D01*
X58598595Y-74557187D01*
X58555593Y-74503606D01*
X58524162Y-74442515D01*
X58504987Y-74376090D01*
X58498517Y-74305251D01*
X58498517Y-74279361D01*
X58504303Y-74200080D01*
X58521048Y-74128846D01*
X58549356Y-74063412D01*
X58588032Y-74007641D01*
X58619823Y-73975846D01*
X58656735Y-73948923D01*
X58699345Y-73926735D01*
X58744877Y-73911028D01*
X58796474Y-73901180D01*
X58855111Y-73897732D01*
X58930974Y-73904303D01*
X58995856Y-73923011D01*
X59053612Y-73953914D01*
X59101369Y-73995368D01*
X59139235Y-74046714D01*
X59167620Y-74109368D01*
X59184555Y-74178791D01*
X59190518Y-74259516D01*
X59190518Y-74353000D01*
X58586688Y-74353000D01*
X58586688Y-74208897D01*
X58965814Y-74208897D01*
X58965814Y-74191189D01*
X58962798Y-74156167D01*
X58953175Y-74128480D01*
X58936838Y-74105625D01*
X58914584Y-74088974D01*
X58887476Y-74078965D01*
X58853096Y-74075357D01*
X58817833Y-74079716D01*
X58791242Y-74091721D01*
X58769891Y-74110890D01*
X58753689Y-74136418D01*
X58742539Y-74166158D01*
X58734883Y-74201570D01*
X58729448Y-74279361D01*
X58729448Y-74305251D01*
X58732362Y-74345037D01*
X58740683Y-74379684D01*
X58754734Y-74410966D01*
X58773473Y-74436592D01*
X58797126Y-74457394D01*
X58825436Y-74473107D01*
X58857262Y-74482682D01*
X58894740Y-74486051D01*
X58941302Y-74481652D01*
X58987613Y-74468283D01*
X59029836Y-74444953D01*
X59066198Y-74409542D01*
X59170734Y-74533862D01*
X59144594Y-74564406D01*
X59106864Y-74596083D01*
X59062549Y-74622801D01*
X59008129Y-74644931D01*
X58948680Y-74658796D01*
X58879719Y-74663677D01*
G37*
G36*
X59534534Y-73653489D02*
G01*
X59534534Y-74650000D01*
X59294748Y-74650000D01*
X59294748Y-73653489D01*
X59534534Y-73653489D01*
G37*
G36*
X60128166Y-73653489D02*
G01*
X59742873Y-74158583D01*
X59517437Y-74405635D01*
X59473717Y-74185266D01*
X59617882Y-73966242D01*
X59832327Y-73653489D01*
X60128166Y-73653489D01*
G37*
G36*
X59844661Y-74650000D02*
G01*
X59587779Y-74201020D01*
X59774258Y-74063450D01*
X60128166Y-74650000D01*
X59844661Y-74650000D01*
G37*
G36*
X60519077Y-74663677D02*
G01*
X60459471Y-74660346D01*
X60405980Y-74650755D01*
X60357815Y-74635345D01*
X60291672Y-74601201D01*
X60237953Y-74557187D01*
X60194951Y-74503606D01*
X60163520Y-74442515D01*
X60144345Y-74376090D01*
X60137875Y-74305251D01*
X60137875Y-74279361D01*
X60143661Y-74200080D01*
X60160406Y-74128846D01*
X60188714Y-74063412D01*
X60227390Y-74007641D01*
X60259181Y-73975846D01*
X60296093Y-73948923D01*
X60338703Y-73926735D01*
X60384235Y-73911028D01*
X60435832Y-73901180D01*
X60494469Y-73897732D01*
X60570332Y-73904303D01*
X60635214Y-73923011D01*
X60692970Y-73953914D01*
X60740727Y-73995368D01*
X60778593Y-74046714D01*
X60806978Y-74109368D01*
X60823913Y-74178791D01*
X60829876Y-74259516D01*
X60829876Y-74353000D01*
X60226046Y-74353000D01*
X60226046Y-74208897D01*
X60605172Y-74208897D01*
X60605172Y-74191189D01*
X60602156Y-74156167D01*
X60592533Y-74128480D01*
X60576196Y-74105625D01*
X60553942Y-74088974D01*
X60526834Y-74078965D01*
X60492454Y-74075357D01*
X60457191Y-74079716D01*
X60430600Y-74091721D01*
X60409249Y-74110890D01*
X60393047Y-74136418D01*
X60381897Y-74166158D01*
X60374241Y-74201570D01*
X60368806Y-74279361D01*
X60368806Y-74305251D01*
X60371720Y-74345037D01*
X60380041Y-74379684D01*
X60394092Y-74410966D01*
X60412831Y-74436592D01*
X60436484Y-74457394D01*
X60464794Y-74473107D01*
X60496620Y-74482682D01*
X60534098Y-74486051D01*
X60580660Y-74481652D01*
X60626971Y-74468283D01*
X60669194Y-74444953D01*
X60705556Y-74409542D01*
X60810092Y-74533862D01*
X60783952Y-74564406D01*
X60746222Y-74596083D01*
X60701907Y-74622801D01*
X60647487Y-74644931D01*
X60588038Y-74658796D01*
X60519077Y-74663677D01*
G37*
G36*
X61312561Y-73911409D02*
G01*
X61312561Y-74071266D01*
X60867123Y-74071266D01*
X60867123Y-73911409D01*
X61312561Y-73911409D01*
G37*
G36*
X60960729Y-73727739D02*
G01*
X61190928Y-73727739D01*
X61190928Y-74408932D01*
X61192881Y-74436475D01*
X61197766Y-74454300D01*
X61207036Y-74467922D01*
X61221336Y-74476831D01*
X61239576Y-74481488D01*
X61266093Y-74483304D01*
X61298883Y-74482327D01*
X61323490Y-74479213D01*
X61323490Y-74643893D01*
X61262002Y-74658548D01*
X61193675Y-74663677D01*
X61123239Y-74657492D01*
X61067646Y-74640474D01*
X61035426Y-74621943D01*
X61009096Y-74597782D01*
X60988023Y-74567445D01*
X60973552Y-74533095D01*
X60964145Y-74490449D01*
X60960729Y-74437691D01*
X60960729Y-73727739D01*
G37*
G36*
X61793230Y-73911409D02*
G01*
X61793230Y-74071266D01*
X61347793Y-74071266D01*
X61347793Y-73911409D01*
X61793230Y-73911409D01*
G37*
G36*
X61441399Y-73727739D02*
G01*
X61671598Y-73727739D01*
X61671598Y-74408932D01*
X61673551Y-74436475D01*
X61678436Y-74454300D01*
X61687706Y-74467922D01*
X61702006Y-74476831D01*
X61720245Y-74481488D01*
X61746763Y-74483304D01*
X61779553Y-74482327D01*
X61804160Y-74479213D01*
X61804160Y-74643893D01*
X61742672Y-74658548D01*
X61674345Y-74663677D01*
X61603909Y-74657492D01*
X61548316Y-74640474D01*
X61516096Y-74621943D01*
X61489766Y-74597782D01*
X61468693Y-74567445D01*
X61454222Y-74533095D01*
X61444815Y-74490449D01*
X61441399Y-74437691D01*
X61441399Y-73727739D01*
G37*
G36*
X56877110Y-76166051D02*
G01*
X56907642Y-76162955D01*
X56932065Y-76154328D01*
X56952291Y-76140012D01*
X56966870Y-76120806D01*
X56975521Y-76097464D01*
X56978166Y-76068171D01*
X57194748Y-76068171D01*
X57190343Y-76122113D01*
X57176714Y-76170018D01*
X57154082Y-76213068D01*
X57123463Y-76251164D01*
X57086361Y-76283169D01*
X57042035Y-76309422D01*
X56993822Y-76328173D01*
X56940938Y-76339702D01*
X56882545Y-76343677D01*
X56825235Y-76340300D01*
X56775007Y-76330672D01*
X56730870Y-76315345D01*
X56671007Y-76281106D01*
X56622609Y-76236149D01*
X56584978Y-76181434D01*
X56557702Y-76117020D01*
X56541728Y-76046853D01*
X56536209Y-75968886D01*
X56536209Y-75953194D01*
X56541722Y-75875187D01*
X56557702Y-75804755D01*
X56584998Y-75740029D01*
X56622609Y-75685259D01*
X56670958Y-75640284D01*
X56730565Y-75606064D01*
X56774460Y-75590730D01*
X56824347Y-75581105D01*
X56881202Y-75577732D01*
X56941874Y-75581805D01*
X56995841Y-75593522D01*
X57044112Y-75612414D01*
X57088114Y-75639190D01*
X57124881Y-75672560D01*
X57155120Y-75713042D01*
X57176903Y-75758615D01*
X57190331Y-75811350D01*
X57194748Y-75872777D01*
X56978166Y-75872777D01*
X56975841Y-75840824D01*
X56967908Y-75813365D01*
X56953936Y-75789611D01*
X56934080Y-75771233D01*
X56908981Y-75759579D01*
X56875706Y-75755357D01*
X56842563Y-75759567D01*
X56818309Y-75771050D01*
X56799307Y-75789452D01*
X56785153Y-75814403D01*
X56775953Y-75843250D01*
X56770132Y-75877479D01*
X56766407Y-75953194D01*
X56766407Y-75968886D01*
X56770132Y-76045640D01*
X56776076Y-76080081D01*
X56785519Y-76108410D01*
X56799926Y-76132698D01*
X56819042Y-76150725D01*
X56843349Y-76161912D01*
X56877110Y-76166051D01*
G37*
G36*
X57677733Y-75581093D02*
G01*
X57728759Y-75590707D01*
X57773970Y-75606064D01*
X57835654Y-75640274D01*
X57885650Y-75684954D01*
X57925012Y-75739495D01*
X57953977Y-75804084D01*
X57971260Y-75874757D01*
X57977241Y-75953866D01*
X57977241Y-75968215D01*
X57971273Y-76046744D01*
X57953977Y-76117386D01*
X57925033Y-76181986D01*
X57885650Y-76236821D01*
X57835678Y-76281700D01*
X57774337Y-76315711D01*
X57729347Y-76330873D01*
X57678639Y-76340361D01*
X57621318Y-76343677D01*
X57564000Y-76340372D01*
X57513033Y-76330893D01*
X57467568Y-76315711D01*
X57405661Y-76281659D01*
X57355582Y-76236821D01*
X57316234Y-76181992D01*
X57287255Y-76117386D01*
X57270005Y-76046746D01*
X57264052Y-75968215D01*
X57264052Y-75953866D01*
X57494251Y-75953866D01*
X57494251Y-75968215D01*
X57500418Y-76046006D01*
X57508856Y-76080586D01*
X57520874Y-76109082D01*
X57537924Y-76133180D01*
X57559830Y-76151031D01*
X57586543Y-76162056D01*
X57621318Y-76166051D01*
X57655453Y-76162064D01*
X57681769Y-76151031D01*
X57703375Y-76133208D01*
X57720359Y-76109082D01*
X57732423Y-76080581D01*
X57740875Y-76046006D01*
X57747042Y-75968215D01*
X57747042Y-75953866D01*
X57740875Y-75877845D01*
X57732461Y-75843442D01*
X57720359Y-75814403D01*
X57703287Y-75789559D01*
X57681402Y-75771050D01*
X57654693Y-75759520D01*
X57619975Y-75755357D01*
X57585881Y-75759508D01*
X57559464Y-75771050D01*
X57537877Y-75789531D01*
X57520874Y-75814403D01*
X57508818Y-75843438D01*
X57500418Y-75877845D01*
X57494251Y-75953866D01*
X57264052Y-75953866D01*
X57270018Y-75874755D01*
X57287255Y-75804084D01*
X57316254Y-75739489D01*
X57355582Y-75684954D01*
X57405521Y-75640251D01*
X57466896Y-75606064D01*
X57511944Y-75590697D01*
X57562672Y-75581088D01*
X57619975Y-75577732D01*
X57677733Y-75581093D01*
G37*
G36*
X58311488Y-75747725D02*
G01*
X58311488Y-76330000D01*
X58081228Y-76330000D01*
X58081228Y-75591409D01*
X58297138Y-75591409D01*
X58311488Y-75747725D01*
G37*
G36*
X58283461Y-75935730D02*
G01*
X58230826Y-75937074D01*
X58235591Y-75861096D01*
X58249267Y-75793642D01*
X58272586Y-75731447D01*
X58303916Y-75679520D01*
X58344422Y-75636406D01*
X58393065Y-75604415D01*
X58449005Y-75584672D01*
X58515736Y-75577732D01*
X58562752Y-75581537D01*
X58603846Y-75592447D01*
X58640726Y-75611207D01*
X58672112Y-75638182D01*
X58696911Y-75672789D01*
X58716198Y-75718721D01*
X58727445Y-75770839D01*
X58731585Y-75837117D01*
X58731585Y-76330000D01*
X58501386Y-76330000D01*
X58501386Y-75866610D01*
X58498299Y-75822594D01*
X58490762Y-75795657D01*
X58477486Y-75775250D01*
X58460354Y-75763539D01*
X58439259Y-75757561D01*
X58411871Y-75755357D01*
X58383069Y-75758850D01*
X58357894Y-75769035D01*
X58335974Y-75785195D01*
X58317288Y-75806953D01*
X58302824Y-75832836D01*
X58292009Y-75863984D01*
X58285673Y-75897688D01*
X58283461Y-75935730D01*
G37*
G36*
X58705635Y-75935730D02*
G01*
X58641399Y-75937074D01*
X58645901Y-75861054D01*
X58658801Y-75793642D01*
X58681101Y-75731406D01*
X58711435Y-75679520D01*
X58751044Y-75636428D01*
X58799180Y-75604415D01*
X58854805Y-75584682D01*
X58921484Y-75577732D01*
X58970660Y-75581597D01*
X59014357Y-75592752D01*
X59053772Y-75612353D01*
X59087447Y-75641235D01*
X59114067Y-75678749D01*
X59135258Y-75729651D01*
X59147690Y-75787960D01*
X59152355Y-75865144D01*
X59152355Y-76330000D01*
X58921484Y-76330000D01*
X58921484Y-75865205D01*
X58918411Y-75822470D01*
X58910860Y-75795963D01*
X58897622Y-75775794D01*
X58880451Y-75763906D01*
X58859498Y-75757625D01*
X58833374Y-75755357D01*
X58802181Y-75758927D01*
X58776648Y-75769035D01*
X58754863Y-75785225D01*
X58736714Y-75806953D01*
X58723007Y-75832816D01*
X58713145Y-75863984D01*
X58707583Y-75897647D01*
X58705635Y-75935730D01*
G37*
G36*
X59517070Y-75747725D02*
G01*
X59517070Y-76330000D01*
X59286810Y-76330000D01*
X59286810Y-75591409D01*
X59502721Y-75591409D01*
X59517070Y-75747725D01*
G37*
G36*
X59489043Y-75935730D02*
G01*
X59436409Y-75937074D01*
X59441174Y-75861096D01*
X59454849Y-75793642D01*
X59478168Y-75731447D01*
X59509499Y-75679520D01*
X59550005Y-75636406D01*
X59598647Y-75604415D01*
X59654588Y-75584672D01*
X59721318Y-75577732D01*
X59768335Y-75581537D01*
X59809429Y-75592447D01*
X59846309Y-75611207D01*
X59877695Y-75638182D01*
X59902494Y-75672789D01*
X59921781Y-75718721D01*
X59933028Y-75770839D01*
X59937168Y-75837117D01*
X59937168Y-76330000D01*
X59706969Y-76330000D01*
X59706969Y-75866610D01*
X59703881Y-75822594D01*
X59696345Y-75795657D01*
X59683069Y-75775250D01*
X59665936Y-75763539D01*
X59644842Y-75757561D01*
X59617454Y-75755357D01*
X59588652Y-75758850D01*
X59563476Y-75769035D01*
X59541557Y-75785195D01*
X59522871Y-75806953D01*
X59508407Y-75832836D01*
X59497592Y-75863984D01*
X59491256Y-75897688D01*
X59489043Y-75935730D01*
G37*
G36*
X59911217Y-75935730D02*
G01*
X59846981Y-75937074D01*
X59851483Y-75861054D01*
X59864384Y-75793642D01*
X59886684Y-75731406D01*
X59917018Y-75679520D01*
X59956627Y-75636428D01*
X60004762Y-75604415D01*
X60060388Y-75584682D01*
X60127067Y-75577732D01*
X60176243Y-75581597D01*
X60219940Y-75592752D01*
X60259355Y-75612353D01*
X60293030Y-75641235D01*
X60319650Y-75678749D01*
X60340840Y-75729651D01*
X60353273Y-75787960D01*
X60357937Y-75865144D01*
X60357937Y-76330000D01*
X60127067Y-76330000D01*
X60127067Y-75865205D01*
X60123994Y-75822470D01*
X60116442Y-75795963D01*
X60103205Y-75775794D01*
X60086034Y-75763906D01*
X60065080Y-75757625D01*
X60038956Y-75755357D01*
X60007764Y-75758927D01*
X59982231Y-75769035D01*
X59960445Y-75785225D01*
X59942297Y-75806953D01*
X59928589Y-75832816D01*
X59918728Y-75863984D01*
X59913165Y-75897647D01*
X59911217Y-75935730D01*
G37*
G36*
X60877686Y-76122515D02*
G01*
X60874515Y-76104656D01*
X60865047Y-76089420D01*
X60849379Y-76076946D01*
X60820961Y-76063469D01*
X60732850Y-76039228D01*
X60680073Y-76025609D01*
X60631428Y-76008515D01*
X60586277Y-75986974D01*
X60548447Y-75962109D01*
X60516579Y-75932013D01*
X60492759Y-75897262D01*
X60477810Y-75857666D01*
X60472609Y-75811228D01*
X60477663Y-75765317D01*
X60492759Y-75722140D01*
X60517364Y-75682933D01*
X60552172Y-75647707D01*
X60594886Y-75619209D01*
X60648159Y-75596538D01*
X60707235Y-75582665D01*
X60777302Y-75577732D01*
X60843286Y-75581401D01*
X60900239Y-75591779D01*
X60949433Y-75608140D01*
X60995220Y-75631822D01*
X61032045Y-75660055D01*
X61061113Y-75692892D01*
X61082818Y-75730695D01*
X61095895Y-75772125D01*
X61100375Y-75818189D01*
X60870176Y-75818189D01*
X60867722Y-75791515D01*
X60860956Y-75770439D01*
X60849011Y-75753017D01*
X60831219Y-75740031D01*
X60808736Y-75732345D01*
X60776570Y-75729406D01*
X60753502Y-75731680D01*
X60733217Y-75738260D01*
X60715531Y-75748963D01*
X60702137Y-75762807D01*
X60693494Y-75779674D01*
X60690535Y-75799626D01*
X60697679Y-75826615D01*
X60719905Y-75848414D01*
X60758129Y-75866182D01*
X60814183Y-75880165D01*
X60886947Y-75896943D01*
X60953524Y-75919122D01*
X60994934Y-75938767D01*
X61029847Y-75962634D01*
X61059036Y-75990746D01*
X61080961Y-76023863D01*
X61094755Y-76064803D01*
X61099703Y-76115676D01*
X61094010Y-76163116D01*
X61077172Y-76206168D01*
X61050122Y-76244400D01*
X61012264Y-76278525D01*
X60966666Y-76305571D01*
X60910476Y-76326641D01*
X60848887Y-76339213D01*
X60776570Y-76343677D01*
X60706788Y-76339076D01*
X60647707Y-76326134D01*
X60597601Y-76305758D01*
X60551520Y-76277302D01*
X60515168Y-76245457D01*
X60487264Y-76210137D01*
X60466157Y-76170384D01*
X60454036Y-76131553D01*
X60450078Y-76092962D01*
X60664584Y-76092962D01*
X60669689Y-76124905D01*
X60681254Y-76148954D01*
X60699172Y-76167828D01*
X60722592Y-76181072D01*
X60749877Y-76188635D01*
X60782737Y-76191331D01*
X60812645Y-76188923D01*
X60835005Y-76182477D01*
X60853720Y-76171724D01*
X60866756Y-76158297D01*
X60874896Y-76141875D01*
X60877686Y-76122515D01*
G37*
G36*
X61787552Y-75651577D02*
G01*
X61795906Y-75640937D01*
X61839087Y-75606735D01*
X61871896Y-75590964D01*
X61909481Y-75581164D01*
X61952843Y-75577732D01*
X62001817Y-75581069D01*
X62044390Y-75590577D01*
X62081559Y-75605758D01*
X62131145Y-75639308D01*
X62171441Y-75684221D01*
X62201927Y-75738203D01*
X62224014Y-75802984D01*
X62236680Y-75873145D01*
X62241111Y-75952522D01*
X62241111Y-75966871D01*
X62236652Y-76048705D01*
X62224014Y-76119767D01*
X62201882Y-76185081D01*
X62171441Y-76238897D01*
X62131202Y-76283443D01*
X62081926Y-76316383D01*
X62045039Y-76331161D01*
X62002785Y-76340424D01*
X61954187Y-76343677D01*
X61910369Y-76340239D01*
X61872465Y-76330432D01*
X61839453Y-76314673D01*
X61795971Y-76280444D01*
X61773831Y-76252313D01*
X61763616Y-76330000D01*
X61557292Y-76330000D01*
X61557292Y-75815699D01*
X61787552Y-75815699D01*
X61787552Y-76105415D01*
X61794254Y-76120269D01*
X61818265Y-76145596D01*
X61850549Y-76160968D01*
X61896851Y-76166723D01*
X61931428Y-76162855D01*
X61956568Y-76152435D01*
X61976486Y-76135201D01*
X61991067Y-76111463D01*
X62000587Y-76083286D01*
X62006821Y-76048021D01*
X62010912Y-75966810D01*
X62010912Y-75952522D01*
X62006088Y-75876807D01*
X61999253Y-75842664D01*
X61989052Y-75814036D01*
X61974017Y-75789418D01*
X61954187Y-75771050D01*
X61929278Y-75759565D01*
X61895446Y-75755357D01*
X61860425Y-75758652D01*
X61833592Y-75767630D01*
X61811179Y-75782603D01*
X61793963Y-75802801D01*
X61787552Y-75815699D01*
X61557292Y-75815699D01*
X61557292Y-75278778D01*
X61787552Y-75278778D01*
X61787552Y-75651577D01*
G37*
G36*
X62727699Y-75581093D02*
G01*
X62778724Y-75590707D01*
X62823935Y-75606064D01*
X62885619Y-75640274D01*
X62935615Y-75684954D01*
X62974978Y-75739495D01*
X63003942Y-75804084D01*
X63021225Y-75874757D01*
X63027206Y-75953866D01*
X63027206Y-75968215D01*
X63021239Y-76046744D01*
X63003942Y-76117386D01*
X62974998Y-76181986D01*
X62935615Y-76236821D01*
X62885643Y-76281700D01*
X62824302Y-76315711D01*
X62779312Y-76330873D01*
X62728604Y-76340361D01*
X62671284Y-76343677D01*
X62613965Y-76340372D01*
X62562999Y-76330893D01*
X62517533Y-76315711D01*
X62455626Y-76281659D01*
X62405547Y-76236821D01*
X62366199Y-76181992D01*
X62337220Y-76117386D01*
X62319970Y-76046746D01*
X62314017Y-75968215D01*
X62314017Y-75953866D01*
X62544216Y-75953866D01*
X62544216Y-75968215D01*
X62550383Y-76046006D01*
X62558821Y-76080586D01*
X62570839Y-76109082D01*
X62587889Y-76133180D01*
X62609795Y-76151031D01*
X62636508Y-76162056D01*
X62671284Y-76166051D01*
X62705418Y-76162064D01*
X62731734Y-76151031D01*
X62753340Y-76133208D01*
X62770324Y-76109082D01*
X62782388Y-76080581D01*
X62790840Y-76046006D01*
X62797008Y-75968215D01*
X62797008Y-75953866D01*
X62790840Y-75877845D01*
X62782426Y-75843442D01*
X62770324Y-75814403D01*
X62753252Y-75789559D01*
X62731367Y-75771050D01*
X62704658Y-75759520D01*
X62669940Y-75755357D01*
X62635846Y-75759508D01*
X62609429Y-75771050D01*
X62587843Y-75789531D01*
X62570839Y-75814403D01*
X62558783Y-75843438D01*
X62550383Y-75877845D01*
X62544216Y-75953866D01*
X62314017Y-75953866D01*
X62319984Y-75874755D01*
X62337220Y-75804084D01*
X62366219Y-75739489D01*
X62405547Y-75684954D01*
X62455486Y-75640251D01*
X62516861Y-75606064D01*
X62561910Y-75590697D01*
X62612637Y-75581088D01*
X62669940Y-75577732D01*
X62727699Y-75581093D01*
G37*
G36*
X63513066Y-76144375D02*
G01*
X63513066Y-75839926D01*
X63510685Y-75809867D01*
X63504152Y-75786071D01*
X63492637Y-75765891D01*
X63476186Y-75750900D01*
X63454941Y-75741704D01*
X63424956Y-75738260D01*
X63400216Y-75740625D01*
X63380565Y-75747175D01*
X63364315Y-75758279D01*
X63352538Y-75773797D01*
X63345585Y-75793077D01*
X63343012Y-75818921D01*
X63112752Y-75818921D01*
X63118520Y-75769298D01*
X63135650Y-75723606D01*
X63163172Y-75682722D01*
X63201229Y-75646730D01*
X63247239Y-75618091D01*
X63303689Y-75595867D01*
X63365565Y-75582457D01*
X63437229Y-75577732D01*
X63495429Y-75581179D01*
X63547652Y-75591110D01*
X63594705Y-75607102D01*
X63638227Y-75630204D01*
X63674505Y-75659324D01*
X63704370Y-75694785D01*
X63726159Y-75735491D01*
X63739826Y-75783722D01*
X63744670Y-75841209D01*
X63744670Y-76143642D01*
X63747061Y-76211615D01*
X63752852Y-76253246D01*
X63763014Y-76288881D01*
X63776055Y-76318398D01*
X63776055Y-76330000D01*
X63545184Y-76330000D01*
X63531390Y-76293564D01*
X63520943Y-76246407D01*
X63515058Y-76196424D01*
X63513066Y-76144375D01*
G37*
G36*
X63541093Y-75880593D02*
G01*
X63542437Y-76003569D01*
X63440648Y-76003569D01*
X63410018Y-76005938D01*
X63386366Y-76012362D01*
X63365998Y-76022962D01*
X63350828Y-76036297D01*
X63339371Y-76052475D01*
X63331716Y-76070430D01*
X63325915Y-76110181D01*
X63328438Y-76129534D01*
X63335807Y-76146329D01*
X63347455Y-76160392D01*
X63362796Y-76170997D01*
X63380675Y-76177494D01*
X63401020Y-76179729D01*
X63437403Y-76175903D01*
X63466294Y-76165258D01*
X63490611Y-76148701D01*
X63507632Y-76129781D01*
X63518698Y-76108678D01*
X63521981Y-76090642D01*
X63572540Y-76183759D01*
X63541399Y-76239141D01*
X63522084Y-76265845D01*
X63498351Y-76290737D01*
X63470453Y-76311779D01*
X63435886Y-76329023D01*
X63396699Y-76339741D01*
X63346371Y-76343677D01*
X63280345Y-76336593D01*
X63221013Y-76315833D01*
X63185197Y-76294538D01*
X63154995Y-76268673D01*
X63129849Y-76237981D01*
X63111027Y-76203284D01*
X63099630Y-76165151D01*
X63095717Y-76122698D01*
X63101110Y-76067701D01*
X63116538Y-76020666D01*
X63142495Y-75979479D01*
X63179675Y-75944523D01*
X63226132Y-75917764D01*
X63287630Y-75896957D01*
X63356249Y-75884984D01*
X63442053Y-75880593D01*
X63541093Y-75880593D01*
G37*
G36*
X64104928Y-75774347D02*
G01*
X64104928Y-76330000D01*
X63874668Y-76330000D01*
X63874668Y-75591409D01*
X64089846Y-75591409D01*
X64104928Y-75774347D01*
G37*
G36*
X64323525Y-75585975D02*
G01*
X64319373Y-75799748D01*
X64282493Y-75796390D01*
X64243597Y-75794314D01*
X64204845Y-75796790D01*
X64174232Y-75803534D01*
X64147324Y-75815244D01*
X64126421Y-75830889D01*
X64110339Y-75851019D01*
X64099066Y-75876318D01*
X64092990Y-75904875D01*
X64091250Y-75939822D01*
X64049546Y-75912466D01*
X64053370Y-75839895D01*
X64064200Y-75776912D01*
X64082548Y-75718612D01*
X64106210Y-75670971D01*
X64137017Y-75630771D01*
X64172522Y-75601973D01*
X64213562Y-75583875D01*
X64259961Y-75577732D01*
X64293789Y-75579808D01*
X64323525Y-75585975D01*
G37*
G36*
X65045935Y-76330000D02*
G01*
X64838267Y-76330000D01*
X64826892Y-76249330D01*
X64801499Y-76280590D01*
X64757972Y-76314673D01*
X64725237Y-76330536D01*
X64688539Y-76340292D01*
X64647025Y-76343677D01*
X64600772Y-76340397D01*
X64559706Y-76330959D01*
X64523011Y-76315711D01*
X64473957Y-76282182D01*
X64433496Y-76237187D01*
X64402451Y-76183222D01*
X64379213Y-76118424D01*
X64365534Y-76048290D01*
X64360772Y-75969558D01*
X64360772Y-75955270D01*
X64590971Y-75955270D01*
X64590971Y-75969558D01*
X64596406Y-76046678D01*
X64604068Y-76080720D01*
X64615212Y-76109082D01*
X64631002Y-76133327D01*
X64650750Y-76151031D01*
X64674917Y-76162102D01*
X64705765Y-76166051D01*
X64747303Y-76160479D01*
X64779160Y-76144924D01*
X64804081Y-76119843D01*
X64814331Y-76100085D01*
X64814331Y-75820781D01*
X64804439Y-75802435D01*
X64786226Y-75781961D01*
X64764139Y-75767325D01*
X64738452Y-75758496D01*
X64707109Y-75755357D01*
X64676846Y-75759285D01*
X64652765Y-75770378D01*
X64632990Y-75788063D01*
X64616922Y-75812327D01*
X64605428Y-75840822D01*
X64597138Y-75875769D01*
X64590971Y-75955270D01*
X64360772Y-75955270D01*
X64365570Y-75873401D01*
X64379213Y-75802008D01*
X64402597Y-75736388D01*
X64433862Y-75682512D01*
X64474640Y-75637936D01*
X64524049Y-75605026D01*
X64580950Y-75584814D01*
X64648368Y-75577732D01*
X64689429Y-75581110D01*
X64725807Y-75590859D01*
X64758339Y-75606735D01*
X64801513Y-75640918D01*
X64814331Y-75656920D01*
X64814331Y-75278778D01*
X65045935Y-75278778D01*
X65045935Y-76330000D01*
G37*
D12*
G36*
X60711305Y-71112688D02*
G01*
X60711305Y-70418489D01*
X60899189Y-70418489D01*
X60899189Y-71112505D01*
X60894086Y-71177468D01*
X60879530Y-71233647D01*
X60856141Y-71282559D01*
X60823894Y-71326164D01*
X60784960Y-71362138D01*
X60738661Y-71391064D01*
X60687824Y-71411674D01*
X60632117Y-71424320D01*
X60570621Y-71428677D01*
X60507040Y-71424840D01*
X60450432Y-71413822D01*
X60399835Y-71396132D01*
X60353496Y-71370372D01*
X60314944Y-71337320D01*
X60283331Y-71296420D01*
X60260794Y-71249850D01*
X60246453Y-71193690D01*
X60241321Y-71125816D01*
X60429877Y-71125816D01*
X60434592Y-71178952D01*
X60446974Y-71216552D01*
X60468000Y-71246343D01*
X60495822Y-71266011D01*
X60529444Y-71277128D01*
X60570621Y-71281093D01*
X60610301Y-71276088D01*
X60644016Y-71261615D01*
X60671969Y-71237940D01*
X60693537Y-71204462D01*
X60706561Y-71164214D01*
X60711305Y-71112688D01*
G37*
G36*
X61735538Y-71272911D02*
G01*
X61735538Y-71415000D01*
X61061977Y-71415000D01*
X61061977Y-71293428D01*
X61385049Y-70943794D01*
X61464978Y-70843899D01*
X61491098Y-70801710D01*
X61506987Y-70766901D01*
X61516588Y-70732464D01*
X61519627Y-70700833D01*
X61515331Y-70656898D01*
X61503202Y-70620478D01*
X61483023Y-70589610D01*
X61455758Y-70566744D01*
X61422194Y-70552623D01*
X61379615Y-70547571D01*
X61332495Y-70553592D01*
X61294557Y-70570652D01*
X61263832Y-70597846D01*
X61241251Y-70634277D01*
X61227882Y-70676868D01*
X61223177Y-70727212D01*
X61042132Y-70727212D01*
X61046789Y-70669311D01*
X61060464Y-70615761D01*
X61083104Y-70565706D01*
X61114198Y-70520467D01*
X61153107Y-70481620D01*
X61200646Y-70448714D01*
X61253297Y-70424852D01*
X61313375Y-70410006D01*
X61382363Y-70404811D01*
X61450051Y-70408939D01*
X61507337Y-70420529D01*
X61555836Y-70438700D01*
X61600101Y-70464909D01*
X61635750Y-70496828D01*
X61663791Y-70534809D01*
X61683840Y-70577707D01*
X61696307Y-70626766D01*
X61700672Y-70683248D01*
X61696758Y-70730637D01*
X61684918Y-70777648D01*
X61666302Y-70823423D01*
X61640894Y-70869666D01*
X61610447Y-70914674D01*
X61573605Y-70961685D01*
X61486837Y-71056756D01*
X61292848Y-71272911D01*
X61735538Y-71272911D01*
G37*
G36*
X69658567Y-65908674D02*
G01*
X69714895Y-65919938D01*
X69767053Y-65938333D01*
X69815988Y-65964017D01*
X69860028Y-65996181D01*
X69899616Y-66035176D01*
X69933375Y-66079473D01*
X69962099Y-66130221D01*
X69985711Y-66188194D01*
X70002201Y-66248685D01*
X70012523Y-66316118D01*
X70016120Y-66391404D01*
X70016120Y-66442756D01*
X70012570Y-66517594D01*
X70002361Y-66584944D01*
X69986017Y-66645661D01*
X69962589Y-66703815D01*
X69933985Y-66754550D01*
X69900288Y-66798679D01*
X69860774Y-66837470D01*
X69841982Y-66851186D01*
X70011296Y-66986013D01*
X69891067Y-67090854D01*
X69679809Y-66920829D01*
X69659949Y-66924809D01*
X69598709Y-66928677D01*
X69537956Y-66924825D01*
X69481823Y-66913570D01*
X69429632Y-66895155D01*
X69380694Y-66869515D01*
X69336548Y-66837470D01*
X69296763Y-66798679D01*
X69262821Y-66754552D01*
X69233872Y-66703813D01*
X69209996Y-66645661D01*
X69193314Y-66584917D01*
X69182902Y-66517569D01*
X69179283Y-66442756D01*
X69179283Y-66391404D01*
X69179350Y-66390000D01*
X69369181Y-66390000D01*
X69369181Y-66442756D01*
X69373248Y-66521129D01*
X69384508Y-66585943D01*
X69404080Y-66644738D01*
X69429632Y-66691029D01*
X69462974Y-66728941D01*
X69502050Y-66755753D01*
X69546851Y-66772033D01*
X69598709Y-66777674D01*
X69651098Y-66772006D01*
X69695673Y-66755753D01*
X69734352Y-66728932D01*
X69767053Y-66691029D01*
X69792005Y-66644781D01*
X69811139Y-66585943D01*
X69822173Y-66521143D01*
X69826160Y-66442756D01*
X69826160Y-66390000D01*
X69822159Y-66311114D01*
X69811139Y-66246568D01*
X69791845Y-66188052D01*
X69766381Y-66142093D01*
X69733151Y-66104540D01*
X69694330Y-66078101D01*
X69649773Y-66062079D01*
X69597365Y-66056486D01*
X69545534Y-66062060D01*
X69501012Y-66078101D01*
X69462289Y-66104546D01*
X69429265Y-66142093D01*
X69404002Y-66188013D01*
X69384508Y-66246568D01*
X69373262Y-66311127D01*
X69369181Y-66390000D01*
X69179350Y-66390000D01*
X69182879Y-66316118D01*
X69193201Y-66248685D01*
X69209691Y-66188194D01*
X69233299Y-66130217D01*
X69262002Y-66079469D01*
X69295725Y-66035176D01*
X69335311Y-65996177D01*
X69379331Y-65964013D01*
X69428227Y-65938333D01*
X69480419Y-65919920D01*
X69536572Y-65908665D01*
X69597365Y-65904811D01*
X69658567Y-65908674D01*
G37*
G36*
X70828349Y-66772911D02*
G01*
X70828349Y-66915000D01*
X70154789Y-66915000D01*
X70154789Y-66793428D01*
X70477861Y-66443794D01*
X70557789Y-66343899D01*
X70583910Y-66301710D01*
X70599799Y-66266901D01*
X70609400Y-66232464D01*
X70612439Y-66200833D01*
X70608142Y-66156898D01*
X70596013Y-66120478D01*
X70575834Y-66089610D01*
X70548569Y-66066744D01*
X70515005Y-66052623D01*
X70472426Y-66047571D01*
X70425306Y-66053592D01*
X70387369Y-66070652D01*
X70356644Y-66097846D01*
X70334063Y-66134277D01*
X70320693Y-66176868D01*
X70315989Y-66227212D01*
X70134944Y-66227212D01*
X70139601Y-66169311D01*
X70153275Y-66115761D01*
X70175916Y-66065706D01*
X70207009Y-66020467D01*
X70245918Y-65981620D01*
X70293457Y-65948714D01*
X70346109Y-65924852D01*
X70406186Y-65910006D01*
X70475174Y-65904811D01*
X70542863Y-65908939D01*
X70600148Y-65920529D01*
X70648648Y-65938700D01*
X70692912Y-65964909D01*
X70728562Y-65996828D01*
X70756603Y-66034809D01*
X70776651Y-66077707D01*
X70789119Y-66126766D01*
X70793484Y-66183248D01*
X70789570Y-66230637D01*
X70777730Y-66277648D01*
X70759113Y-66323423D01*
X70733705Y-66369666D01*
X70703259Y-66414674D01*
X70666416Y-66461685D01*
X70579649Y-66556756D01*
X70385659Y-66772911D01*
X70828349Y-66772911D01*
G37*
G36*
X69658567Y-60408674D02*
G01*
X69714895Y-60419938D01*
X69767053Y-60438333D01*
X69815988Y-60464017D01*
X69860028Y-60496181D01*
X69899616Y-60535176D01*
X69933375Y-60579473D01*
X69962099Y-60630221D01*
X69985711Y-60688194D01*
X70002201Y-60748685D01*
X70012523Y-60816118D01*
X70016120Y-60891404D01*
X70016120Y-60942756D01*
X70012570Y-61017594D01*
X70002361Y-61084944D01*
X69986017Y-61145661D01*
X69962589Y-61203815D01*
X69933985Y-61254550D01*
X69900288Y-61298679D01*
X69860774Y-61337470D01*
X69841982Y-61351186D01*
X70011296Y-61486013D01*
X69891067Y-61590854D01*
X69679809Y-61420829D01*
X69659949Y-61424809D01*
X69598709Y-61428677D01*
X69537956Y-61424825D01*
X69481823Y-61413570D01*
X69429632Y-61395155D01*
X69380694Y-61369515D01*
X69336548Y-61337470D01*
X69296763Y-61298679D01*
X69262821Y-61254552D01*
X69233872Y-61203813D01*
X69209996Y-61145661D01*
X69193314Y-61084917D01*
X69182902Y-61017569D01*
X69179283Y-60942756D01*
X69179283Y-60891404D01*
X69179350Y-60890000D01*
X69369181Y-60890000D01*
X69369181Y-60942756D01*
X69373248Y-61021129D01*
X69384508Y-61085943D01*
X69404080Y-61144738D01*
X69429632Y-61191029D01*
X69462974Y-61228941D01*
X69502050Y-61255753D01*
X69546851Y-61272033D01*
X69598709Y-61277674D01*
X69651098Y-61272006D01*
X69695673Y-61255753D01*
X69734352Y-61228932D01*
X69767053Y-61191029D01*
X69792005Y-61144781D01*
X69811139Y-61085943D01*
X69822173Y-61021143D01*
X69826160Y-60942756D01*
X69826160Y-60890000D01*
X69822159Y-60811114D01*
X69811139Y-60746568D01*
X69791845Y-60688052D01*
X69766381Y-60642093D01*
X69733151Y-60604540D01*
X69694330Y-60578101D01*
X69649773Y-60562079D01*
X69597365Y-60556486D01*
X69545534Y-60562060D01*
X69501012Y-60578101D01*
X69462289Y-60604546D01*
X69429265Y-60642093D01*
X69404002Y-60688013D01*
X69384508Y-60746568D01*
X69373262Y-60811127D01*
X69369181Y-60890000D01*
X69179350Y-60890000D01*
X69182879Y-60816118D01*
X69193201Y-60748685D01*
X69209691Y-60688194D01*
X69233299Y-60630217D01*
X69262002Y-60579469D01*
X69295725Y-60535176D01*
X69335311Y-60496177D01*
X69379331Y-60464013D01*
X69428227Y-60438333D01*
X69480419Y-60419920D01*
X69536572Y-60408665D01*
X69597365Y-60404811D01*
X69658567Y-60408674D01*
G37*
G36*
X70619277Y-60418489D02*
G01*
X70619277Y-61415000D01*
X70438293Y-61415000D01*
X70438293Y-60629392D01*
X70198508Y-60708588D01*
X70198508Y-60562531D01*
X70598822Y-60418489D01*
X70619277Y-60418489D01*
G37*
D13*
G36*
X91789035Y-77798489D02*
G01*
X91976919Y-77798489D01*
X91976919Y-78460326D01*
X91971006Y-78535163D01*
X91954301Y-78598470D01*
X91927704Y-78652301D01*
X91890971Y-78699836D01*
X91846621Y-78738646D01*
X91793798Y-78769354D01*
X91736122Y-78790809D01*
X91672256Y-78804080D01*
X91601151Y-78808677D01*
X91529140Y-78804071D01*
X91464611Y-78790791D01*
X91406490Y-78769354D01*
X91353314Y-78738588D01*
X91308986Y-78699772D01*
X91272584Y-78652301D01*
X91246401Y-78598518D01*
X91229933Y-78535208D01*
X91224101Y-78460326D01*
X91224101Y-77798489D01*
X91411924Y-77798489D01*
X91411924Y-78460509D01*
X91418244Y-78526422D01*
X91435127Y-78574509D01*
X91463370Y-78613146D01*
X91500706Y-78639905D01*
X91545719Y-78655521D01*
X91601151Y-78661093D01*
X91657176Y-78655493D01*
X91701963Y-78639905D01*
X91738894Y-78613142D01*
X91766504Y-78574509D01*
X91782887Y-78526471D01*
X91789035Y-78460509D01*
X91789035Y-77798489D01*
G37*
G36*
X92596319Y-77798489D02*
G01*
X92596319Y-78795000D01*
X92415335Y-78795000D01*
X92415335Y-78009392D01*
X92175549Y-78088588D01*
X92175549Y-77942531D01*
X92575863Y-77798489D01*
X92596319Y-77798489D01*
G37*
D12*
G36*
X66250846Y-65918489D02*
G01*
X66612203Y-65918489D01*
X66687262Y-65922648D01*
X66751640Y-65934376D01*
X66806865Y-65952805D01*
X66857786Y-65979885D01*
X66899067Y-66013609D01*
X66931917Y-66054288D01*
X66955600Y-66100945D01*
X66970411Y-66155485D01*
X66975637Y-66219640D01*
X66972373Y-66270719D01*
X66963082Y-66315210D01*
X66948281Y-66354096D01*
X66915400Y-66406432D01*
X66871467Y-66449473D01*
X66818423Y-66483321D01*
X66754963Y-66509801D01*
X66696223Y-66539842D01*
X66377242Y-66539842D01*
X66375837Y-66391587D01*
X66614279Y-66391587D01*
X66669179Y-66386035D01*
X66710572Y-66370949D01*
X66744326Y-66346172D01*
X66768274Y-66313857D01*
X66782734Y-66275409D01*
X66787753Y-66230570D01*
X66782741Y-66182627D01*
X66768641Y-66143497D01*
X66744763Y-66111082D01*
X66710572Y-66086711D01*
X66668481Y-66072141D01*
X66612203Y-66066744D01*
X66438730Y-66066744D01*
X66438730Y-66915000D01*
X66250846Y-66915000D01*
X66250846Y-65918489D01*
G37*
G36*
X66812360Y-66915000D02*
G01*
X66582161Y-66470172D01*
X66780975Y-66469501D01*
X67013922Y-66905413D01*
X67013922Y-66915000D01*
X66812360Y-66915000D01*
G37*
G36*
X67314096Y-66337976D02*
G01*
X67415884Y-66337976D01*
X67466890Y-66332884D01*
X67505033Y-66319108D01*
X67535961Y-66296439D01*
X67557606Y-66266962D01*
X67570533Y-66231715D01*
X67575070Y-66189659D01*
X67570937Y-66148337D01*
X67559316Y-66114494D01*
X67539652Y-66086237D01*
X67511811Y-66065095D01*
X67477290Y-66052303D01*
X67430905Y-66047571D01*
X67392547Y-66051554D01*
X67358121Y-66063203D01*
X67328267Y-66082223D01*
X67305548Y-66107594D01*
X67291111Y-66138605D01*
X67286069Y-66176409D01*
X67105085Y-66176409D01*
X67109982Y-66124237D01*
X67124231Y-66077535D01*
X67147767Y-66035176D01*
X67179200Y-65997863D01*
X67217510Y-65966064D01*
X67263538Y-65939555D01*
X67313325Y-65920500D01*
X67367487Y-65908824D01*
X67426814Y-65904811D01*
X67491763Y-65908680D01*
X67548898Y-65919728D01*
X67599311Y-65937356D01*
X67645709Y-65962866D01*
X67683857Y-65994606D01*
X67714715Y-66032916D01*
X67737078Y-66076688D01*
X67751096Y-66128163D01*
X67756054Y-66189049D01*
X67750965Y-66233030D01*
X67735232Y-66277831D01*
X67709947Y-66319333D01*
X67674415Y-66357271D01*
X67630914Y-66388579D01*
X67576718Y-66414118D01*
X67516409Y-66430024D01*
X67444583Y-66435673D01*
X67314096Y-66435673D01*
X67314096Y-66337976D01*
G37*
G36*
X67314096Y-66477316D02*
G01*
X67314096Y-66381024D01*
X67444583Y-66381024D01*
X67525505Y-66386228D01*
X67590396Y-66400502D01*
X67648095Y-66424521D01*
X67692550Y-66455090D01*
X67727864Y-66493384D01*
X67752329Y-66536728D01*
X67766869Y-66584511D01*
X67771807Y-66636441D01*
X67765067Y-66703336D01*
X67745795Y-66760333D01*
X67714628Y-66810462D01*
X67673072Y-66852229D01*
X67622894Y-66884937D01*
X67563407Y-66909260D01*
X67498893Y-66923696D01*
X67427486Y-66928677D01*
X67364768Y-66924306D01*
X67304204Y-66911275D01*
X67247107Y-66889278D01*
X67196615Y-66858702D01*
X67153835Y-66819034D01*
X67120778Y-66769980D01*
X67105514Y-66733275D01*
X67096047Y-66692016D01*
X67092751Y-66645355D01*
X67273796Y-66645355D01*
X67278929Y-66684413D01*
X67293946Y-66718384D01*
X67317817Y-66746764D01*
X67349939Y-66768515D01*
X67387561Y-66781942D01*
X67430905Y-66786589D01*
X67478458Y-66781818D01*
X67516634Y-66768515D01*
X67548413Y-66746360D01*
X67571589Y-66716613D01*
X67585735Y-66680446D01*
X67590762Y-66635708D01*
X67585020Y-66583153D01*
X67569574Y-66544911D01*
X67544030Y-66514854D01*
X67509124Y-66493742D01*
X67467595Y-66481676D01*
X67415884Y-66477316D01*
X67314096Y-66477316D01*
G37*
G36*
X72250846Y-65918489D02*
G01*
X72612203Y-65918489D01*
X72687262Y-65922648D01*
X72751640Y-65934376D01*
X72806865Y-65952805D01*
X72857786Y-65979885D01*
X72899067Y-66013609D01*
X72931917Y-66054288D01*
X72955600Y-66100945D01*
X72970411Y-66155485D01*
X72975637Y-66219640D01*
X72972373Y-66270719D01*
X72963082Y-66315210D01*
X72948281Y-66354096D01*
X72915400Y-66406432D01*
X72871467Y-66449473D01*
X72818423Y-66483321D01*
X72754963Y-66509801D01*
X72696223Y-66539842D01*
X72377242Y-66539842D01*
X72375837Y-66391587D01*
X72614279Y-66391587D01*
X72669179Y-66386035D01*
X72710572Y-66370949D01*
X72744326Y-66346172D01*
X72768274Y-66313857D01*
X72782734Y-66275409D01*
X72787753Y-66230570D01*
X72782741Y-66182627D01*
X72768641Y-66143497D01*
X72744763Y-66111082D01*
X72710572Y-66086711D01*
X72668481Y-66072141D01*
X72612203Y-66066744D01*
X72438730Y-66066744D01*
X72438730Y-66915000D01*
X72250846Y-66915000D01*
X72250846Y-65918489D01*
G37*
G36*
X72812360Y-66915000D02*
G01*
X72582161Y-66470172D01*
X72780975Y-66469501D01*
X73013922Y-66905413D01*
X73013922Y-66915000D01*
X72812360Y-66915000D01*
G37*
G36*
X73807283Y-66550162D02*
G01*
X73807283Y-66692250D01*
X73090736Y-66692250D01*
X73083226Y-66582951D01*
X73504667Y-65918489D01*
X73648831Y-65918489D01*
X73493065Y-66182759D01*
X73266957Y-66550162D01*
X73807283Y-66550162D01*
G37*
G36*
X73689131Y-65918489D02*
G01*
X73689131Y-66915000D01*
X73508086Y-66915000D01*
X73508086Y-65918489D01*
X73689131Y-65918489D01*
G37*
G36*
X72250846Y-60418489D02*
G01*
X72612203Y-60418489D01*
X72687262Y-60422648D01*
X72751640Y-60434376D01*
X72806865Y-60452805D01*
X72857786Y-60479885D01*
X72899067Y-60513609D01*
X72931917Y-60554288D01*
X72955600Y-60600945D01*
X72970411Y-60655485D01*
X72975637Y-60719640D01*
X72972373Y-60770719D01*
X72963082Y-60815210D01*
X72948281Y-60854096D01*
X72915400Y-60906432D01*
X72871467Y-60949473D01*
X72818423Y-60983321D01*
X72754963Y-61009801D01*
X72696223Y-61039842D01*
X72377242Y-61039842D01*
X72375837Y-60891587D01*
X72614279Y-60891587D01*
X72669179Y-60886035D01*
X72710572Y-60870949D01*
X72744326Y-60846172D01*
X72768274Y-60813857D01*
X72782734Y-60775409D01*
X72787753Y-60730570D01*
X72782741Y-60682627D01*
X72768641Y-60643497D01*
X72744763Y-60611082D01*
X72710572Y-60586711D01*
X72668481Y-60572141D01*
X72612203Y-60566744D01*
X72438730Y-60566744D01*
X72438730Y-61415000D01*
X72250846Y-61415000D01*
X72250846Y-60418489D01*
G37*
G36*
X72812360Y-61415000D02*
G01*
X72582161Y-60970172D01*
X72780975Y-60969501D01*
X73013922Y-61405413D01*
X73013922Y-61415000D01*
X72812360Y-61415000D01*
G37*
G36*
X73790248Y-61272911D02*
G01*
X73790248Y-61415000D01*
X73116687Y-61415000D01*
X73116687Y-61293428D01*
X73439759Y-60943794D01*
X73519687Y-60843899D01*
X73545808Y-60801710D01*
X73561697Y-60766901D01*
X73571298Y-60732464D01*
X73574337Y-60700833D01*
X73570040Y-60656898D01*
X73557912Y-60620478D01*
X73537733Y-60589610D01*
X73510467Y-60566744D01*
X73476904Y-60552623D01*
X73434325Y-60547571D01*
X73387204Y-60553592D01*
X73349267Y-60570652D01*
X73318542Y-60597846D01*
X73295961Y-60634277D01*
X73282592Y-60676868D01*
X73277887Y-60727212D01*
X73096842Y-60727212D01*
X73101499Y-60669311D01*
X73115173Y-60615761D01*
X73137814Y-60565706D01*
X73168907Y-60520467D01*
X73207816Y-60481620D01*
X73255356Y-60448714D01*
X73308007Y-60424852D01*
X73368085Y-60410006D01*
X73437072Y-60404811D01*
X73504761Y-60408939D01*
X73562046Y-60420529D01*
X73610546Y-60438700D01*
X73654811Y-60464909D01*
X73690460Y-60496828D01*
X73718501Y-60534809D01*
X73738549Y-60577707D01*
X73751017Y-60626766D01*
X73755382Y-60683248D01*
X73751468Y-60730637D01*
X73739628Y-60777648D01*
X73721012Y-60823423D01*
X73695603Y-60869666D01*
X73665157Y-60914674D01*
X73628315Y-60961685D01*
X73541547Y-61056756D01*
X73347557Y-61272911D01*
X73790248Y-61272911D01*
G37*
G36*
X64320177Y-61088691D02*
G01*
X64507999Y-61088691D01*
X64498257Y-61153595D01*
X64479750Y-61211985D01*
X64452678Y-61264851D01*
X64416916Y-61311952D01*
X64372822Y-61351887D01*
X64319444Y-61385080D01*
X64260983Y-61408555D01*
X64192624Y-61423413D01*
X64112509Y-61428677D01*
X64050809Y-61424816D01*
X63994948Y-61413636D01*
X63944104Y-61395521D01*
X63896548Y-61370120D01*
X63854124Y-61338536D01*
X63816365Y-61300450D01*
X63784370Y-61257197D01*
X63757353Y-61207745D01*
X63735398Y-61151339D01*
X63720212Y-61092572D01*
X63710728Y-61027518D01*
X63707432Y-60955396D01*
X63707432Y-60879497D01*
X63710800Y-60807404D01*
X63720504Y-60742224D01*
X63736070Y-60683187D01*
X63758487Y-60626570D01*
X63785951Y-60577020D01*
X63818380Y-60533771D01*
X63856602Y-60495633D01*
X63899496Y-60463922D01*
X63947523Y-60438333D01*
X63998820Y-60419995D01*
X64054914Y-60408703D01*
X64116600Y-60404811D01*
X64196642Y-60410250D01*
X64264510Y-60425572D01*
X64322192Y-60449752D01*
X64374522Y-60483794D01*
X64417722Y-60524684D01*
X64452678Y-60572911D01*
X64479168Y-60626636D01*
X64497940Y-60686224D01*
X64508732Y-60752613D01*
X64320848Y-60752613D01*
X64310928Y-60692326D01*
X64293859Y-60645268D01*
X64267013Y-60606406D01*
X64229624Y-60578162D01*
X64182757Y-60561426D01*
X64116600Y-60555081D01*
X64064265Y-60560430D01*
X64020613Y-60575598D01*
X63983030Y-60600936D01*
X63951919Y-60636842D01*
X63928652Y-60681003D01*
X63910948Y-60738142D01*
X63900959Y-60801155D01*
X63897331Y-60878093D01*
X63897331Y-60955396D01*
X63900573Y-61029310D01*
X63909604Y-61091561D01*
X63925891Y-61148605D01*
X63947889Y-61193532D01*
X63977829Y-61230559D01*
X64014812Y-61257219D01*
X64058492Y-61273334D01*
X64112509Y-61279078D01*
X64177669Y-61273132D01*
X64224861Y-61257341D01*
X64263187Y-61230404D01*
X64291112Y-61193410D01*
X64309318Y-61147943D01*
X64320177Y-61088691D01*
G37*
G36*
X65093877Y-60418489D02*
G01*
X65093877Y-61415000D01*
X64912893Y-61415000D01*
X64912893Y-60629392D01*
X64673108Y-60708588D01*
X64673108Y-60562531D01*
X65073422Y-60418489D01*
X65093877Y-60418489D01*
G37*
G36*
X73820177Y-75588691D02*
G01*
X74007999Y-75588691D01*
X73998257Y-75653595D01*
X73979750Y-75711985D01*
X73952678Y-75764851D01*
X73916916Y-75811952D01*
X73872822Y-75851887D01*
X73819444Y-75885080D01*
X73760983Y-75908555D01*
X73692624Y-75923413D01*
X73612509Y-75928677D01*
X73550809Y-75924816D01*
X73494948Y-75913636D01*
X73444104Y-75895521D01*
X73396548Y-75870120D01*
X73354124Y-75838536D01*
X73316365Y-75800450D01*
X73284370Y-75757197D01*
X73257353Y-75707745D01*
X73235398Y-75651339D01*
X73220212Y-75592572D01*
X73210728Y-75527518D01*
X73207432Y-75455396D01*
X73207432Y-75379497D01*
X73210800Y-75307404D01*
X73220504Y-75242224D01*
X73236070Y-75183187D01*
X73258487Y-75126570D01*
X73285951Y-75077020D01*
X73318380Y-75033771D01*
X73356602Y-74995633D01*
X73399496Y-74963922D01*
X73447523Y-74938333D01*
X73498820Y-74919995D01*
X73554914Y-74908703D01*
X73616600Y-74904811D01*
X73696642Y-74910250D01*
X73764510Y-74925572D01*
X73822192Y-74949752D01*
X73874522Y-74983794D01*
X73917722Y-75024684D01*
X73952678Y-75072911D01*
X73979168Y-75126636D01*
X73997940Y-75186224D01*
X74008732Y-75252613D01*
X73820848Y-75252613D01*
X73810928Y-75192326D01*
X73793859Y-75145268D01*
X73767013Y-75106406D01*
X73729624Y-75078162D01*
X73682757Y-75061426D01*
X73616600Y-75055081D01*
X73564265Y-75060430D01*
X73520613Y-75075598D01*
X73483030Y-75100936D01*
X73451919Y-75136842D01*
X73428652Y-75181003D01*
X73410948Y-75238142D01*
X73400959Y-75301155D01*
X73397331Y-75378093D01*
X73397331Y-75455396D01*
X73400573Y-75529310D01*
X73409604Y-75591561D01*
X73425891Y-75648605D01*
X73447889Y-75693532D01*
X73477829Y-75730559D01*
X73514812Y-75757219D01*
X73558492Y-75773334D01*
X73612509Y-75779078D01*
X73677669Y-75773132D01*
X73724861Y-75757341D01*
X73763187Y-75730404D01*
X73791112Y-75693410D01*
X73809318Y-75647943D01*
X73820177Y-75588691D01*
G37*
G36*
X74802949Y-75772911D02*
G01*
X74802949Y-75915000D01*
X74129388Y-75915000D01*
X74129388Y-75793428D01*
X74452460Y-75443794D01*
X74532389Y-75343899D01*
X74558509Y-75301710D01*
X74574399Y-75266901D01*
X74583999Y-75232464D01*
X74587038Y-75200833D01*
X74582742Y-75156898D01*
X74570613Y-75120478D01*
X74550434Y-75089610D01*
X74523169Y-75066744D01*
X74489605Y-75052623D01*
X74447026Y-75047571D01*
X74399906Y-75053592D01*
X74361968Y-75070652D01*
X74331243Y-75097846D01*
X74308662Y-75134277D01*
X74295293Y-75176868D01*
X74290588Y-75227212D01*
X74109543Y-75227212D01*
X74114200Y-75169311D01*
X74127875Y-75115761D01*
X74150515Y-75065706D01*
X74181609Y-75020467D01*
X74220518Y-74981620D01*
X74268057Y-74948714D01*
X74320708Y-74924852D01*
X74380786Y-74910006D01*
X74449774Y-74904811D01*
X74517462Y-74908939D01*
X74574748Y-74920529D01*
X74623247Y-74938700D01*
X74667512Y-74964909D01*
X74703161Y-74996828D01*
X74731202Y-75034809D01*
X74751251Y-75077707D01*
X74763718Y-75126766D01*
X74768083Y-75183248D01*
X74764169Y-75230637D01*
X74752329Y-75277648D01*
X74733713Y-75323423D01*
X74708305Y-75369666D01*
X74677858Y-75414674D01*
X74641016Y-75461685D01*
X74554248Y-75556756D01*
X74360259Y-75772911D01*
X74802949Y-75772911D01*
G37*
G36*
X66250846Y-60418489D02*
G01*
X66612203Y-60418489D01*
X66687262Y-60422648D01*
X66751640Y-60434376D01*
X66806865Y-60452805D01*
X66857786Y-60479885D01*
X66899067Y-60513609D01*
X66931917Y-60554288D01*
X66955600Y-60600945D01*
X66970411Y-60655485D01*
X66975637Y-60719640D01*
X66972373Y-60770719D01*
X66963082Y-60815210D01*
X66948281Y-60854096D01*
X66915400Y-60906432D01*
X66871467Y-60949473D01*
X66818423Y-60983321D01*
X66754963Y-61009801D01*
X66696223Y-61039842D01*
X66377242Y-61039842D01*
X66375837Y-60891587D01*
X66614279Y-60891587D01*
X66669179Y-60886035D01*
X66710572Y-60870949D01*
X66744326Y-60846172D01*
X66768274Y-60813857D01*
X66782734Y-60775409D01*
X66787753Y-60730570D01*
X66782741Y-60682627D01*
X66768641Y-60643497D01*
X66744763Y-60611082D01*
X66710572Y-60586711D01*
X66668481Y-60572141D01*
X66612203Y-60566744D01*
X66438730Y-60566744D01*
X66438730Y-61415000D01*
X66250846Y-61415000D01*
X66250846Y-60418489D01*
G37*
G36*
X66812360Y-61415000D02*
G01*
X66582161Y-60970172D01*
X66780975Y-60969501D01*
X67013922Y-61405413D01*
X67013922Y-61415000D01*
X66812360Y-61415000D01*
G37*
G36*
X67581176Y-60418489D02*
G01*
X67581176Y-61415000D01*
X67400192Y-61415000D01*
X67400192Y-60629392D01*
X67160406Y-60708588D01*
X67160406Y-60562531D01*
X67560720Y-60418489D01*
X67581176Y-60418489D01*
G37*
G36*
X60711305Y-62612688D02*
G01*
X60711305Y-61918489D01*
X60899189Y-61918489D01*
X60899189Y-62612505D01*
X60894086Y-62677468D01*
X60879530Y-62733647D01*
X60856141Y-62782559D01*
X60823894Y-62826164D01*
X60784960Y-62862138D01*
X60738661Y-62891064D01*
X60687824Y-62911674D01*
X60632117Y-62924320D01*
X60570621Y-62928677D01*
X60507040Y-62924840D01*
X60450432Y-62913822D01*
X60399835Y-62896132D01*
X60353496Y-62870372D01*
X60314944Y-62837320D01*
X60283331Y-62796420D01*
X60260794Y-62749850D01*
X60246453Y-62693690D01*
X60241321Y-62625816D01*
X60429877Y-62625816D01*
X60434592Y-62678952D01*
X60446974Y-62716552D01*
X60468000Y-62746343D01*
X60495822Y-62766011D01*
X60529444Y-62777128D01*
X60570621Y-62781093D01*
X60610301Y-62776088D01*
X60644016Y-62761615D01*
X60671969Y-62737940D01*
X60693537Y-62704462D01*
X60706561Y-62664214D01*
X60711305Y-62612688D01*
G37*
G36*
X61526466Y-61918489D02*
G01*
X61526466Y-62915000D01*
X61345482Y-62915000D01*
X61345482Y-62129392D01*
X61105696Y-62208588D01*
X61105696Y-62062531D01*
X61506011Y-61918489D01*
X61526466Y-61918489D01*
G37*
D14*
%TO.C,Q2*%
X70760000Y-65560000D02*
X69240000Y-65560000D01*
X70760000Y-65510000D02*
X70760000Y-65560000D01*
X70760000Y-63610000D02*
X70760000Y-64390000D01*
X70760000Y-62440000D02*
X70760000Y-62490000D01*
X69240000Y-65560000D02*
X69240000Y-64560000D01*
X69240000Y-63440000D02*
X69240000Y-62440000D01*
X69240000Y-62440000D02*
X70760000Y-62440000D01*
X71300000Y-64380000D02*
X71060000Y-64050000D01*
X71540000Y-64050000D01*
X71300000Y-64380000D01*
G36*
X71300000Y-64380000D02*
G01*
X71060000Y-64050000D01*
X71540000Y-64050000D01*
X71300000Y-64380000D01*
G37*
%TO.C,Q1*%
X70760000Y-60060000D02*
X69240000Y-60060000D01*
X70760000Y-60010000D02*
X70760000Y-60060000D01*
X70760000Y-58110000D02*
X70760000Y-58890000D01*
X70760000Y-56940000D02*
X70760000Y-56990000D01*
X69240000Y-60060000D02*
X69240000Y-59060000D01*
X69240000Y-57940000D02*
X69240000Y-56940000D01*
X69240000Y-56940000D02*
X70760000Y-56940000D01*
X71300000Y-58880000D02*
X71060000Y-58550000D01*
X71540000Y-58550000D01*
X71300000Y-58880000D01*
G36*
X71300000Y-58880000D02*
G01*
X71060000Y-58550000D01*
X71540000Y-58550000D01*
X71300000Y-58880000D01*
G37*
%TO.C,U1*%
D15*
X94104000Y-76300000D02*
G75*
G02*
X93600000Y-76300000I-252000J0D01*
G01*
X93600000Y-76300000D02*
G75*
G02*
X94104000Y-76300000I252000J0D01*
G01*
X95247000Y-77180000D02*
G75*
G02*
X94743000Y-77180000I-252000J0D01*
G01*
X94743000Y-77180000D02*
G75*
G02*
X95247000Y-77180000I252000J0D01*
G01*
D13*
X77155000Y-58371000D02*
G75*
G02*
X79060000Y-56466000I1905000J0D01*
G01*
X79060000Y-77421000D02*
G75*
G02*
X77155000Y-75516000I0J1905000D01*
G01*
X82041000Y-78931000D02*
G75*
G02*
X81541000Y-78431000I0J500000D01*
G01*
X90536272Y-78431272D02*
G75*
G02*
X90036272Y-78930999I-500018J291D01*
G01*
X93030000Y-56466000D02*
G75*
G02*
X94935000Y-58371000I-1J-1905001D01*
G01*
X94935000Y-75516000D02*
G75*
G02*
X93030000Y-77421000I-1905001J1D01*
G01*
X77155000Y-58371000D02*
X77155000Y-75516000D01*
X79060000Y-77421000D02*
X93030000Y-77421000D01*
D11*
X79060000Y-77421000D02*
X93030000Y-77421000D01*
D13*
X81541000Y-78431000D02*
X81541000Y-77421000D01*
X90036272Y-78931000D02*
X82041000Y-78931000D01*
X90540000Y-77421000D02*
X90536272Y-78431272D01*
X93030000Y-56466000D02*
X79060000Y-56466000D01*
X94935000Y-58371000D02*
X94935000Y-75516000D01*
D14*
%TO.C,R3*%
X67735000Y-64227064D02*
X67735000Y-63772936D01*
X66265000Y-64227064D02*
X66265000Y-63772936D01*
%TO.C,R4*%
X72265000Y-64227064D02*
X72265000Y-63772936D01*
X73735000Y-64227064D02*
X73735000Y-63772936D01*
%TO.C,R2*%
X72265000Y-58727064D02*
X72265000Y-58272936D01*
X73735000Y-58727064D02*
X73735000Y-58272936D01*
%TO.C,C1*%
X65235000Y-58238748D02*
X65235000Y-58761252D01*
X63765000Y-58238748D02*
X63765000Y-58761252D01*
%TO.C,C2*%
X73265000Y-73211252D02*
X73265000Y-72688748D01*
X74735000Y-73211252D02*
X74735000Y-72688748D01*
%TO.C,R1*%
X67735000Y-58272936D02*
X67735000Y-58727064D01*
X66265000Y-58272936D02*
X66265000Y-58727064D01*
%TD*%
%LPC*%
D16*
%TO.C,J2*%
X61000000Y-69000000D03*
D17*
X61000000Y-66500000D03*
%TD*%
D18*
%TO.C,Q2*%
X70937500Y-64950000D03*
X70937500Y-63050000D03*
X69062500Y-64000000D03*
%TD*%
%TO.C,Q1*%
X70937500Y-59450000D03*
X70937500Y-57550000D03*
X69062500Y-58500000D03*
%TD*%
D19*
%TO.C,U1*%
X77590000Y-74500000D03*
D20*
X78425000Y-74500000D03*
D19*
X77590000Y-71960000D03*
D20*
X78425000Y-71960000D03*
D19*
X77590000Y-69420000D03*
D20*
X78425000Y-69420000D03*
D19*
X77590000Y-66880000D03*
D20*
X78425000Y-66880000D03*
D19*
X77590000Y-64340000D03*
D20*
X78425000Y-64340000D03*
D19*
X77590000Y-61800000D03*
D20*
X78425000Y-61800000D03*
D19*
X77590000Y-59260000D03*
D20*
X78425000Y-59260000D03*
X93665000Y-59260000D03*
D21*
X94500000Y-59260000D03*
D20*
X93665000Y-61800000D03*
D21*
X94500000Y-61800000D03*
D20*
X93665000Y-64340000D03*
D21*
X94500000Y-64340000D03*
D20*
X93665000Y-66880000D03*
D21*
X94500000Y-66880000D03*
D20*
X93665000Y-69420000D03*
D21*
X94500000Y-69420000D03*
D20*
X93665000Y-71960000D03*
D21*
X94500000Y-71960000D03*
D20*
X93665000Y-74500000D03*
D21*
X94500000Y-74500000D03*
%TD*%
D22*
%TO.C,R3*%
X67000000Y-63087500D03*
X67000000Y-64912500D03*
%TD*%
D23*
%TO.C,REF\u002A\u002A*%
X67000000Y-73000000D03*
%TD*%
D22*
%TO.C,R4*%
X73000000Y-64912500D03*
X73000000Y-63087500D03*
%TD*%
%TO.C,R2*%
X73000000Y-59412500D03*
X73000000Y-57587500D03*
%TD*%
D24*
%TO.C,C1*%
X64500000Y-57550000D03*
X64500000Y-59450000D03*
%TD*%
D25*
%TO.C,C2*%
X74000000Y-73900000D03*
X74000000Y-72000000D03*
%TD*%
D26*
%TO.C,R1*%
X67000000Y-57587500D03*
X67000000Y-59412500D03*
%TD*%
D17*
%TO.C,J1*%
X61000000Y-58000000D03*
D16*
X61000000Y-60500000D03*
%TD*%
%LPD*%
M02*
