%TF.GenerationSoftware,KiCad,Pcbnew,9.0.7*%
%TF.CreationDate,2026-02-17T00:49:35+00:00*%
%TF.ProjectId,WeeKett comms board,5765654b-6574-4742-9063-6f6d6d732062,rev?*%
%TF.SameCoordinates,Original*%
%TF.FileFunction,Legend,Bot*%
%TF.FilePolarity,Positive*%
%FSLAX46Y46*%
G04 Gerber Fmt 4.6, Leading zero omitted, Abs format (unit mm)*
G04 Created by KiCad (PCBNEW 9.0.7) date 2026-02-17 00:49:35*
%MOMM*%
%LPD*%
G01*
G04 APERTURE LIST*
G04 Aperture macros list*
%AMRoundRect*
0 Rectangle with rounded corners*
0 $1 Rounding radius*
0 $2 $3 $4 $5 $6 $7 $8 $9 X,Y pos of 4 corners*
0 Add a 4 corners polygon primitive as box body*
4,1,4,$2,$3,$4,$5,$6,$7,$8,$9,$2,$3,0*
0 Add four circle primitives for the rounded corners*
1,1,$1+$1,$2,$3*
1,1,$1+$1,$4,$5*
1,1,$1+$1,$6,$7*
1,1,$1+$1,$8,$9*
0 Add four rect primitives between the rounded corners*
20,1,$1+$1,$2,$3,$4,$5,0*
20,1,$1+$1,$4,$5,$6,$7,0*
20,1,$1+$1,$6,$7,$8,$9,0*
20,1,$1+$1,$8,$9,$2,$3,0*%
G04 Aperture macros list end*
%ADD10C,0.120000*%
%ADD11O,2.000000X1.700000*%
%ADD12RoundRect,0.250000X0.750000X-0.600000X0.750000X0.600000X-0.750000X0.600000X-0.750000X-0.600000X0*%
%ADD13C,3.200000*%
%ADD14C,1.524000*%
G04 APERTURE END LIST*
%TO.C,J2*%
D10*
X58800000Y-69250000D02*
X53300000Y-69250000D01*
X53300000Y-68750000D01*
X58800000Y-68750000D01*
X58800000Y-69250000D01*
X58800000Y-66750000D02*
X53300000Y-66750000D01*
X53300000Y-66250000D01*
X58800000Y-66250000D01*
X58800000Y-66750000D01*
X64410000Y-71560000D02*
X64410000Y-70140000D01*
X64410000Y-70140000D02*
X59910000Y-70140000D01*
X64410000Y-65360000D02*
X59910000Y-65360000D01*
X64410000Y-63940000D02*
X64410000Y-65360000D01*
X64100000Y-69300000D02*
X64100000Y-68700000D01*
X64100000Y-68700000D02*
X63500000Y-69000000D01*
X63500000Y-69000000D02*
X64100000Y-69300000D01*
X59910000Y-70140000D02*
X59910000Y-67750000D01*
X59910000Y-65360000D02*
X59910000Y-67750000D01*
X52690000Y-71560000D02*
X64410000Y-71560000D01*
X52690000Y-67750000D02*
X52690000Y-71560000D01*
X52690000Y-67750000D02*
X52690000Y-63940000D01*
X52690000Y-63940000D02*
X64410000Y-63940000D01*
%TO.C,J1*%
X58800000Y-60750000D02*
X53300000Y-60750000D01*
X53300000Y-60250000D01*
X58800000Y-60250000D01*
X58800000Y-60750000D01*
X58800000Y-58250000D02*
X53300000Y-58250000D01*
X53300000Y-57750000D01*
X58800000Y-57750000D01*
X58800000Y-58250000D01*
X64410000Y-63060000D02*
X64410000Y-61640000D01*
X64410000Y-61640000D02*
X59910000Y-61640000D01*
X64410000Y-56860000D02*
X59910000Y-56860000D01*
X64410000Y-55440000D02*
X64410000Y-56860000D01*
X64100000Y-60800000D02*
X64100000Y-60200000D01*
X64100000Y-60200000D02*
X63500000Y-60500000D01*
X63500000Y-60500000D02*
X64100000Y-60800000D01*
X59910000Y-61640000D02*
X59910000Y-59250000D01*
X59910000Y-56860000D02*
X59910000Y-59250000D01*
X52690000Y-63060000D02*
X64410000Y-63060000D01*
X52690000Y-59250000D02*
X52690000Y-63060000D01*
X52690000Y-59250000D02*
X52690000Y-55440000D01*
X52690000Y-55440000D02*
X64410000Y-55440000D01*
%TD*%
%LPC*%
D11*
%TO.C,J2*%
X62000000Y-66500000D03*
D12*
X62000000Y-69000000D03*
%TD*%
D11*
%TO.C,J1*%
X62000000Y-58000000D03*
D12*
X62000000Y-60500000D03*
%TD*%
D13*
%TO.C,REF\u002A\u002A*%
X67000000Y-72500000D03*
%TD*%
D14*
%TO.C,U1*%
X93665000Y-74500000D03*
X93665000Y-71960000D03*
X93665000Y-69420000D03*
X93665000Y-66880000D03*
X93665000Y-64340000D03*
X93665000Y-61800000D03*
X93665000Y-59260000D03*
X78425000Y-59260000D03*
X78425000Y-61800000D03*
X78425000Y-64340000D03*
X78425000Y-66880000D03*
X78425000Y-69420000D03*
X78425000Y-71960000D03*
X78425000Y-74500000D03*
%TD*%
%LPD*%
M02*
