%TF.GenerationSoftware,KiCad,Pcbnew,9.0.7*%
%TF.CreationDate,2026-02-17T00:49:35+00:00*%
%TF.ProjectId,WeeKett comms board,5765654b-6574-4742-9063-6f6d6d732062,rev?*%
%TF.SameCoordinates,Original*%
%TF.FileFunction,Legend,Top*%
%TF.FilePolarity,Positive*%
%FSLAX46Y46*%
G04 Gerber Fmt 4.6, Leading zero omitted, Abs format (unit mm)*
G04 Created by KiCad (PCBNEW 9.0.7) date 2026-02-17 00:49:35*
%MOMM*%
%LPD*%
G01*
G04 APERTURE LIST*
G04 Aperture macros list*
%AMRoundRect*
0 Rectangle with rounded corners*
0 $1 Rounding radius*
0 $2 $3 $4 $5 $6 $7 $8 $9 X,Y pos of 4 corners*
0 Add a 4 corners polygon primitive as box body*
4,1,4,$2,$3,$4,$5,$6,$7,$8,$9,$2,$3,0*
0 Add four circle primitives for the rounded corners*
1,1,$1+$1,$2,$3*
1,1,$1+$1,$4,$5*
1,1,$1+$1,$6,$7*
1,1,$1+$1,$8,$9*
0 Add four rect primitives between the rounded corners*
20,1,$1+$1,$2,$3,$4,$5,0*
20,1,$1+$1,$4,$5,$6,$7,0*
20,1,$1+$1,$6,$7,$8,$9,0*
20,1,$1+$1,$8,$9,$2,$3,0*%
G04 Aperture macros list end*
%ADD10C,0.100000*%
%ADD11C,0.200000*%
%ADD12C,0.150000*%
%ADD13C,0.127000*%
%ADD14C,0.120000*%
%ADD15C,0.504000*%
%ADD16O,2.000000X1.700000*%
%ADD17RoundRect,0.250000X0.750000X-0.600000X0.750000X0.600000X-0.750000X0.600000X-0.750000X-0.600000X0*%
%ADD18RoundRect,0.250000X-0.450000X0.262500X-0.450000X-0.262500X0.450000X-0.262500X0.450000X0.262500X0*%
%ADD19RoundRect,0.250000X-0.475000X0.250000X-0.475000X-0.250000X0.475000X-0.250000X0.475000X0.250000X0*%
%ADD20RoundRect,0.250000X0.450000X-0.262500X0.450000X0.262500X-0.450000X0.262500X-0.450000X-0.262500X0*%
%ADD21RoundRect,0.150000X0.587500X0.150000X-0.587500X0.150000X-0.587500X-0.150000X0.587500X-0.150000X0*%
%ADD22C,3.200000*%
%ADD23RoundRect,0.250000X0.475000X-0.250000X0.475000X0.250000X-0.475000X0.250000X-0.475000X-0.250000X0*%
%ADD24RoundRect,0.152400X-1.063600X-0.609600X1.063600X-0.609600X1.063600X0.609600X-1.063600X0.609600X0*%
%ADD25C,1.524000*%
%ADD26RoundRect,0.152400X1.063600X0.609600X-1.063600X0.609600X-1.063600X-0.609600X1.063600X-0.609600X0*%
G04 APERTURE END LIST*
D10*
G36*
X56609191Y-77158512D02*
G01*
X57024752Y-77158512D01*
X57111070Y-77163295D01*
X57185104Y-77176783D01*
X57248613Y-77197976D01*
X57307173Y-77229118D01*
X57354645Y-77267901D01*
X57392423Y-77314681D01*
X57419659Y-77368336D01*
X57436691Y-77431057D01*
X57442701Y-77504836D01*
X57438948Y-77563576D01*
X57428263Y-77614742D01*
X57411242Y-77659460D01*
X57373429Y-77719647D01*
X57322906Y-77769144D01*
X57261905Y-77808069D01*
X57188926Y-77838521D01*
X57121375Y-77873069D01*
X56754546Y-77873069D01*
X56752931Y-77702575D01*
X57027140Y-77702575D01*
X57090275Y-77696190D01*
X57137876Y-77678841D01*
X57176693Y-77650348D01*
X57204234Y-77613185D01*
X57220863Y-77568971D01*
X57226634Y-77517406D01*
X57220871Y-77462271D01*
X57204655Y-77417272D01*
X57177196Y-77379995D01*
X57137876Y-77351968D01*
X57089472Y-77335212D01*
X57024752Y-77329006D01*
X56825258Y-77329006D01*
X56825258Y-78304500D01*
X56609191Y-78304500D01*
X56609191Y-77158512D01*
G37*
G36*
X57254933Y-78304500D02*
G01*
X56990204Y-77792948D01*
X57218840Y-77792176D01*
X57486728Y-78293475D01*
X57486728Y-78304500D01*
X57254933Y-78304500D01*
G37*
G36*
X57997648Y-78320229D02*
G01*
X57904317Y-78312085D01*
X57824064Y-78288840D01*
X57752349Y-78250918D01*
X57693245Y-78201347D01*
X57645884Y-78140721D01*
X57610737Y-78070176D01*
X57589376Y-77993064D01*
X57582087Y-77908881D01*
X57582087Y-77877423D01*
X57589409Y-77782183D01*
X57610385Y-77698854D01*
X57645015Y-77623205D01*
X57690506Y-77560310D01*
X57747408Y-77508915D01*
X57814655Y-77470780D01*
X57889655Y-77447436D01*
X57974124Y-77439391D01*
X58060929Y-77447268D01*
X58133523Y-77469516D01*
X58197336Y-77506008D01*
X58249035Y-77554341D01*
X58289268Y-77613575D01*
X58318974Y-77685301D01*
X58336454Y-77763969D01*
X58342568Y-77853688D01*
X58342568Y-77940480D01*
X57676392Y-77940480D01*
X57676392Y-77797442D01*
X58138298Y-77797442D01*
X58138298Y-77781924D01*
X58132686Y-77734551D01*
X58119409Y-77692393D01*
X58097368Y-77655684D01*
X58065972Y-77627229D01*
X58026204Y-77609341D01*
X57972509Y-77602793D01*
X57928412Y-77607994D01*
X57891967Y-77622806D01*
X57861049Y-77646667D01*
X57835440Y-77679332D01*
X57816276Y-77718223D01*
X57802015Y-77766054D01*
X57793924Y-77817749D01*
X57791061Y-77877423D01*
X57791061Y-77908811D01*
X57794793Y-77960895D01*
X57805597Y-78007751D01*
X57823880Y-78050615D01*
X57848782Y-78086607D01*
X57880391Y-78116208D01*
X57917948Y-78138430D01*
X57960356Y-78152050D01*
X58010217Y-78156827D01*
X58073149Y-78150291D01*
X58128467Y-78131337D01*
X58177600Y-78099975D01*
X58220806Y-78055500D01*
X58325293Y-78163919D01*
X58294842Y-78201451D01*
X58253388Y-78239336D01*
X58204657Y-78271437D01*
X58144548Y-78297829D01*
X58077984Y-78314324D01*
X57997648Y-78320229D01*
G37*
G36*
X58752932Y-78147488D02*
G01*
X58950882Y-77455121D01*
X59167721Y-77455121D01*
X58876238Y-78304500D01*
X58744295Y-78304500D01*
X58752932Y-78147488D01*
G37*
G36*
X58608350Y-77455121D02*
G01*
X58808687Y-78149033D01*
X58815779Y-78304500D01*
X58682993Y-78304500D01*
X58390738Y-77455121D01*
X58608350Y-77455121D01*
G37*
G36*
X60199601Y-77158512D02*
G01*
X60199601Y-78304500D01*
X59991469Y-78304500D01*
X59991469Y-77401051D01*
X59715716Y-77492126D01*
X59715716Y-77324161D01*
X60176077Y-77158512D01*
X60199601Y-77158512D01*
G37*
G36*
X60604067Y-78210265D02*
G01*
X60612199Y-78166651D01*
X60636298Y-78130916D01*
X60659608Y-78113394D01*
X60688178Y-78102546D01*
X60723511Y-78098685D01*
X60758842Y-78102547D01*
X60787386Y-78113396D01*
X60810654Y-78130916D01*
X60834752Y-78166651D01*
X60842885Y-78210265D01*
X60834779Y-78253093D01*
X60810654Y-78288419D01*
X60787418Y-78305692D01*
X60758874Y-78316409D01*
X60723511Y-78320229D01*
X60688146Y-78316411D01*
X60659577Y-78305695D01*
X60636298Y-78288419D01*
X60612173Y-78253093D01*
X60604067Y-78210265D01*
G37*
G36*
X61575909Y-77158512D02*
G01*
X61575909Y-78304500D01*
X61367778Y-78304500D01*
X61367778Y-77401051D01*
X61092025Y-77492126D01*
X61092025Y-77324161D01*
X61552386Y-77158512D01*
X61575909Y-77158512D01*
G37*
G36*
X63135351Y-78141098D02*
G01*
X63135351Y-78304500D01*
X62360756Y-78304500D01*
X62360756Y-78164692D01*
X62732289Y-77762613D01*
X62824207Y-77647734D01*
X62854245Y-77599216D01*
X62872518Y-77559186D01*
X62883559Y-77519584D01*
X62887054Y-77483209D01*
X62882113Y-77432683D01*
X62868165Y-77390799D01*
X62844959Y-77355302D01*
X62813604Y-77329006D01*
X62775006Y-77312767D01*
X62726040Y-77306957D01*
X62671851Y-77313881D01*
X62628224Y-77333500D01*
X62592889Y-77364773D01*
X62566922Y-77406669D01*
X62551547Y-77455648D01*
X62546137Y-77513543D01*
X62337935Y-77513543D01*
X62343290Y-77446957D01*
X62359016Y-77385375D01*
X62385052Y-77327812D01*
X62420810Y-77275787D01*
X62465555Y-77231113D01*
X62520225Y-77193271D01*
X62580775Y-77165830D01*
X62649864Y-77148758D01*
X62729200Y-77142783D01*
X62807041Y-77147530D01*
X62872920Y-77160859D01*
X62928694Y-77181755D01*
X62979598Y-77211895D01*
X63020595Y-77248602D01*
X63052843Y-77292281D01*
X63075898Y-77341613D01*
X63090236Y-77398031D01*
X63095256Y-77462985D01*
X63090754Y-77517483D01*
X63077139Y-77571545D01*
X63055730Y-77624186D01*
X63026510Y-77677366D01*
X62991497Y-77729126D01*
X62949128Y-77783188D01*
X62849346Y-77892520D01*
X62626257Y-78141098D01*
X63135351Y-78141098D01*
G37*
G36*
X63723531Y-77147254D02*
G01*
X63783691Y-77160127D01*
X63839466Y-77182338D01*
X63888950Y-77214056D01*
X63931710Y-77255292D01*
X63968720Y-77308502D01*
X63997174Y-77370101D01*
X64019348Y-77446975D01*
X64032330Y-77530862D01*
X64037044Y-77633128D01*
X64037044Y-77825951D01*
X64029824Y-77953077D01*
X64010360Y-78051849D01*
X63989031Y-78112661D01*
X63963269Y-78163221D01*
X63933399Y-78204928D01*
X63897412Y-78241281D01*
X63857489Y-78270236D01*
X63813183Y-78292281D01*
X63740558Y-78313019D01*
X63657646Y-78320229D01*
X63590845Y-78315691D01*
X63530338Y-78302533D01*
X63474285Y-78279831D01*
X63424657Y-78247481D01*
X63381845Y-78205532D01*
X63344536Y-78151842D01*
X63315790Y-78089753D01*
X63293486Y-78012525D01*
X63280550Y-77928270D01*
X63275861Y-77825951D01*
X63275861Y-77633128D01*
X63277551Y-77603916D01*
X63483992Y-77603916D01*
X63483992Y-77854390D01*
X63485991Y-77918508D01*
X63491436Y-77970183D01*
X63501098Y-78017732D01*
X63513485Y-78055219D01*
X63530091Y-78088261D01*
X63548805Y-78113150D01*
X63571424Y-78132696D01*
X63597117Y-78146224D01*
X63625594Y-78154103D01*
X63657646Y-78156827D01*
X63697515Y-78152546D01*
X63731096Y-78140326D01*
X63759913Y-78119462D01*
X63784884Y-78087942D01*
X63803521Y-78048626D01*
X63818309Y-77994198D01*
X63826590Y-77933288D01*
X63829685Y-77854390D01*
X63829685Y-77603916D01*
X63827663Y-77539852D01*
X63822171Y-77488545D01*
X63812650Y-77441390D01*
X63800614Y-77404703D01*
X63784250Y-77372524D01*
X63765293Y-77348386D01*
X63742411Y-77329487D01*
X63716560Y-77316436D01*
X63688108Y-77308820D01*
X63656101Y-77306184D01*
X63616825Y-77310348D01*
X63583002Y-77322335D01*
X63553776Y-77342708D01*
X63528793Y-77373174D01*
X63510223Y-77411308D01*
X63495368Y-77464881D01*
X63487099Y-77525062D01*
X63483992Y-77603916D01*
X63277551Y-77603916D01*
X63283208Y-77506125D01*
X63302966Y-77408073D01*
X63324523Y-77347776D01*
X63350420Y-77297579D01*
X63380348Y-77256118D01*
X63416339Y-77220046D01*
X63456235Y-77191492D01*
X63500494Y-77169958D01*
X63573090Y-77149801D01*
X63656101Y-77142783D01*
X63723531Y-77147254D01*
G37*
G36*
X64973425Y-78141098D02*
G01*
X64973425Y-78304500D01*
X64198830Y-78304500D01*
X64198830Y-78164692D01*
X64570363Y-77762613D01*
X64662281Y-77647734D01*
X64692319Y-77599216D01*
X64710592Y-77559186D01*
X64721633Y-77519584D01*
X64725128Y-77483209D01*
X64720187Y-77432683D01*
X64706239Y-77390799D01*
X64683033Y-77355302D01*
X64651678Y-77329006D01*
X64613080Y-77312767D01*
X64564114Y-77306957D01*
X64509925Y-77313881D01*
X64466297Y-77333500D01*
X64430963Y-77364773D01*
X64404996Y-77406669D01*
X64389621Y-77455648D01*
X64384211Y-77513543D01*
X64176009Y-77513543D01*
X64181364Y-77446957D01*
X64197090Y-77385375D01*
X64223126Y-77327812D01*
X64258884Y-77275787D01*
X64303629Y-77231113D01*
X64358299Y-77193271D01*
X64418849Y-77165830D01*
X64487938Y-77148758D01*
X64567274Y-77142783D01*
X64645115Y-77147530D01*
X64710994Y-77160859D01*
X64766768Y-77181755D01*
X64817672Y-77211895D01*
X64858669Y-77248602D01*
X64890917Y-77292281D01*
X64913972Y-77341613D01*
X64928310Y-77398031D01*
X64933329Y-77462985D01*
X64928828Y-77517483D01*
X64915213Y-77571545D01*
X64893804Y-77624186D01*
X64864584Y-77677366D01*
X64829571Y-77729126D01*
X64787202Y-77783188D01*
X64687420Y-77892520D01*
X64464331Y-78141098D01*
X64973425Y-78141098D01*
G37*
G36*
X65695285Y-77158512D02*
G01*
X65723513Y-77158512D01*
X65723513Y-77325846D01*
X65710171Y-77325846D01*
X65618728Y-77333440D01*
X65543189Y-77354706D01*
X65476726Y-77389730D01*
X65423815Y-77435319D01*
X65382331Y-77491314D01*
X65351910Y-77557571D01*
X65333857Y-77630171D01*
X65327614Y-77711353D01*
X65327614Y-77895188D01*
X65331259Y-77957612D01*
X65341307Y-78008453D01*
X65358301Y-78054276D01*
X65379787Y-78090259D01*
X65407100Y-78119479D01*
X65437929Y-78139694D01*
X65472685Y-78151889D01*
X65511449Y-78156055D01*
X65549988Y-78151895D01*
X65583705Y-78139834D01*
X65613519Y-78120282D01*
X65639109Y-78093700D01*
X65659294Y-78061716D01*
X65674429Y-78023620D01*
X65683440Y-77982107D01*
X65686577Y-77935284D01*
X65683541Y-77889125D01*
X65674781Y-77847720D01*
X65660080Y-77809426D01*
X65640232Y-77776798D01*
X65614740Y-77749614D01*
X65584057Y-77729540D01*
X65549043Y-77717192D01*
X65508289Y-77712898D01*
X65455690Y-77719431D01*
X65410052Y-77738458D01*
X65371193Y-77767972D01*
X65341728Y-77804815D01*
X65322210Y-77847126D01*
X65314272Y-77891256D01*
X65244333Y-77856708D01*
X65253624Y-77791992D01*
X65272983Y-77734174D01*
X65302202Y-77681705D01*
X65339762Y-77636709D01*
X65385452Y-77599976D01*
X65439544Y-77572317D01*
X65499478Y-77555387D01*
X65567976Y-77549496D01*
X65646159Y-77557546D01*
X65710944Y-77580323D01*
X65767206Y-77616788D01*
X65812692Y-77664095D01*
X65847852Y-77720476D01*
X65873573Y-77785996D01*
X65888823Y-77856282D01*
X65894007Y-77931351D01*
X65887298Y-78011164D01*
X65867674Y-78084079D01*
X65835355Y-78150841D01*
X65791837Y-78208017D01*
X65737616Y-78254952D01*
X65672463Y-78290666D01*
X65599563Y-78312584D01*
X65515382Y-78320229D01*
X65454877Y-78316229D01*
X65400304Y-78304656D01*
X65350786Y-78285891D01*
X65283269Y-78244890D01*
X65226216Y-78190673D01*
X65180802Y-78125263D01*
X65146868Y-78048548D01*
X65126442Y-77965093D01*
X65119412Y-77872858D01*
X65119412Y-77790139D01*
X65123662Y-77701693D01*
X65136090Y-77619145D01*
X65156348Y-77541842D01*
X65185334Y-77467659D01*
X65221835Y-77400921D01*
X65265891Y-77340873D01*
X65317930Y-77287851D01*
X65377763Y-77243178D01*
X65446215Y-77206542D01*
X65519455Y-77180477D01*
X65601973Y-77164197D01*
X65695285Y-77158512D01*
G37*
G36*
X66461102Y-77731295D02*
G01*
X66461102Y-77895539D01*
X66031357Y-77895539D01*
X66031357Y-77731295D01*
X66461102Y-77731295D01*
G37*
G36*
X67070488Y-77147254D02*
G01*
X67130648Y-77160127D01*
X67186424Y-77182338D01*
X67235908Y-77214056D01*
X67278668Y-77255292D01*
X67315677Y-77308502D01*
X67344131Y-77370101D01*
X67366306Y-77446975D01*
X67379288Y-77530862D01*
X67384001Y-77633128D01*
X67384001Y-77825951D01*
X67376781Y-77953077D01*
X67357318Y-78051849D01*
X67335989Y-78112661D01*
X67310226Y-78163221D01*
X67280357Y-78204928D01*
X67244370Y-78241281D01*
X67204446Y-78270236D01*
X67160140Y-78292281D01*
X67087515Y-78313019D01*
X67004603Y-78320229D01*
X66937802Y-78315691D01*
X66877295Y-78302533D01*
X66821243Y-78279831D01*
X66771614Y-78247481D01*
X66728803Y-78205532D01*
X66691493Y-78151842D01*
X66662748Y-78089753D01*
X66640443Y-78012525D01*
X66627507Y-77928270D01*
X66622818Y-77825951D01*
X66622818Y-77633128D01*
X66624508Y-77603916D01*
X66830950Y-77603916D01*
X66830950Y-77854390D01*
X66832948Y-77918508D01*
X66838393Y-77970183D01*
X66848055Y-78017732D01*
X66860442Y-78055219D01*
X66877048Y-78088261D01*
X66895763Y-78113150D01*
X66918381Y-78132696D01*
X66944074Y-78146224D01*
X66972552Y-78154103D01*
X67004603Y-78156827D01*
X67044472Y-78152546D01*
X67078053Y-78140326D01*
X67106871Y-78119462D01*
X67131842Y-78087942D01*
X67150478Y-78048626D01*
X67165266Y-77994198D01*
X67173547Y-77933288D01*
X67176642Y-77854390D01*
X67176642Y-77603916D01*
X67174621Y-77539852D01*
X67169129Y-77488545D01*
X67159607Y-77441390D01*
X67147571Y-77404703D01*
X67131207Y-77372524D01*
X67112250Y-77348386D01*
X67089368Y-77329487D01*
X67063518Y-77316436D01*
X67035065Y-77308820D01*
X67003059Y-77306184D01*
X66963783Y-77310348D01*
X66929960Y-77322335D01*
X66900733Y-77342708D01*
X66875750Y-77373174D01*
X66857181Y-77411308D01*
X66842325Y-77464881D01*
X66834056Y-77525062D01*
X66830950Y-77603916D01*
X66624508Y-77603916D01*
X66630165Y-77506125D01*
X66649923Y-77408073D01*
X66671480Y-77347776D01*
X66697378Y-77297579D01*
X66727305Y-77256118D01*
X66763297Y-77220046D01*
X66803193Y-77191492D01*
X66847452Y-77169958D01*
X66920048Y-77149801D01*
X67003059Y-77142783D01*
X67070488Y-77147254D01*
G37*
G36*
X68320382Y-78141098D02*
G01*
X68320382Y-78304500D01*
X67545788Y-78304500D01*
X67545788Y-78164692D01*
X67917321Y-77762613D01*
X68009238Y-77647734D01*
X68039277Y-77599216D01*
X68057550Y-77559186D01*
X68068591Y-77519584D01*
X68072085Y-77483209D01*
X68067144Y-77432683D01*
X68053196Y-77390799D01*
X68029990Y-77355302D01*
X67998635Y-77329006D01*
X67960037Y-77312767D01*
X67911071Y-77306957D01*
X67856883Y-77313881D01*
X67813255Y-77333500D01*
X67777921Y-77364773D01*
X67751953Y-77406669D01*
X67736578Y-77455648D01*
X67731168Y-77513543D01*
X67522966Y-77513543D01*
X67528321Y-77446957D01*
X67544047Y-77385375D01*
X67570084Y-77327812D01*
X67605841Y-77275787D01*
X67650587Y-77231113D01*
X67705257Y-77193271D01*
X67765806Y-77165830D01*
X67834895Y-77148758D01*
X67914231Y-77142783D01*
X67992073Y-77147530D01*
X68057951Y-77160859D01*
X68113726Y-77181755D01*
X68164630Y-77211895D01*
X68205627Y-77248602D01*
X68237874Y-77292281D01*
X68260930Y-77341613D01*
X68275267Y-77398031D01*
X68280287Y-77462985D01*
X68275786Y-77517483D01*
X68262170Y-77571545D01*
X68240761Y-77624186D01*
X68211542Y-77677366D01*
X68176528Y-77729126D01*
X68134159Y-77783188D01*
X68034377Y-77892520D01*
X67811289Y-78141098D01*
X68320382Y-78141098D01*
G37*
G36*
X68889023Y-77731295D02*
G01*
X68889023Y-77895539D01*
X68459277Y-77895539D01*
X68459277Y-77731295D01*
X68889023Y-77731295D01*
G37*
G36*
X69588833Y-77158512D02*
G01*
X69588833Y-78304500D01*
X69380702Y-78304500D01*
X69380702Y-77401051D01*
X69104948Y-77492126D01*
X69104948Y-77324161D01*
X69565310Y-77158512D01*
X69588833Y-77158512D01*
G37*
G36*
X70741983Y-77158512D02*
G01*
X70741983Y-77271636D01*
X70292646Y-78304500D01*
X70073490Y-78304500D01*
X70522827Y-77321914D01*
X69941477Y-77321914D01*
X69941477Y-77158512D01*
X70741983Y-77158512D01*
G37*
G36*
X71905356Y-77387553D02*
G01*
X71968144Y-77408386D01*
X72018579Y-77441357D01*
X72048371Y-77474220D01*
X72070287Y-77514747D01*
X72084262Y-77564583D01*
X72089291Y-77625965D01*
X71970689Y-77625965D01*
X71965903Y-77576465D01*
X71953248Y-77541313D01*
X71934105Y-77516774D01*
X71907811Y-77499306D01*
X71872923Y-77487959D01*
X71826879Y-77483770D01*
X71779037Y-77490493D01*
X71741281Y-77509541D01*
X71711332Y-77539636D01*
X71689038Y-77580463D01*
X71675998Y-77627845D01*
X71671342Y-77685090D01*
X71671342Y-77778623D01*
X71675987Y-77835861D01*
X71689038Y-77883602D01*
X71711359Y-77924784D01*
X71741281Y-77954945D01*
X71779037Y-77973993D01*
X71826879Y-77980716D01*
X71872919Y-77976517D01*
X71907647Y-77965164D01*
X71933684Y-77947713D01*
X71952561Y-77923155D01*
X71965093Y-77887778D01*
X71969847Y-77837748D01*
X72088518Y-77837748D01*
X72083519Y-77899108D01*
X72069616Y-77949026D01*
X72047805Y-77989708D01*
X72018158Y-78022778D01*
X71967956Y-78055934D01*
X71905324Y-78076886D01*
X71826879Y-78084431D01*
X71771964Y-78079891D01*
X71723921Y-78066858D01*
X71681524Y-78045739D01*
X71644001Y-78016762D01*
X71612571Y-77981185D01*
X71586868Y-77938233D01*
X71568740Y-77891266D01*
X71557451Y-77838361D01*
X71553514Y-77778483D01*
X71553514Y-77686003D01*
X71557452Y-77626125D01*
X71568742Y-77573245D01*
X71586868Y-77526323D01*
X71612578Y-77483331D01*
X71644009Y-77447756D01*
X71681524Y-77418817D01*
X71723926Y-77397658D01*
X71771968Y-77384603D01*
X71826879Y-77380056D01*
X71905356Y-77387553D01*
G37*
G36*
X71913907Y-77147825D02*
G01*
X71985800Y-77162714D01*
X72054321Y-77187372D01*
X72118972Y-77221030D01*
X72177985Y-77262434D01*
X72231837Y-77311942D01*
X72278954Y-77367999D01*
X72318833Y-77430222D01*
X72351632Y-77499219D01*
X72375434Y-77571825D01*
X72389940Y-77649111D01*
X72394887Y-77731857D01*
X72389942Y-77814556D01*
X72375437Y-77891843D01*
X72351632Y-77964495D01*
X72318850Y-78033509D01*
X72278973Y-78095877D01*
X72231837Y-78152193D01*
X72177979Y-78201948D01*
X72118964Y-78243610D01*
X72054321Y-78277535D01*
X71985783Y-78302392D01*
X71913894Y-78317396D01*
X71837904Y-78322476D01*
X71761867Y-78317395D01*
X71689955Y-78302390D01*
X71621416Y-78277535D01*
X71556795Y-78243633D01*
X71497635Y-78201974D01*
X71443479Y-78152193D01*
X71396133Y-78095855D01*
X71356142Y-78033487D01*
X71323333Y-77964495D01*
X71299567Y-77891847D01*
X71285085Y-77814559D01*
X71280148Y-77731857D01*
X71373610Y-77731857D01*
X71377681Y-77800580D01*
X71389654Y-77865216D01*
X71409352Y-77926366D01*
X71436577Y-77984532D01*
X71469795Y-78036977D01*
X71509135Y-78084220D01*
X71578270Y-78144217D01*
X71657228Y-78189128D01*
X71714289Y-78209855D01*
X71774302Y-78222380D01*
X71837904Y-78226626D01*
X71900993Y-78222391D01*
X71960754Y-78209877D01*
X72017807Y-78189128D01*
X72071585Y-78160799D01*
X72120677Y-78125934D01*
X72165479Y-78084220D01*
X72221926Y-78011476D01*
X72265191Y-77926366D01*
X72285127Y-77865198D01*
X72297237Y-77800565D01*
X72301355Y-77731857D01*
X72297215Y-77662593D01*
X72285084Y-77597977D01*
X72265191Y-77537348D01*
X72221951Y-77452965D01*
X72165479Y-77380688D01*
X72096713Y-77320991D01*
X72017807Y-77276130D01*
X71960754Y-77255382D01*
X71900993Y-77242868D01*
X71837904Y-77238633D01*
X71774302Y-77242879D01*
X71714289Y-77255404D01*
X71657228Y-77276130D01*
X71578245Y-77320971D01*
X71509135Y-77380688D01*
X71452408Y-77453007D01*
X71409352Y-77537348D01*
X71389696Y-77597958D01*
X71377703Y-77662577D01*
X71373610Y-77731857D01*
X71280148Y-77731857D01*
X71285087Y-77649109D01*
X71299571Y-77571822D01*
X71323333Y-77499219D01*
X71356159Y-77430244D01*
X71396152Y-77368021D01*
X71443479Y-77311942D01*
X71497629Y-77262409D01*
X71556787Y-77221007D01*
X71621416Y-77187372D01*
X71689939Y-77162716D01*
X71761854Y-77147826D01*
X71837904Y-77142783D01*
X71913907Y-77147825D01*
G37*
G36*
X73686441Y-78304500D02*
G01*
X73497900Y-78304500D01*
X73487403Y-78211512D01*
X73450115Y-78252952D01*
X73397346Y-78289613D01*
X73336493Y-78312248D01*
X73263015Y-78320229D01*
X73188281Y-78311964D01*
X73123558Y-78288068D01*
X73066844Y-78249578D01*
X73019071Y-78197765D01*
X72981844Y-78135624D01*
X72953837Y-78061188D01*
X72937268Y-77980489D01*
X72931507Y-77889992D01*
X72931507Y-77873560D01*
X73139639Y-77873560D01*
X73139639Y-77889992D01*
X73142062Y-77943974D01*
X73149048Y-77992864D01*
X73161735Y-78038610D01*
X73179734Y-78077198D01*
X73204230Y-78109902D01*
X73234295Y-78134076D01*
X73270301Y-78149086D01*
X73315610Y-78154440D01*
X73373078Y-78147252D01*
X73416586Y-78127405D01*
X73451511Y-78095602D01*
X73477466Y-78054068D01*
X73477466Y-77704452D01*
X73474624Y-77697637D01*
X73454294Y-77666412D01*
X73428506Y-77640529D01*
X73397346Y-77620910D01*
X73361485Y-77608754D01*
X73317225Y-77604408D01*
X73271832Y-77609857D01*
X73235489Y-77625193D01*
X73205097Y-77649762D01*
X73180507Y-77682914D01*
X73162446Y-77721902D01*
X73149470Y-77768441D01*
X73142179Y-77818142D01*
X73139639Y-77873560D01*
X72931507Y-77873560D01*
X72937323Y-77778777D01*
X72953837Y-77696536D01*
X72982018Y-77621222D01*
X73019422Y-77559537D01*
X73067520Y-77508458D01*
X73124331Y-77470780D01*
X73189109Y-77447488D01*
X73264560Y-77439391D01*
X73337303Y-77447363D01*
X73397697Y-77470007D01*
X73450145Y-77506720D01*
X73477466Y-77537326D01*
X73477466Y-77095595D01*
X73686441Y-77095595D01*
X73686441Y-78304500D01*
G37*
G36*
X74341381Y-78123964D02*
G01*
X74341381Y-77732348D01*
X74337434Y-77691091D01*
X74326424Y-77657775D01*
X74307626Y-77629956D01*
X74280851Y-77609113D01*
X74247571Y-77596489D01*
X74203118Y-77591839D01*
X74163218Y-77595565D01*
X74130440Y-77606023D01*
X74102700Y-77623282D01*
X74082902Y-77645697D01*
X74070611Y-77672762D01*
X74066400Y-77704190D01*
X73858268Y-77704190D01*
X73864521Y-77652935D01*
X73883407Y-77603987D01*
X73913471Y-77559561D01*
X73955242Y-77519161D01*
X74005730Y-77486356D01*
X74067594Y-77460598D01*
X74135636Y-77444923D01*
X74214915Y-77439391D01*
X74278675Y-77443216D01*
X74335839Y-77454233D01*
X74387305Y-77471973D01*
X74434780Y-77497648D01*
X74474295Y-77530096D01*
X74506748Y-77569719D01*
X74530269Y-77615075D01*
X74545087Y-77669098D01*
X74550355Y-77733753D01*
X74550355Y-78104303D01*
X74552589Y-78165635D01*
X74558571Y-78213073D01*
X74569259Y-78256225D01*
X74583358Y-78291158D01*
X74583358Y-78304500D01*
X74371997Y-78304500D01*
X74359402Y-78269826D01*
X74349245Y-78222483D01*
X74341381Y-78123964D01*
G37*
G36*
X74370452Y-77787682D02*
G01*
X74371997Y-77911058D01*
X74240826Y-77911058D01*
X74193686Y-77913674D01*
X74155158Y-77920889D01*
X74120676Y-77933247D01*
X74094699Y-77949047D01*
X74073969Y-77969371D01*
X74059378Y-77992864D01*
X74050630Y-78019469D01*
X74047581Y-78050374D01*
X74051285Y-78080400D01*
X74062117Y-78106760D01*
X74079776Y-78128980D01*
X74104529Y-78146294D01*
X74134113Y-78156975D01*
X74170115Y-78160760D01*
X74222567Y-78154960D01*
X74265965Y-78138500D01*
X74302973Y-78113154D01*
X74329584Y-78084079D01*
X74347563Y-78051510D01*
X74353950Y-78022988D01*
X74413637Y-78112238D01*
X74400384Y-78144413D01*
X74380634Y-78180562D01*
X74355857Y-78215066D01*
X74324107Y-78248043D01*
X74286650Y-78276295D01*
X74240826Y-78299865D01*
X74189591Y-78314880D01*
X74127702Y-78320229D01*
X74073490Y-78316407D01*
X74024517Y-78305327D01*
X73979959Y-78287296D01*
X73939088Y-78262289D01*
X73905029Y-78232326D01*
X73877087Y-78197133D01*
X73856258Y-78157491D01*
X73843681Y-78114375D01*
X73839379Y-78066876D01*
X73845915Y-78002204D01*
X73864518Y-77947713D01*
X73895484Y-77900238D01*
X73939162Y-77860219D01*
X73992971Y-77829610D01*
X74062117Y-77806149D01*
X74138477Y-77792577D01*
X74230644Y-77787682D01*
X74370452Y-77787682D01*
G37*
G36*
X75007978Y-78147488D02*
G01*
X75205927Y-77455121D01*
X75422766Y-77455121D01*
X75131284Y-78304500D01*
X74999340Y-78304500D01*
X75007978Y-78147488D01*
G37*
G36*
X74863395Y-77455121D02*
G01*
X75063732Y-78149033D01*
X75070824Y-78304500D01*
X74938039Y-78304500D01*
X74645784Y-77455121D01*
X74863395Y-77455121D01*
G37*
G36*
X75751465Y-77455121D02*
G01*
X75751465Y-78304500D01*
X75543263Y-78304500D01*
X75543263Y-77455121D01*
X75751465Y-77455121D01*
G37*
G36*
X75529149Y-77231400D02*
G01*
X75537202Y-77188746D01*
X75560959Y-77154439D01*
X75583878Y-77137800D01*
X75612058Y-77127447D01*
X75646978Y-77123753D01*
X75681898Y-77127447D01*
X75710077Y-77137800D01*
X75732997Y-77154439D01*
X75756754Y-77188746D01*
X75764807Y-77231400D01*
X75756791Y-77273402D01*
X75732997Y-77307659D01*
X75710083Y-77324258D01*
X75681903Y-77334588D01*
X75646978Y-77338275D01*
X75612053Y-77334588D01*
X75583873Y-77324258D01*
X75560959Y-77307659D01*
X75537165Y-77273402D01*
X75529149Y-77231400D01*
G37*
G36*
X76668255Y-78304500D02*
G01*
X76479715Y-78304500D01*
X76469218Y-78211511D01*
X76431929Y-78252952D01*
X76379160Y-78289613D01*
X76318307Y-78312248D01*
X76244829Y-78320229D01*
X76170095Y-78311964D01*
X76105373Y-78288068D01*
X76048658Y-78249578D01*
X76000886Y-78197765D01*
X75963658Y-78135624D01*
X75935652Y-78061188D01*
X75919082Y-77980489D01*
X75913322Y-77889992D01*
X75913322Y-77873560D01*
X76121453Y-77873560D01*
X76121453Y-77889992D01*
X76123877Y-77943974D01*
X76130863Y-77992864D01*
X76143549Y-78038610D01*
X76161549Y-78077198D01*
X76186045Y-78109902D01*
X76216109Y-78134076D01*
X76252115Y-78149086D01*
X76297424Y-78154440D01*
X76354893Y-78147252D01*
X76398400Y-78127405D01*
X76433325Y-78095602D01*
X76459281Y-78054067D01*
X76459281Y-77704452D01*
X76456439Y-77697637D01*
X76436108Y-77666412D01*
X76410320Y-77640529D01*
X76379160Y-77620910D01*
X76343299Y-77608754D01*
X76299039Y-77604408D01*
X76253647Y-77609857D01*
X76217303Y-77625193D01*
X76186912Y-77649762D01*
X76162321Y-77682914D01*
X76144260Y-77721902D01*
X76131284Y-77768441D01*
X76123993Y-77818142D01*
X76121453Y-77873560D01*
X75913322Y-77873560D01*
X75919138Y-77778777D01*
X75935652Y-77696536D01*
X75963832Y-77621222D01*
X76001237Y-77559537D01*
X76049334Y-77508458D01*
X76106145Y-77470780D01*
X76170924Y-77447488D01*
X76246374Y-77439391D01*
X76319117Y-77447363D01*
X76379511Y-77470007D01*
X76431960Y-77506720D01*
X76459281Y-77537326D01*
X76459281Y-77095595D01*
X76668255Y-77095595D01*
X76668255Y-78304500D01*
G37*
G36*
X77203821Y-78156827D02*
G01*
X77246051Y-78152352D01*
X77282327Y-78139483D01*
X77313570Y-78118449D01*
X77337731Y-78090469D01*
X77353617Y-78056699D01*
X77360131Y-78016879D01*
X77555763Y-78016879D01*
X77549521Y-78073168D01*
X77533309Y-78124573D01*
X77507031Y-78172135D01*
X77472415Y-78214375D01*
X77430882Y-78250386D01*
X77381688Y-78280484D01*
X77328316Y-78302318D01*
X77270357Y-78315653D01*
X77206911Y-78320229D01*
X77142114Y-78316303D01*
X77085411Y-78305115D01*
X77035645Y-78287296D01*
X76968415Y-78247544D01*
X76914305Y-78195448D01*
X76872373Y-78132373D01*
X76842049Y-78058800D01*
X76824217Y-77979207D01*
X76818104Y-77892379D01*
X76818104Y-77867241D01*
X76824217Y-77780413D01*
X76842049Y-77700820D01*
X76872377Y-77627259D01*
X76914305Y-77564242D01*
X76968423Y-77512105D01*
X77035645Y-77472395D01*
X77085410Y-77454516D01*
X77141870Y-77443314D01*
X77206139Y-77439391D01*
X77273804Y-77444111D01*
X77333772Y-77457678D01*
X77387236Y-77479557D01*
X77435895Y-77510207D01*
X77476483Y-77547808D01*
X77509769Y-77592892D01*
X77534161Y-77643363D01*
X77549645Y-77700364D01*
X77555763Y-77765211D01*
X77360131Y-77765211D01*
X77354107Y-77721298D01*
X77339697Y-77683265D01*
X77316940Y-77650538D01*
X77286260Y-77624912D01*
X77248968Y-77608588D01*
X77202206Y-77602793D01*
X77152672Y-77608632D01*
X77114642Y-77624772D01*
X77083712Y-77650652D01*
X77060433Y-77684810D01*
X77044294Y-77724490D01*
X77033679Y-77769565D01*
X77026236Y-77867241D01*
X77026236Y-77892379D01*
X77033679Y-77991249D01*
X77044335Y-78036519D01*
X77060433Y-78075583D01*
X77083658Y-78109100D01*
X77114642Y-78134848D01*
X77152871Y-78150942D01*
X77203821Y-78156827D01*
G37*
G36*
X56851169Y-74268574D02*
G01*
X57078962Y-73226512D01*
X57214907Y-73226512D01*
X57288709Y-73315481D01*
X57045959Y-74372500D01*
X56895969Y-74372500D01*
X56851169Y-74268574D01*
G37*
G36*
X56790639Y-73226512D02*
G01*
X56983112Y-74276509D01*
X56933677Y-74372500D01*
X56760023Y-74372500D01*
X56517274Y-73226512D01*
X56790639Y-73226512D01*
G37*
G36*
X57413630Y-74270962D02*
G01*
X57604557Y-73226512D01*
X57877151Y-73226512D01*
X57634401Y-74372500D01*
X57461590Y-74372500D01*
X57413630Y-74270962D01*
G37*
G36*
X57313075Y-73226512D02*
G01*
X57546415Y-74274894D01*
X57499298Y-74372500D01*
X57349238Y-74372500D01*
X57100941Y-73313866D01*
X57177972Y-73226512D01*
X57313075Y-73226512D01*
G37*
G36*
X58360333Y-74388229D02*
G01*
X58291787Y-74384397D01*
X58230272Y-74373369D01*
X58174883Y-74355647D01*
X58098818Y-74316381D01*
X58037041Y-74265765D01*
X57987589Y-74204147D01*
X57951443Y-74133893D01*
X57929392Y-74057503D01*
X57921951Y-73976038D01*
X57921951Y-73946265D01*
X57928605Y-73855092D01*
X57947862Y-73773173D01*
X57980416Y-73697924D01*
X58024893Y-73633787D01*
X58061453Y-73597223D01*
X58103902Y-73566262D01*
X58152904Y-73540746D01*
X58205266Y-73522683D01*
X58264602Y-73511357D01*
X58332035Y-73507391D01*
X58419277Y-73514948D01*
X58493891Y-73536462D01*
X58560311Y-73572001D01*
X58615231Y-73619673D01*
X58658777Y-73678721D01*
X58691420Y-73750773D01*
X58710895Y-73830610D01*
X58717752Y-73923444D01*
X58717752Y-74030950D01*
X58023348Y-74030950D01*
X58023348Y-73865232D01*
X58459343Y-73865232D01*
X58459343Y-73844868D01*
X58455875Y-73804593D01*
X58444808Y-73772752D01*
X58426021Y-73746468D01*
X58400429Y-73727320D01*
X58369255Y-73715810D01*
X58329717Y-73711661D01*
X58289164Y-73716674D01*
X58258585Y-73730480D01*
X58234031Y-73752524D01*
X58215399Y-73781881D01*
X58202577Y-73816082D01*
X58193772Y-73856805D01*
X58187522Y-73946265D01*
X58187522Y-73976038D01*
X58190874Y-74021792D01*
X58200443Y-74061636D01*
X58216601Y-74097611D01*
X58238151Y-74127081D01*
X58265352Y-74151004D01*
X58297908Y-74169073D01*
X58334508Y-74180085D01*
X58377607Y-74183959D01*
X58431154Y-74178900D01*
X58484412Y-74163525D01*
X58532968Y-74136696D01*
X58574784Y-74095974D01*
X58695001Y-74238941D01*
X58664940Y-74274066D01*
X58621551Y-74310495D01*
X58570588Y-74341221D01*
X58508005Y-74366671D01*
X58439639Y-74382615D01*
X58360333Y-74388229D01*
G37*
G36*
X59236676Y-74388229D02*
G01*
X59168131Y-74384397D01*
X59106616Y-74373369D01*
X59051226Y-74355647D01*
X58975161Y-74316381D01*
X58913384Y-74265765D01*
X58863932Y-74204147D01*
X58827786Y-74133893D01*
X58805735Y-74057503D01*
X58798294Y-73976038D01*
X58798294Y-73946265D01*
X58804948Y-73855092D01*
X58824205Y-73773173D01*
X58856760Y-73697924D01*
X58901236Y-73633787D01*
X58937796Y-73597223D01*
X58980246Y-73566262D01*
X59029247Y-73540746D01*
X59081609Y-73522683D01*
X59140945Y-73511357D01*
X59208378Y-73507391D01*
X59295621Y-73514948D01*
X59370235Y-73536462D01*
X59436654Y-73572001D01*
X59491574Y-73619673D01*
X59535120Y-73678721D01*
X59567763Y-73750773D01*
X59587238Y-73830610D01*
X59594095Y-73923444D01*
X59594095Y-74030950D01*
X58899692Y-74030950D01*
X58899692Y-73865232D01*
X59335686Y-73865232D01*
X59335686Y-73844868D01*
X59332218Y-73804593D01*
X59321151Y-73772752D01*
X59302364Y-73746468D01*
X59276772Y-73727320D01*
X59245598Y-73715810D01*
X59206061Y-73711661D01*
X59165508Y-73716674D01*
X59134928Y-73730480D01*
X59110375Y-73752524D01*
X59091743Y-73781881D01*
X59078920Y-73816082D01*
X59070115Y-73856805D01*
X59063866Y-73946265D01*
X59063866Y-73976038D01*
X59067217Y-74021792D01*
X59076786Y-74061636D01*
X59092944Y-74097611D01*
X59114494Y-74127081D01*
X59141695Y-74151004D01*
X59174251Y-74169073D01*
X59210851Y-74180085D01*
X59253951Y-74183959D01*
X59307497Y-74178900D01*
X59360755Y-74163525D01*
X59409312Y-74136696D01*
X59451128Y-74095974D01*
X59571344Y-74238941D01*
X59541283Y-74274066D01*
X59497894Y-74310495D01*
X59446931Y-74341221D01*
X59384349Y-74366671D01*
X59315983Y-74382615D01*
X59236676Y-74388229D01*
G37*
G36*
X59989714Y-73226512D02*
G01*
X59989714Y-74372500D01*
X59713961Y-74372500D01*
X59713961Y-73226512D01*
X59989714Y-73226512D01*
G37*
G36*
X60672391Y-73226512D02*
G01*
X60229304Y-73807370D01*
X59970052Y-74091480D01*
X59919775Y-73838056D01*
X60085564Y-73586178D01*
X60332176Y-73226512D01*
X60672391Y-73226512D01*
G37*
G36*
X60346360Y-74372500D02*
G01*
X60050946Y-73856173D01*
X60265397Y-73697968D01*
X60672391Y-74372500D01*
X60346360Y-74372500D01*
G37*
G36*
X61121938Y-74388229D02*
G01*
X61053392Y-74384397D01*
X60991877Y-74373369D01*
X60936488Y-74355647D01*
X60860423Y-74316381D01*
X60798646Y-74265765D01*
X60749194Y-74204147D01*
X60713048Y-74133893D01*
X60690997Y-74057503D01*
X60683556Y-73976038D01*
X60683556Y-73946265D01*
X60690210Y-73855092D01*
X60709467Y-73773173D01*
X60742021Y-73697924D01*
X60786498Y-73633787D01*
X60823058Y-73597223D01*
X60865508Y-73566262D01*
X60914509Y-73540746D01*
X60966871Y-73522683D01*
X61026207Y-73511357D01*
X61093640Y-73507391D01*
X61180882Y-73514948D01*
X61255496Y-73536462D01*
X61321916Y-73572001D01*
X61376836Y-73619673D01*
X61420382Y-73678721D01*
X61453025Y-73750773D01*
X61472500Y-73830610D01*
X61479357Y-73923444D01*
X61479357Y-74030950D01*
X60784953Y-74030950D01*
X60784953Y-73865232D01*
X61220948Y-73865232D01*
X61220948Y-73844868D01*
X61217480Y-73804593D01*
X61206413Y-73772752D01*
X61187626Y-73746468D01*
X61162034Y-73727320D01*
X61130860Y-73715810D01*
X61091322Y-73711661D01*
X61050769Y-73716674D01*
X61020190Y-73730480D01*
X60995636Y-73752524D01*
X60977004Y-73781881D01*
X60964182Y-73816082D01*
X60955377Y-73856805D01*
X60949127Y-73946265D01*
X60949127Y-73976038D01*
X60952479Y-74021792D01*
X60962048Y-74061636D01*
X60978206Y-74097611D01*
X60999756Y-74127081D01*
X61026957Y-74151004D01*
X61059513Y-74169073D01*
X61096113Y-74180085D01*
X61139212Y-74183959D01*
X61192759Y-74178900D01*
X61246017Y-74163525D01*
X61294573Y-74136696D01*
X61336390Y-74095974D01*
X61456606Y-74238941D01*
X61426545Y-74274066D01*
X61383156Y-74310495D01*
X61332193Y-74341221D01*
X61269610Y-74366671D01*
X61201244Y-74382615D01*
X61121938Y-74388229D01*
G37*
G36*
X62034445Y-73523121D02*
G01*
X62034445Y-73706956D01*
X61522191Y-73706956D01*
X61522191Y-73523121D01*
X62034445Y-73523121D01*
G37*
G36*
X61629838Y-73311899D02*
G01*
X61894567Y-73311899D01*
X61894567Y-74095272D01*
X61896813Y-74126947D01*
X61902431Y-74147445D01*
X61913092Y-74163111D01*
X61929536Y-74173356D01*
X61950512Y-74178712D01*
X61981007Y-74180799D01*
X62018715Y-74179676D01*
X62047014Y-74176095D01*
X62047014Y-74365478D01*
X61976303Y-74382330D01*
X61897727Y-74388229D01*
X61816724Y-74381116D01*
X61752793Y-74361545D01*
X61715740Y-74340234D01*
X61685460Y-74312450D01*
X61661226Y-74277562D01*
X61644585Y-74238059D01*
X61633767Y-74189017D01*
X61629838Y-74128345D01*
X61629838Y-73311899D01*
G37*
G36*
X62587215Y-73523121D02*
G01*
X62587215Y-73706956D01*
X62074962Y-73706956D01*
X62074962Y-73523121D01*
X62587215Y-73523121D01*
G37*
G36*
X62182609Y-73311899D02*
G01*
X62447337Y-73311899D01*
X62447337Y-74095272D01*
X62449584Y-74126947D01*
X62455202Y-74147445D01*
X62465862Y-74163111D01*
X62482307Y-74173356D01*
X62503282Y-74178712D01*
X62533778Y-74180799D01*
X62571486Y-74179676D01*
X62599784Y-74176095D01*
X62599784Y-74365478D01*
X62529073Y-74382330D01*
X62450497Y-74388229D01*
X62369495Y-74381116D01*
X62305563Y-74361545D01*
X62268510Y-74340234D01*
X62238231Y-74312450D01*
X62213997Y-74277562D01*
X62197356Y-74238059D01*
X62186537Y-74189017D01*
X62182609Y-74128345D01*
X62182609Y-73311899D01*
G37*
G36*
X56933677Y-76115959D02*
G01*
X56968788Y-76112398D01*
X56996875Y-76102477D01*
X57020135Y-76086014D01*
X57036900Y-76063926D01*
X57046850Y-76037083D01*
X57049891Y-76003397D01*
X57298961Y-76003397D01*
X57293894Y-76065430D01*
X57278222Y-76120521D01*
X57252194Y-76170029D01*
X57216982Y-76213838D01*
X57174315Y-76250645D01*
X57123341Y-76280835D01*
X57067895Y-76302399D01*
X57007079Y-76315657D01*
X56939927Y-76320229D01*
X56874021Y-76316345D01*
X56816259Y-76305273D01*
X56765501Y-76287647D01*
X56696658Y-76248271D01*
X56641001Y-76196572D01*
X56597725Y-76133649D01*
X56566357Y-76059573D01*
X56547987Y-75978881D01*
X56541640Y-75889219D01*
X56541640Y-75871173D01*
X56547981Y-75781466D01*
X56566357Y-75700469D01*
X56597748Y-75626033D01*
X56641001Y-75563048D01*
X56696602Y-75511326D01*
X56765150Y-75471973D01*
X56815630Y-75454339D01*
X56872999Y-75443271D01*
X56938382Y-75439391D01*
X57008155Y-75444076D01*
X57070218Y-75457550D01*
X57125728Y-75479276D01*
X57176332Y-75510069D01*
X57218614Y-75548444D01*
X57253388Y-75594998D01*
X57278439Y-75647407D01*
X57293881Y-75708053D01*
X57298961Y-75778693D01*
X57049891Y-75778693D01*
X57047217Y-75741947D01*
X57038094Y-75710370D01*
X57022027Y-75683053D01*
X56999192Y-75661918D01*
X56970328Y-75648516D01*
X56932062Y-75643661D01*
X56893948Y-75648502D01*
X56866055Y-75661707D01*
X56844203Y-75682870D01*
X56827926Y-75711563D01*
X56817346Y-75744737D01*
X56810652Y-75784100D01*
X56806369Y-75871173D01*
X56806369Y-75889219D01*
X56810652Y-75977486D01*
X56817488Y-76017094D01*
X56828347Y-76049672D01*
X56844915Y-76077602D01*
X56866898Y-76098334D01*
X56894851Y-76111199D01*
X56933677Y-76115959D01*
G37*
G36*
X57854394Y-75443257D02*
G01*
X57913073Y-75454313D01*
X57965066Y-75471973D01*
X58036002Y-75511315D01*
X58093498Y-75562697D01*
X58138764Y-75625420D01*
X58172074Y-75699696D01*
X58191949Y-75780971D01*
X58198828Y-75871945D01*
X58198828Y-75888447D01*
X58191965Y-75978755D01*
X58172074Y-76059994D01*
X58138788Y-76134284D01*
X58093498Y-76197344D01*
X58036029Y-76248956D01*
X57965487Y-76288068D01*
X57913749Y-76305504D01*
X57855435Y-76316416D01*
X57789516Y-76320229D01*
X57723600Y-76316428D01*
X57664989Y-76305527D01*
X57612703Y-76288068D01*
X57541511Y-76248907D01*
X57483920Y-76197344D01*
X57438669Y-76134291D01*
X57405344Y-76059994D01*
X57385506Y-75978758D01*
X57378660Y-75888447D01*
X57378660Y-75871945D01*
X57643389Y-75871945D01*
X57643389Y-75888447D01*
X57650481Y-75977907D01*
X57660184Y-76017674D01*
X57674005Y-76050444D01*
X57693613Y-76078157D01*
X57718805Y-76098685D01*
X57749524Y-76111365D01*
X57789516Y-76115959D01*
X57828771Y-76111374D01*
X57859034Y-76098685D01*
X57883882Y-76078189D01*
X57903413Y-76050444D01*
X57917286Y-76017669D01*
X57927007Y-75977907D01*
X57934099Y-75888447D01*
X57934099Y-75871945D01*
X57927007Y-75784522D01*
X57917330Y-75744959D01*
X57903413Y-75711563D01*
X57883781Y-75682993D01*
X57858613Y-75661707D01*
X57827897Y-75648448D01*
X57787971Y-75643661D01*
X57748763Y-75648434D01*
X57718384Y-75661707D01*
X57693559Y-75682960D01*
X57674005Y-75711563D01*
X57660141Y-75744954D01*
X57650481Y-75784522D01*
X57643389Y-75871945D01*
X57378660Y-75871945D01*
X57385521Y-75780968D01*
X57405344Y-75699696D01*
X57438692Y-75625412D01*
X57483920Y-75562697D01*
X57541349Y-75511289D01*
X57611930Y-75471973D01*
X57663736Y-75454301D01*
X57722073Y-75443251D01*
X57787971Y-75439391D01*
X57854394Y-75443257D01*
G37*
G36*
X58583211Y-75634883D02*
G01*
X58583211Y-76304500D01*
X58318412Y-76304500D01*
X58318412Y-75455121D01*
X58566709Y-75455121D01*
X58583211Y-75634883D01*
G37*
G36*
X58550980Y-75851090D02*
G01*
X58490450Y-75852635D01*
X58495930Y-75765260D01*
X58511657Y-75687689D01*
X58538474Y-75616164D01*
X58574504Y-75556448D01*
X58621085Y-75506867D01*
X58677025Y-75470077D01*
X58741356Y-75447373D01*
X58818096Y-75439391D01*
X58872165Y-75443767D01*
X58919423Y-75456314D01*
X58961835Y-75477889D01*
X58997929Y-75508909D01*
X59026448Y-75548707D01*
X59048628Y-75601529D01*
X59061562Y-75661465D01*
X59066323Y-75737685D01*
X59066323Y-76304500D01*
X58801594Y-76304500D01*
X58801594Y-75771601D01*
X58798044Y-75720983D01*
X58789376Y-75690006D01*
X58774109Y-75666537D01*
X58754407Y-75653070D01*
X58730148Y-75646195D01*
X58698652Y-75643661D01*
X58665530Y-75647677D01*
X58636578Y-75659390D01*
X58611371Y-75677975D01*
X58589882Y-75702997D01*
X58573248Y-75732762D01*
X58560811Y-75768582D01*
X58553524Y-75807341D01*
X58550980Y-75851090D01*
G37*
G36*
X59036480Y-75851090D02*
G01*
X58962609Y-75852635D01*
X58967786Y-75765213D01*
X58982621Y-75687689D01*
X59008266Y-75616117D01*
X59043151Y-75556448D01*
X59088701Y-75506892D01*
X59144057Y-75470077D01*
X59208026Y-75447385D01*
X59284707Y-75439391D01*
X59341259Y-75443837D01*
X59391511Y-75456665D01*
X59436838Y-75479206D01*
X59475564Y-75512420D01*
X59506178Y-75555561D01*
X59530546Y-75614098D01*
X59544844Y-75681154D01*
X59550208Y-75769916D01*
X59550208Y-76304500D01*
X59284707Y-76304500D01*
X59284707Y-75769986D01*
X59281173Y-75720841D01*
X59272489Y-75690357D01*
X59257265Y-75667163D01*
X59237519Y-75653492D01*
X59213422Y-75646269D01*
X59183380Y-75643661D01*
X59147508Y-75647766D01*
X59118145Y-75659390D01*
X59093092Y-75678009D01*
X59072222Y-75702997D01*
X59056458Y-75732738D01*
X59045117Y-75768582D01*
X59038720Y-75807295D01*
X59036480Y-75851090D01*
G37*
G36*
X59969631Y-75634883D02*
G01*
X59969631Y-76304500D01*
X59704832Y-76304500D01*
X59704832Y-75455121D01*
X59953129Y-75455121D01*
X59969631Y-75634883D01*
G37*
G36*
X59937400Y-75851090D02*
G01*
X59876871Y-75852635D01*
X59882350Y-75765260D01*
X59898077Y-75687689D01*
X59924894Y-75616164D01*
X59960924Y-75556448D01*
X60007505Y-75506867D01*
X60063445Y-75470077D01*
X60127776Y-75447373D01*
X60204516Y-75439391D01*
X60258586Y-75443767D01*
X60305843Y-75456314D01*
X60348255Y-75477889D01*
X60384349Y-75508909D01*
X60412868Y-75548707D01*
X60435048Y-75601529D01*
X60447982Y-75661465D01*
X60452743Y-75737685D01*
X60452743Y-76304500D01*
X60188015Y-76304500D01*
X60188015Y-75771601D01*
X60184464Y-75720983D01*
X60175796Y-75690006D01*
X60160529Y-75666537D01*
X60140827Y-75653070D01*
X60116568Y-75646195D01*
X60085072Y-75643661D01*
X60051950Y-75647677D01*
X60022998Y-75659390D01*
X59997791Y-75677975D01*
X59976302Y-75702997D01*
X59959668Y-75732762D01*
X59947231Y-75768582D01*
X59939945Y-75807341D01*
X59937400Y-75851090D01*
G37*
G36*
X60422900Y-75851090D02*
G01*
X60349029Y-75852635D01*
X60354206Y-75765213D01*
X60369041Y-75687689D01*
X60394686Y-75616117D01*
X60429571Y-75556448D01*
X60475121Y-75506892D01*
X60530477Y-75470077D01*
X60594446Y-75447385D01*
X60671127Y-75439391D01*
X60727680Y-75443837D01*
X60777931Y-75456665D01*
X60823258Y-75479206D01*
X60861984Y-75512420D01*
X60892598Y-75555561D01*
X60916967Y-75614098D01*
X60931264Y-75681154D01*
X60936628Y-75769916D01*
X60936628Y-76304500D01*
X60671127Y-76304500D01*
X60671127Y-75769986D01*
X60667593Y-75720841D01*
X60658909Y-75690357D01*
X60643685Y-75667163D01*
X60623939Y-75653492D01*
X60599842Y-75646269D01*
X60569800Y-75643661D01*
X60533928Y-75647766D01*
X60504566Y-75659390D01*
X60479512Y-75678009D01*
X60458642Y-75702997D01*
X60442878Y-75732738D01*
X60431537Y-75768582D01*
X60425140Y-75807295D01*
X60422900Y-75851090D01*
G37*
G36*
X61534339Y-76065893D02*
G01*
X61530692Y-76045355D01*
X61519804Y-76027833D01*
X61501786Y-76013488D01*
X61469105Y-75997990D01*
X61367778Y-75970113D01*
X61307084Y-75954450D01*
X61251143Y-75934792D01*
X61199218Y-75910020D01*
X61155714Y-75881425D01*
X61119066Y-75846815D01*
X61091673Y-75806852D01*
X61074481Y-75761316D01*
X61068501Y-75707912D01*
X61074312Y-75655114D01*
X61091673Y-75605461D01*
X61119969Y-75560373D01*
X61159997Y-75519863D01*
X61209119Y-75487090D01*
X61270383Y-75461019D01*
X61338321Y-75445065D01*
X61418898Y-75439391D01*
X61494779Y-75443611D01*
X61560275Y-75455546D01*
X61616847Y-75474361D01*
X61669503Y-75501595D01*
X61711852Y-75534063D01*
X61745280Y-75571826D01*
X61770240Y-75615299D01*
X61785280Y-75662944D01*
X61790431Y-75715917D01*
X61525702Y-75715917D01*
X61522881Y-75685242D01*
X61515099Y-75661005D01*
X61501362Y-75640969D01*
X61480902Y-75626036D01*
X61455046Y-75617197D01*
X61418055Y-75613817D01*
X61391527Y-75616432D01*
X61368199Y-75623999D01*
X61347861Y-75636308D01*
X61332457Y-75652228D01*
X61322518Y-75671625D01*
X61319115Y-75694570D01*
X61327331Y-75725607D01*
X61352891Y-75750676D01*
X61396849Y-75771110D01*
X61461311Y-75787190D01*
X61544989Y-75806484D01*
X61621552Y-75831990D01*
X61669174Y-75854582D01*
X61709325Y-75882029D01*
X61742892Y-75914358D01*
X61768105Y-75952443D01*
X61783968Y-75999523D01*
X61789658Y-76058028D01*
X61783112Y-76112583D01*
X61763747Y-76162094D01*
X61732641Y-76206060D01*
X61689104Y-76245304D01*
X61636666Y-76276407D01*
X61572047Y-76300637D01*
X61501220Y-76315095D01*
X61418055Y-76320229D01*
X61337806Y-76314938D01*
X61269863Y-76300055D01*
X61212241Y-76276622D01*
X61159248Y-76243898D01*
X61117443Y-76207276D01*
X61085354Y-76166658D01*
X61061081Y-76120942D01*
X61047142Y-76076287D01*
X61042590Y-76031906D01*
X61289272Y-76031906D01*
X61295143Y-76068641D01*
X61308442Y-76096298D01*
X61329048Y-76118002D01*
X61355981Y-76133233D01*
X61387359Y-76141930D01*
X61425147Y-76145030D01*
X61459542Y-76142261D01*
X61485256Y-76134848D01*
X61506778Y-76122482D01*
X61521770Y-76107041D01*
X61531131Y-76088156D01*
X61534339Y-76065893D01*
G37*
G36*
X62580685Y-75524313D02*
G01*
X62590292Y-75512077D01*
X62639950Y-75472746D01*
X62677681Y-75454609D01*
X62720904Y-75443338D01*
X62770770Y-75439391D01*
X62827090Y-75443230D01*
X62876048Y-75454164D01*
X62918793Y-75471622D01*
X62975817Y-75510204D01*
X63022157Y-75561855D01*
X63057216Y-75623934D01*
X63082616Y-75698432D01*
X63097182Y-75779117D01*
X63102278Y-75870401D01*
X63102278Y-75886902D01*
X63097150Y-75981011D01*
X63082616Y-76062733D01*
X63057164Y-76137843D01*
X63022157Y-76199732D01*
X62975882Y-76250960D01*
X62919214Y-76288840D01*
X62876795Y-76305835D01*
X62828203Y-76316488D01*
X62772315Y-76320229D01*
X62721925Y-76316275D01*
X62678335Y-76304997D01*
X62640372Y-76286874D01*
X62590367Y-76247511D01*
X62564907Y-76215160D01*
X62553159Y-76304500D01*
X62315886Y-76304500D01*
X62315886Y-75713055D01*
X62580685Y-75713055D01*
X62580685Y-76046229D01*
X62588392Y-76063310D01*
X62616005Y-76092436D01*
X62653131Y-76110114D01*
X62706378Y-76116732D01*
X62746143Y-76112283D01*
X62775053Y-76100300D01*
X62797959Y-76080482D01*
X62814727Y-76053183D01*
X62825676Y-76020779D01*
X62832844Y-75980224D01*
X62837549Y-75886832D01*
X62837549Y-75870401D01*
X62832001Y-75783328D01*
X62824141Y-75744063D01*
X62812410Y-75711142D01*
X62795119Y-75682831D01*
X62772315Y-75661707D01*
X62743670Y-75648500D01*
X62704763Y-75643661D01*
X62664489Y-75647450D01*
X62633630Y-75657775D01*
X62607856Y-75674994D01*
X62588058Y-75698222D01*
X62580685Y-75713055D01*
X62315886Y-75713055D01*
X62315886Y-75095595D01*
X62580685Y-75095595D01*
X62580685Y-75524313D01*
G37*
G36*
X63661853Y-75443257D02*
G01*
X63720533Y-75454313D01*
X63772526Y-75471973D01*
X63843462Y-75511315D01*
X63900958Y-75562697D01*
X63946224Y-75625420D01*
X63979534Y-75699696D01*
X63999409Y-75780971D01*
X64006287Y-75871945D01*
X64006287Y-75888447D01*
X63999424Y-75978755D01*
X63979534Y-76059994D01*
X63946248Y-76134284D01*
X63900958Y-76197344D01*
X63843489Y-76248956D01*
X63772947Y-76288068D01*
X63721209Y-76305504D01*
X63662895Y-76316416D01*
X63596976Y-76320229D01*
X63531060Y-76316428D01*
X63472448Y-76305527D01*
X63420163Y-76288068D01*
X63348970Y-76248907D01*
X63291379Y-76197344D01*
X63246129Y-76134291D01*
X63212803Y-76059994D01*
X63192965Y-75978758D01*
X63186120Y-75888447D01*
X63186120Y-75871945D01*
X63450849Y-75871945D01*
X63450849Y-75888447D01*
X63457941Y-75977907D01*
X63467644Y-76017674D01*
X63481465Y-76050444D01*
X63501073Y-76078157D01*
X63526265Y-76098685D01*
X63556984Y-76111365D01*
X63596976Y-76115959D01*
X63636231Y-76111374D01*
X63666494Y-76098685D01*
X63691342Y-76078189D01*
X63710873Y-76050444D01*
X63724746Y-76017669D01*
X63734467Y-75977907D01*
X63741559Y-75888447D01*
X63741559Y-75871945D01*
X63734467Y-75784522D01*
X63724790Y-75744959D01*
X63710873Y-75711563D01*
X63691240Y-75682993D01*
X63666072Y-75661707D01*
X63635357Y-75648448D01*
X63595431Y-75643661D01*
X63556223Y-75648434D01*
X63525843Y-75661707D01*
X63501019Y-75682960D01*
X63481465Y-75711563D01*
X63467601Y-75744954D01*
X63457941Y-75784522D01*
X63450849Y-75871945D01*
X63186120Y-75871945D01*
X63192981Y-75780968D01*
X63212803Y-75699696D01*
X63246152Y-75625412D01*
X63291379Y-75562697D01*
X63348809Y-75511289D01*
X63419390Y-75471973D01*
X63471196Y-75454301D01*
X63529532Y-75443251D01*
X63595431Y-75439391D01*
X63661853Y-75443257D01*
G37*
G36*
X64565027Y-76091031D02*
G01*
X64565027Y-75740915D01*
X64562288Y-75706347D01*
X64554774Y-75678981D01*
X64541533Y-75655775D01*
X64522614Y-75638535D01*
X64498182Y-75627959D01*
X64463699Y-75623999D01*
X64435248Y-75626719D01*
X64412650Y-75634251D01*
X64393962Y-75647021D01*
X64380419Y-75664867D01*
X64372423Y-75687039D01*
X64369464Y-75716760D01*
X64104665Y-75716760D01*
X64111298Y-75659693D01*
X64130998Y-75607146D01*
X64162648Y-75560130D01*
X64206414Y-75518740D01*
X64259325Y-75485805D01*
X64324243Y-75460247D01*
X64395400Y-75444826D01*
X64477814Y-75439391D01*
X64544743Y-75443356D01*
X64604800Y-75454777D01*
X64658910Y-75473167D01*
X64708961Y-75499735D01*
X64750681Y-75533223D01*
X64785025Y-75574003D01*
X64810083Y-75620815D01*
X64825800Y-75676281D01*
X64831370Y-75742390D01*
X64831370Y-76090189D01*
X64834120Y-76168357D01*
X64840780Y-76216233D01*
X64852466Y-76257213D01*
X64867463Y-76291158D01*
X64867463Y-76304500D01*
X64601962Y-76304500D01*
X64586098Y-76262599D01*
X64574085Y-76208369D01*
X64567317Y-76150888D01*
X64565027Y-76091031D01*
G37*
G36*
X64597257Y-75787682D02*
G01*
X64598802Y-75929104D01*
X64481746Y-75929104D01*
X64446521Y-75931829D01*
X64419320Y-75939216D01*
X64395898Y-75951406D01*
X64378452Y-75966742D01*
X64365276Y-75985347D01*
X64356474Y-76005995D01*
X64349803Y-76051708D01*
X64352704Y-76073965D01*
X64361178Y-76093278D01*
X64374573Y-76109451D01*
X64392216Y-76121647D01*
X64412776Y-76129119D01*
X64436173Y-76131689D01*
X64478013Y-76127289D01*
X64511238Y-76115046D01*
X64539203Y-76096007D01*
X64558777Y-76074249D01*
X64571503Y-76049980D01*
X64575279Y-76029238D01*
X64633421Y-76136323D01*
X64597609Y-76200012D01*
X64575397Y-76230722D01*
X64548104Y-76259348D01*
X64516021Y-76283546D01*
X64476269Y-76303376D01*
X64431203Y-76315702D01*
X64373326Y-76320229D01*
X64297397Y-76312082D01*
X64229165Y-76288209D01*
X64187976Y-76263719D01*
X64153245Y-76233975D01*
X64124327Y-76198678D01*
X64102681Y-76158777D01*
X64089574Y-76114923D01*
X64085074Y-76066103D01*
X64091277Y-76002856D01*
X64109019Y-75948766D01*
X64138869Y-75901401D01*
X64181626Y-75861202D01*
X64235052Y-75830429D01*
X64305775Y-75806501D01*
X64384687Y-75792732D01*
X64483361Y-75787682D01*
X64597257Y-75787682D01*
G37*
G36*
X65245667Y-75665499D02*
G01*
X65245667Y-76304500D01*
X64980868Y-76304500D01*
X64980868Y-75455121D01*
X65228323Y-75455121D01*
X65245667Y-75665499D01*
G37*
G36*
X65497054Y-75448871D02*
G01*
X65492279Y-75694711D01*
X65449866Y-75690849D01*
X65405136Y-75688461D01*
X65360572Y-75691309D01*
X65325367Y-75699064D01*
X65294422Y-75712530D01*
X65270385Y-75730523D01*
X65251890Y-75753672D01*
X65238926Y-75782766D01*
X65231938Y-75815606D01*
X65229938Y-75855795D01*
X65181978Y-75824336D01*
X65186375Y-75740880D01*
X65198831Y-75668448D01*
X65219931Y-75601404D01*
X65247142Y-75546617D01*
X65282570Y-75500387D01*
X65323401Y-75467269D01*
X65370596Y-75446456D01*
X65423955Y-75439391D01*
X65462857Y-75441779D01*
X65497054Y-75448871D01*
G37*
G36*
X66327825Y-76304500D02*
G01*
X66089007Y-76304500D01*
X66075925Y-76211730D01*
X66046724Y-76247679D01*
X65996668Y-76286874D01*
X65959023Y-76305117D01*
X65916820Y-76316336D01*
X65869079Y-76320229D01*
X65815888Y-76316457D01*
X65768662Y-76305603D01*
X65726462Y-76288068D01*
X65670051Y-76249509D01*
X65623520Y-76197765D01*
X65587818Y-76135706D01*
X65561095Y-76061188D01*
X65545365Y-75980533D01*
X65539888Y-75889992D01*
X65539888Y-75873560D01*
X65804617Y-75873560D01*
X65804617Y-75889992D01*
X65810867Y-75978680D01*
X65819678Y-76017828D01*
X65832494Y-76050444D01*
X65850653Y-76078326D01*
X65873362Y-76098685D01*
X65901155Y-76111418D01*
X65936630Y-76115959D01*
X65984399Y-76109551D01*
X66021034Y-76091663D01*
X66049693Y-76062819D01*
X66061481Y-76040096D01*
X66061481Y-75718898D01*
X66050105Y-75697800D01*
X66029160Y-75674256D01*
X66003760Y-75657424D01*
X65974220Y-75647271D01*
X65938175Y-75643661D01*
X65903373Y-75648178D01*
X65875679Y-75660935D01*
X65852938Y-75681272D01*
X65834460Y-75709176D01*
X65821243Y-75741945D01*
X65811709Y-75782134D01*
X65804617Y-75873560D01*
X65539888Y-75873560D01*
X65545406Y-75779412D01*
X65561095Y-75697309D01*
X65587987Y-75621847D01*
X65623941Y-75559889D01*
X65670836Y-75508626D01*
X65727656Y-75470780D01*
X65793093Y-75447536D01*
X65870624Y-75439391D01*
X65917843Y-75443277D01*
X65959678Y-75454488D01*
X65997090Y-75472746D01*
X66046740Y-75512056D01*
X66061481Y-75530458D01*
X66061481Y-75095595D01*
X66327825Y-75095595D01*
X66327825Y-76304500D01*
G37*
D11*
G36*
X60654820Y-67341778D02*
G01*
X57559640Y-67341778D01*
X57559640Y-65826428D01*
X57737418Y-65826428D01*
X58219358Y-65826428D01*
X58219358Y-67164000D01*
X58546155Y-67164000D01*
X59102052Y-67164000D01*
X59482387Y-67164000D01*
X59790622Y-66596770D01*
X60098856Y-67164000D01*
X60477042Y-67164000D01*
X60002624Y-66360245D01*
X60465025Y-65569582D01*
X60090063Y-65569582D01*
X59790622Y-66125870D01*
X59491180Y-65569582D01*
X59114069Y-65569582D01*
X59577544Y-66360245D01*
X59102052Y-67164000D01*
X58546155Y-67164000D01*
X58546155Y-65826428D01*
X59035813Y-65826428D01*
X59035813Y-65569582D01*
X57737418Y-65569582D01*
X57737418Y-65826428D01*
X57559640Y-65826428D01*
X57559640Y-65391804D01*
X60654820Y-65391804D01*
X60654820Y-67341778D01*
G37*
G36*
X59770061Y-59834865D02*
G01*
X59846894Y-59858766D01*
X59914314Y-59898850D01*
X59970383Y-59954704D01*
X60013698Y-60023900D01*
X60046392Y-60111411D01*
X60065257Y-60208644D01*
X60072086Y-60327321D01*
X60072086Y-60405186D01*
X60066548Y-60511302D01*
X60051008Y-60601533D01*
X60026755Y-60678152D01*
X59990686Y-60748992D01*
X59946124Y-60805488D01*
X59892812Y-60849610D01*
X59831316Y-60881399D01*
X59759584Y-60901238D01*
X59675338Y-60908228D01*
X59514724Y-60908228D01*
X59514724Y-59826428D01*
X59678660Y-59826428D01*
X59770061Y-59834865D01*
G37*
G36*
X60582132Y-61363662D02*
G01*
X55864790Y-61363662D01*
X55864790Y-60318138D01*
X56042568Y-60318138D01*
X56042568Y-60417691D01*
X56048409Y-60539599D01*
X56065117Y-60647962D01*
X56091709Y-60744390D01*
X56130086Y-60836409D01*
X56176946Y-60916370D01*
X56232198Y-60985605D01*
X56296905Y-61045909D01*
X56369315Y-61095558D01*
X56450258Y-61134983D01*
X56536164Y-61162844D01*
X56629419Y-61179987D01*
X56731137Y-61185884D01*
X56898044Y-61175812D01*
X56954301Y-61164000D01*
X57606406Y-61164000D01*
X57934375Y-61164000D01*
X57934375Y-60095193D01*
X58573705Y-61164000D01*
X58901674Y-61164000D01*
X58901674Y-60908228D01*
X59186755Y-60908228D01*
X59186755Y-61164000D01*
X59328904Y-61164000D01*
X59675338Y-61164000D01*
X59782122Y-61157732D01*
X59880282Y-61139483D01*
X59970970Y-61109778D01*
X60056744Y-61068175D01*
X60133341Y-61016821D01*
X60201632Y-60955416D01*
X60260685Y-60884942D01*
X60310541Y-60805173D01*
X60351304Y-60715081D01*
X60380319Y-60620257D01*
X60398201Y-60517312D01*
X60404354Y-60405088D01*
X60404354Y-60329568D01*
X60398180Y-60216621D01*
X60380279Y-60113536D01*
X60351304Y-60019087D01*
X60310538Y-59929332D01*
X60260498Y-59849547D01*
X60201046Y-59778752D01*
X60132459Y-59716909D01*
X60056035Y-59665378D01*
X59970970Y-59623804D01*
X59880998Y-59594069D01*
X59783933Y-59575836D01*
X59678660Y-59569582D01*
X59514724Y-59569582D01*
X59186755Y-59569582D01*
X59186755Y-60908228D01*
X58901674Y-60908228D01*
X58901674Y-59569582D01*
X58574877Y-59569582D01*
X58574877Y-60639464D01*
X57934375Y-59569582D01*
X57606406Y-59569582D01*
X57606406Y-61164000D01*
X56954301Y-61164000D01*
X57027355Y-61148661D01*
X57142686Y-61105793D01*
X57227341Y-61059268D01*
X57298356Y-61005969D01*
X57342135Y-60962255D01*
X57342135Y-60329861D01*
X56714724Y-60329861D01*
X56714724Y-60563748D01*
X57014263Y-60563748D01*
X57014263Y-60847558D01*
X56964438Y-60884488D01*
X56929252Y-60901455D01*
X56880321Y-60916923D01*
X56825173Y-60926482D01*
X56750774Y-60930113D01*
X56661723Y-60921522D01*
X56587913Y-60897286D01*
X56523867Y-60856636D01*
X56470383Y-60799296D01*
X56429683Y-60728542D01*
X56398869Y-60638389D01*
X56381217Y-60538663D01*
X56374836Y-60417691D01*
X56374836Y-60315891D01*
X56380960Y-60193986D01*
X56397794Y-60094704D01*
X56426910Y-60004789D01*
X56464424Y-59934872D01*
X56513747Y-59877610D01*
X56572086Y-59836882D01*
X56639423Y-59812088D01*
X56718046Y-59803469D01*
X56811813Y-59812715D01*
X56880321Y-59837468D01*
X56936100Y-59878148D01*
X56977041Y-59931648D01*
X57004975Y-59995542D01*
X57022958Y-60072918D01*
X57341060Y-60072918D01*
X57323650Y-59972768D01*
X57294549Y-59882581D01*
X57254110Y-59801027D01*
X57200777Y-59728290D01*
X57133426Y-59666501D01*
X57050314Y-59615011D01*
X56958908Y-59579279D01*
X56846657Y-59556090D01*
X56709253Y-59547698D01*
X56610523Y-59553663D01*
X56520211Y-59570999D01*
X56437166Y-59599184D01*
X56359158Y-59638769D01*
X56289063Y-59688555D01*
X56226140Y-59749052D01*
X56172690Y-59818172D01*
X56127271Y-59898334D01*
X56090048Y-59990950D01*
X56064359Y-60087621D01*
X56048212Y-60196163D01*
X56042568Y-60318138D01*
X55864790Y-60318138D01*
X55864790Y-59369920D01*
X60582132Y-59369920D01*
X60582132Y-61363662D01*
G37*
G36*
X58462490Y-68334454D02*
G01*
X58525053Y-68356226D01*
X58575788Y-68392819D01*
X58611417Y-68442297D01*
X58632369Y-68502014D01*
X58639847Y-68575653D01*
X58632310Y-68645274D01*
X58610831Y-68703637D01*
X58575135Y-68752472D01*
X58525053Y-68789610D01*
X58463481Y-68812182D01*
X58381926Y-68820482D01*
X58114138Y-68820482D01*
X58114138Y-68326428D01*
X58379679Y-68326428D01*
X58462490Y-68334454D01*
G37*
G36*
X60654819Y-69841778D02*
G01*
X57608391Y-69841778D01*
X57608391Y-68820482D01*
X57786169Y-68820482D01*
X57786169Y-69664000D01*
X58114138Y-69664000D01*
X58114138Y-69076254D01*
X58374685Y-69076254D01*
X58675897Y-69664000D01*
X59026727Y-69664000D01*
X59102052Y-69664000D01*
X59482387Y-69664000D01*
X59790621Y-69096770D01*
X60098856Y-69664000D01*
X60477041Y-69664000D01*
X60002624Y-68860245D01*
X60465025Y-68069582D01*
X60090063Y-68069582D01*
X59790621Y-68625870D01*
X59491180Y-68069582D01*
X59114069Y-68069582D01*
X59577544Y-68860245D01*
X59102052Y-69664000D01*
X59026727Y-69664000D01*
X59026727Y-69648661D01*
X58681309Y-68995132D01*
X58719622Y-68978537D01*
X58803196Y-68924432D01*
X58872449Y-68856003D01*
X58924536Y-68771829D01*
X58947785Y-68709236D01*
X58962509Y-68636435D01*
X58967718Y-68551620D01*
X58959240Y-68449037D01*
X58935195Y-68361777D01*
X58896693Y-68287056D01*
X58843426Y-68221960D01*
X58776513Y-68167924D01*
X58693971Y-68124488D01*
X58604527Y-68094984D01*
X58500560Y-68076227D01*
X58379679Y-68069582D01*
X57786169Y-68069582D01*
X57786169Y-68820482D01*
X57608391Y-68820482D01*
X57608391Y-67891804D01*
X60654819Y-67891804D01*
X60654819Y-69841778D01*
G37*
G36*
X60670548Y-58863662D02*
G01*
X57688991Y-58863662D01*
X57688991Y-58220064D01*
X57866769Y-58220064D01*
X57880100Y-58326459D01*
X57914249Y-58417314D01*
X57967326Y-58497092D01*
X58035589Y-58563958D01*
X58116149Y-58616744D01*
X58207243Y-58655109D01*
X58304388Y-58678150D01*
X58405568Y-58685884D01*
X58496691Y-58680754D01*
X58575543Y-58666228D01*
X58643852Y-58643288D01*
X58736787Y-58592012D01*
X58811011Y-58525856D01*
X58869195Y-58445917D01*
X58910467Y-58355472D01*
X58934991Y-58257896D01*
X58943293Y-58153923D01*
X58934703Y-58032255D01*
X58910467Y-57928926D01*
X58869531Y-57836012D01*
X58814919Y-57760789D01*
X58745720Y-57700352D01*
X58662414Y-57655863D01*
X58568605Y-57629242D01*
X58456957Y-57619812D01*
X58379511Y-57625355D01*
X58312658Y-57641110D01*
X58216524Y-57680971D01*
X58255799Y-57324279D01*
X58890830Y-57324279D01*
X58890830Y-57069582D01*
X59044508Y-57069582D01*
X59595422Y-58664000D01*
X59698102Y-58664000D01*
X59938632Y-58664000D01*
X60492770Y-57069582D01*
X60127676Y-57069582D01*
X59767047Y-58283237D01*
X59407453Y-57069582D01*
X59044508Y-57069582D01*
X58890830Y-57069582D01*
X57996804Y-57069582D01*
X57906043Y-57879882D01*
X58157515Y-57940064D01*
X58192386Y-57907577D01*
X58236650Y-57877733D01*
X58290067Y-57858086D01*
X58371667Y-57850378D01*
X58433598Y-57855843D01*
X58484801Y-57871187D01*
X58529518Y-57896502D01*
X58565108Y-57930099D01*
X58592457Y-57971335D01*
X58612100Y-58020762D01*
X58623442Y-58074913D01*
X58627439Y-58137510D01*
X58624182Y-58200636D01*
X58614836Y-58257091D01*
X58598528Y-58309560D01*
X58576050Y-58353225D01*
X58545729Y-58389675D01*
X58507173Y-58417119D01*
X58461616Y-58433946D01*
X58404494Y-58439980D01*
X58342969Y-58433094D01*
X58291849Y-58413504D01*
X58248727Y-58381467D01*
X58214766Y-58337789D01*
X58191859Y-58285113D01*
X58179302Y-58220064D01*
X57866769Y-58220064D01*
X57688991Y-58220064D01*
X57688991Y-56891804D01*
X60670548Y-56891804D01*
X60670548Y-58863662D01*
G37*
D12*
G36*
X61653566Y-71135226D02*
G01*
X61653566Y-70302187D01*
X61879026Y-70302187D01*
X61879026Y-71135006D01*
X61872902Y-71212961D01*
X61855435Y-71280376D01*
X61827369Y-71339071D01*
X61788672Y-71391397D01*
X61741951Y-71434566D01*
X61686392Y-71469277D01*
X61625388Y-71494009D01*
X61558540Y-71509184D01*
X61484745Y-71514413D01*
X61408447Y-71509809D01*
X61340518Y-71496586D01*
X61279801Y-71475358D01*
X61224195Y-71444446D01*
X61177933Y-71404784D01*
X61139996Y-71355704D01*
X61112952Y-71299821D01*
X61095743Y-71232428D01*
X61089585Y-71150979D01*
X61315851Y-71150979D01*
X61321510Y-71214743D01*
X61336368Y-71259863D01*
X61361600Y-71295612D01*
X61394986Y-71319214D01*
X61435332Y-71332553D01*
X61484745Y-71337312D01*
X61532361Y-71331305D01*
X61572819Y-71313938D01*
X61606363Y-71285529D01*
X61632244Y-71245355D01*
X61647872Y-71197057D01*
X61653566Y-71135226D01*
G37*
G36*
X62882645Y-71327494D02*
G01*
X62882645Y-71498000D01*
X62074372Y-71498000D01*
X62074372Y-71352113D01*
X62462059Y-70932553D01*
X62557973Y-70812678D01*
X62589317Y-70762052D01*
X62608384Y-70720281D01*
X62619906Y-70678957D01*
X62623552Y-70641000D01*
X62618396Y-70588278D01*
X62603842Y-70544573D01*
X62579627Y-70507533D01*
X62546909Y-70480093D01*
X62506632Y-70463148D01*
X62455537Y-70457085D01*
X62398993Y-70464311D01*
X62353468Y-70484782D01*
X62316598Y-70517415D01*
X62289501Y-70561133D01*
X62273458Y-70612241D01*
X62267812Y-70672654D01*
X62050558Y-70672654D01*
X62056146Y-70603173D01*
X62072556Y-70538913D01*
X62099724Y-70478847D01*
X62137037Y-70424560D01*
X62183728Y-70377944D01*
X62240775Y-70338457D01*
X62303956Y-70309823D01*
X62376049Y-70292008D01*
X62458835Y-70285773D01*
X62540061Y-70290727D01*
X62608803Y-70304635D01*
X62667003Y-70326440D01*
X62720120Y-70357891D01*
X62762900Y-70396194D01*
X62796549Y-70441771D01*
X62820607Y-70493249D01*
X62835568Y-70552119D01*
X62840806Y-70619898D01*
X62836109Y-70676764D01*
X62821902Y-70733177D01*
X62799562Y-70788107D01*
X62769072Y-70843600D01*
X62732536Y-70897609D01*
X62688325Y-70954022D01*
X62584204Y-71068108D01*
X62351417Y-71327494D01*
X62882645Y-71327494D01*
G37*
G36*
X61653566Y-62635226D02*
G01*
X61653566Y-61802187D01*
X61879026Y-61802187D01*
X61879026Y-62635006D01*
X61872902Y-62712961D01*
X61855435Y-62780376D01*
X61827369Y-62839071D01*
X61788672Y-62891397D01*
X61741951Y-62934566D01*
X61686392Y-62969277D01*
X61625388Y-62994009D01*
X61558540Y-63009184D01*
X61484745Y-63014413D01*
X61408447Y-63009809D01*
X61340518Y-62996586D01*
X61279801Y-62975358D01*
X61224195Y-62944446D01*
X61177933Y-62904784D01*
X61139996Y-62855704D01*
X61112952Y-62799821D01*
X61095743Y-62732428D01*
X61089585Y-62650979D01*
X61315851Y-62650979D01*
X61321510Y-62714743D01*
X61336368Y-62759863D01*
X61361600Y-62795612D01*
X61394986Y-62819214D01*
X61435332Y-62832553D01*
X61484745Y-62837312D01*
X61532361Y-62831305D01*
X61572819Y-62813938D01*
X61606363Y-62785529D01*
X61632244Y-62745355D01*
X61647872Y-62697057D01*
X61653566Y-62635226D01*
G37*
G36*
X62631759Y-61802187D02*
G01*
X62631759Y-62998000D01*
X62414578Y-62998000D01*
X62414578Y-62055271D01*
X62126835Y-62150306D01*
X62126835Y-61975037D01*
X62607212Y-61802187D01*
X62631759Y-61802187D01*
G37*
G36*
X66101016Y-60802187D02*
G01*
X66534645Y-60802187D01*
X66624716Y-60807178D01*
X66701969Y-60821252D01*
X66768238Y-60843366D01*
X66829344Y-60875863D01*
X66878881Y-60916331D01*
X66918301Y-60965145D01*
X66946721Y-61021134D01*
X66964494Y-61086582D01*
X66970765Y-61163568D01*
X66966849Y-61224862D01*
X66955699Y-61278252D01*
X66937938Y-61324915D01*
X66898481Y-61387719D01*
X66845761Y-61439367D01*
X66782108Y-61479985D01*
X66705956Y-61511761D01*
X66635468Y-61547811D01*
X66252691Y-61547811D01*
X66251005Y-61369905D01*
X66537136Y-61369905D01*
X66603016Y-61363242D01*
X66652687Y-61345138D01*
X66693191Y-61315407D01*
X66721930Y-61276628D01*
X66739282Y-61230491D01*
X66745304Y-61176684D01*
X66739290Y-61119152D01*
X66722370Y-61072197D01*
X66693716Y-61033299D01*
X66652687Y-61004053D01*
X66602178Y-60986569D01*
X66534645Y-60980093D01*
X66326476Y-60980093D01*
X66326476Y-61998000D01*
X66101016Y-61998000D01*
X66101016Y-60802187D01*
G37*
G36*
X66774833Y-61998000D02*
G01*
X66498594Y-61464207D01*
X66737171Y-61463401D01*
X67016707Y-61986496D01*
X67016707Y-61998000D01*
X66774833Y-61998000D01*
G37*
G36*
X67376916Y-61305571D02*
G01*
X67499062Y-61305571D01*
X67560269Y-61299461D01*
X67606040Y-61282930D01*
X67643154Y-61255727D01*
X67669128Y-61220355D01*
X67684640Y-61178059D01*
X67690084Y-61127591D01*
X67685125Y-61078004D01*
X67671180Y-61037392D01*
X67647583Y-61003485D01*
X67614173Y-60978115D01*
X67572749Y-60962764D01*
X67517087Y-60957085D01*
X67471058Y-60961865D01*
X67429746Y-60975843D01*
X67393921Y-60998668D01*
X67366658Y-61029113D01*
X67349334Y-61066326D01*
X67343284Y-61111691D01*
X67126103Y-61111691D01*
X67131979Y-61049085D01*
X67149078Y-60993042D01*
X67177321Y-60942211D01*
X67215041Y-60897436D01*
X67261013Y-60859277D01*
X67316246Y-60827466D01*
X67375991Y-60804601D01*
X67440985Y-60790589D01*
X67512178Y-60785773D01*
X67590116Y-60790416D01*
X67658678Y-60803674D01*
X67719173Y-60824828D01*
X67774851Y-60855439D01*
X67820629Y-60893527D01*
X67857659Y-60939500D01*
X67884494Y-60992026D01*
X67901315Y-61053795D01*
X67907265Y-61126859D01*
X67901159Y-61179636D01*
X67882279Y-61233397D01*
X67851937Y-61283199D01*
X67809299Y-61328725D01*
X67757098Y-61366295D01*
X67692063Y-61396942D01*
X67619692Y-61416029D01*
X67533500Y-61422808D01*
X67376916Y-61422808D01*
X67376916Y-61305571D01*
G37*
G36*
X67376916Y-61472780D02*
G01*
X67376916Y-61357228D01*
X67533500Y-61357228D01*
X67630607Y-61363474D01*
X67708476Y-61380602D01*
X67777715Y-61409425D01*
X67831061Y-61446108D01*
X67873437Y-61492061D01*
X67902795Y-61544074D01*
X67920244Y-61601413D01*
X67926169Y-61663729D01*
X67918081Y-61744003D01*
X67894955Y-61812399D01*
X67857555Y-61872554D01*
X67807687Y-61922675D01*
X67747474Y-61961925D01*
X67676089Y-61991112D01*
X67598672Y-62008435D01*
X67512984Y-62014413D01*
X67437722Y-62009167D01*
X67365046Y-61993530D01*
X67296529Y-61967134D01*
X67235939Y-61930442D01*
X67184602Y-61882841D01*
X67144934Y-61823976D01*
X67126618Y-61779930D01*
X67115257Y-61730419D01*
X67111302Y-61674427D01*
X67328556Y-61674427D01*
X67334716Y-61721295D01*
X67352736Y-61762061D01*
X67381381Y-61796117D01*
X67419927Y-61822218D01*
X67465074Y-61838330D01*
X67517087Y-61843907D01*
X67574150Y-61838182D01*
X67619962Y-61822218D01*
X67658096Y-61795632D01*
X67685908Y-61759936D01*
X67702883Y-61716535D01*
X67708915Y-61662849D01*
X67702025Y-61599783D01*
X67683490Y-61553893D01*
X67652837Y-61517825D01*
X67610949Y-61492490D01*
X67561114Y-61478011D01*
X67499062Y-61472780D01*
X67376916Y-61472780D01*
G37*
G36*
X64284212Y-61581429D02*
G01*
X64509599Y-61581429D01*
X64497908Y-61659314D01*
X64475700Y-61729382D01*
X64443214Y-61792822D01*
X64400299Y-61849342D01*
X64347387Y-61897265D01*
X64283332Y-61937096D01*
X64213179Y-61965266D01*
X64131149Y-61983096D01*
X64035011Y-61989413D01*
X63960970Y-61984779D01*
X63893937Y-61971363D01*
X63832924Y-61949625D01*
X63775858Y-61919144D01*
X63724948Y-61881243D01*
X63679637Y-61835540D01*
X63641243Y-61783636D01*
X63608823Y-61724294D01*
X63582478Y-61656607D01*
X63564254Y-61586087D01*
X63552873Y-61508022D01*
X63548919Y-61421475D01*
X63548919Y-61330397D01*
X63552960Y-61243885D01*
X63564604Y-61165669D01*
X63583284Y-61094824D01*
X63610184Y-61026884D01*
X63643141Y-60967424D01*
X63682055Y-60915526D01*
X63727922Y-60869760D01*
X63779394Y-60831706D01*
X63837027Y-60801000D01*
X63898583Y-60778994D01*
X63965896Y-60765444D01*
X64039920Y-60760773D01*
X64135970Y-60767300D01*
X64217412Y-60785686D01*
X64286630Y-60814702D01*
X64349426Y-60855553D01*
X64401266Y-60904621D01*
X64443214Y-60962494D01*
X64475001Y-61026964D01*
X64497528Y-61098469D01*
X64510478Y-61178136D01*
X64285018Y-61178136D01*
X64273113Y-61105791D01*
X64252631Y-61049322D01*
X64220415Y-61002687D01*
X64175548Y-60968795D01*
X64119308Y-60948711D01*
X64039920Y-60941098D01*
X63977118Y-60947516D01*
X63924735Y-60965718D01*
X63879636Y-60996124D01*
X63842303Y-61039210D01*
X63814383Y-61092203D01*
X63793137Y-61160770D01*
X63781151Y-61236386D01*
X63776797Y-61328711D01*
X63776797Y-61421475D01*
X63780687Y-61510172D01*
X63791525Y-61584873D01*
X63811069Y-61653326D01*
X63837467Y-61707239D01*
X63873395Y-61751670D01*
X63917774Y-61783662D01*
X63970190Y-61803001D01*
X64035011Y-61809894D01*
X64113203Y-61802759D01*
X64169833Y-61783809D01*
X64215824Y-61751485D01*
X64249334Y-61707092D01*
X64271181Y-61652531D01*
X64284212Y-61581429D01*
G37*
G36*
X65212652Y-60777187D02*
G01*
X65212652Y-61973000D01*
X64995471Y-61973000D01*
X64995471Y-61030271D01*
X64707729Y-61125306D01*
X64707729Y-60950037D01*
X65188106Y-60777187D01*
X65212652Y-60777187D01*
G37*
G36*
X72101016Y-60802187D02*
G01*
X72534645Y-60802187D01*
X72624716Y-60807178D01*
X72701969Y-60821252D01*
X72768238Y-60843366D01*
X72829344Y-60875863D01*
X72878881Y-60916331D01*
X72918301Y-60965145D01*
X72946721Y-61021134D01*
X72964494Y-61086582D01*
X72970765Y-61163568D01*
X72966849Y-61224862D01*
X72955699Y-61278252D01*
X72937938Y-61324915D01*
X72898481Y-61387719D01*
X72845761Y-61439367D01*
X72782108Y-61479985D01*
X72705956Y-61511761D01*
X72635468Y-61547811D01*
X72252691Y-61547811D01*
X72251005Y-61369905D01*
X72537136Y-61369905D01*
X72603016Y-61363242D01*
X72652687Y-61345138D01*
X72693191Y-61315407D01*
X72721930Y-61276628D01*
X72739282Y-61230491D01*
X72745304Y-61176684D01*
X72739290Y-61119152D01*
X72722370Y-61072197D01*
X72693716Y-61033299D01*
X72652687Y-61004053D01*
X72602178Y-60986569D01*
X72534645Y-60980093D01*
X72326476Y-60980093D01*
X72326476Y-61998000D01*
X72101016Y-61998000D01*
X72101016Y-60802187D01*
G37*
G36*
X72774833Y-61998000D02*
G01*
X72498594Y-61464207D01*
X72737171Y-61463401D01*
X73016707Y-61986496D01*
X73016707Y-61998000D01*
X72774833Y-61998000D01*
G37*
G36*
X73968741Y-61560194D02*
G01*
X73968741Y-61730700D01*
X73108884Y-61730700D01*
X73099871Y-61599542D01*
X73605601Y-60802187D01*
X73778598Y-60802187D01*
X73591679Y-61119311D01*
X73320349Y-61560194D01*
X73968741Y-61560194D01*
G37*
G36*
X73826958Y-60802187D02*
G01*
X73826958Y-61998000D01*
X73609704Y-61998000D01*
X73609704Y-60802187D01*
X73826958Y-60802187D01*
G37*
G36*
X69590280Y-60790409D02*
G01*
X69657874Y-60803926D01*
X69720464Y-60826000D01*
X69779186Y-60856820D01*
X69832034Y-60895417D01*
X69879539Y-60942211D01*
X69920051Y-60995368D01*
X69954518Y-61056266D01*
X69982854Y-61125833D01*
X70002642Y-61198422D01*
X70015028Y-61279341D01*
X70019344Y-61369685D01*
X70019344Y-61431307D01*
X70015084Y-61521113D01*
X70002834Y-61601933D01*
X69983220Y-61674793D01*
X69955107Y-61744578D01*
X69920782Y-61805460D01*
X69880345Y-61858415D01*
X69832929Y-61904964D01*
X69810378Y-61921423D01*
X70013555Y-62083216D01*
X69869281Y-62209025D01*
X69615771Y-62004995D01*
X69591939Y-62009771D01*
X69518450Y-62014413D01*
X69445547Y-62009790D01*
X69378188Y-61996284D01*
X69315558Y-61974186D01*
X69256833Y-61943418D01*
X69203858Y-61904964D01*
X69156116Y-61858415D01*
X69115386Y-61805463D01*
X69080647Y-61744576D01*
X69051996Y-61674793D01*
X69031977Y-61601900D01*
X69019482Y-61521083D01*
X69015139Y-61431307D01*
X69015139Y-61369685D01*
X69015219Y-61368000D01*
X69243018Y-61368000D01*
X69243018Y-61431307D01*
X69247897Y-61525355D01*
X69261409Y-61603132D01*
X69284896Y-61673685D01*
X69315558Y-61729235D01*
X69355569Y-61774729D01*
X69402460Y-61806904D01*
X69456222Y-61826440D01*
X69518450Y-61833209D01*
X69581318Y-61826407D01*
X69634808Y-61806904D01*
X69681222Y-61774719D01*
X69720464Y-61729235D01*
X69750406Y-61673737D01*
X69773367Y-61603132D01*
X69786608Y-61525371D01*
X69791392Y-61431307D01*
X69791392Y-61368000D01*
X69786591Y-61273337D01*
X69773367Y-61195882D01*
X69750214Y-61125663D01*
X69719658Y-61070512D01*
X69679781Y-61025448D01*
X69633196Y-60993722D01*
X69579728Y-60974495D01*
X69516838Y-60967783D01*
X69454641Y-60974473D01*
X69401214Y-60993722D01*
X69354747Y-61025455D01*
X69315118Y-61070512D01*
X69284803Y-61125615D01*
X69261409Y-61195882D01*
X69247914Y-61273353D01*
X69243018Y-61368000D01*
X69015219Y-61368000D01*
X69019455Y-61279341D01*
X69031841Y-61198422D01*
X69051629Y-61125833D01*
X69079959Y-61056261D01*
X69114402Y-60995363D01*
X69154871Y-60942211D01*
X69202373Y-60895412D01*
X69255198Y-60856816D01*
X69313873Y-60826000D01*
X69376503Y-60803904D01*
X69443886Y-60790398D01*
X69516838Y-60785773D01*
X69590280Y-60790409D01*
G37*
G36*
X70994019Y-61827494D02*
G01*
X70994019Y-61998000D01*
X70185746Y-61998000D01*
X70185746Y-61852113D01*
X70573433Y-61432553D01*
X70669347Y-61312678D01*
X70700692Y-61262052D01*
X70719759Y-61220281D01*
X70731280Y-61178957D01*
X70734926Y-61141000D01*
X70729771Y-61088278D01*
X70715216Y-61044573D01*
X70691001Y-61007533D01*
X70658283Y-60980093D01*
X70618007Y-60963148D01*
X70566912Y-60957085D01*
X70510367Y-60964311D01*
X70464843Y-60984782D01*
X70427972Y-61017415D01*
X70400875Y-61061133D01*
X70384832Y-61112241D01*
X70379187Y-61172654D01*
X70161933Y-61172654D01*
X70167521Y-61103173D01*
X70183930Y-61038913D01*
X70211099Y-60978847D01*
X70248411Y-60924560D01*
X70295102Y-60877944D01*
X70352149Y-60838457D01*
X70415331Y-60809823D01*
X70487424Y-60792008D01*
X70570209Y-60785773D01*
X70651435Y-60790727D01*
X70720178Y-60804635D01*
X70778377Y-60826440D01*
X70831495Y-60857891D01*
X70874274Y-60896194D01*
X70907924Y-60941771D01*
X70931982Y-60993249D01*
X70946942Y-61052119D01*
X70952180Y-61119898D01*
X70947484Y-61176764D01*
X70933276Y-61233177D01*
X70910936Y-61288107D01*
X70880446Y-61343600D01*
X70843910Y-61397609D01*
X70799700Y-61454022D01*
X70695579Y-61568108D01*
X70462791Y-61827494D01*
X70994019Y-61827494D01*
G37*
G36*
X69590280Y-66290409D02*
G01*
X69657874Y-66303926D01*
X69720464Y-66326000D01*
X69779186Y-66356820D01*
X69832034Y-66395417D01*
X69879539Y-66442211D01*
X69920051Y-66495368D01*
X69954518Y-66556266D01*
X69982854Y-66625833D01*
X70002642Y-66698422D01*
X70015028Y-66779341D01*
X70019344Y-66869685D01*
X70019344Y-66931307D01*
X70015084Y-67021113D01*
X70002834Y-67101933D01*
X69983220Y-67174793D01*
X69955107Y-67244578D01*
X69920782Y-67305460D01*
X69880345Y-67358415D01*
X69832929Y-67404964D01*
X69810378Y-67421423D01*
X70013555Y-67583216D01*
X69869281Y-67709025D01*
X69615771Y-67504995D01*
X69591939Y-67509771D01*
X69518450Y-67514413D01*
X69445547Y-67509790D01*
X69378188Y-67496284D01*
X69315558Y-67474186D01*
X69256833Y-67443418D01*
X69203858Y-67404964D01*
X69156116Y-67358415D01*
X69115386Y-67305463D01*
X69080647Y-67244576D01*
X69051996Y-67174793D01*
X69031977Y-67101900D01*
X69019482Y-67021083D01*
X69015139Y-66931307D01*
X69015139Y-66869685D01*
X69015219Y-66868000D01*
X69243018Y-66868000D01*
X69243018Y-66931307D01*
X69247897Y-67025355D01*
X69261409Y-67103132D01*
X69284896Y-67173685D01*
X69315558Y-67229235D01*
X69355569Y-67274729D01*
X69402460Y-67306904D01*
X69456222Y-67326440D01*
X69518450Y-67333209D01*
X69581318Y-67326407D01*
X69634808Y-67306904D01*
X69681222Y-67274719D01*
X69720464Y-67229235D01*
X69750406Y-67173737D01*
X69773367Y-67103132D01*
X69786608Y-67025371D01*
X69791392Y-66931307D01*
X69791392Y-66868000D01*
X69786591Y-66773337D01*
X69773367Y-66695882D01*
X69750214Y-66625663D01*
X69719658Y-66570512D01*
X69679781Y-66525448D01*
X69633196Y-66493722D01*
X69579728Y-66474495D01*
X69516838Y-66467783D01*
X69454641Y-66474473D01*
X69401214Y-66493722D01*
X69354747Y-66525455D01*
X69315118Y-66570512D01*
X69284803Y-66625615D01*
X69261409Y-66695882D01*
X69247914Y-66773353D01*
X69243018Y-66868000D01*
X69015219Y-66868000D01*
X69019455Y-66779341D01*
X69031841Y-66698422D01*
X69051629Y-66625833D01*
X69079959Y-66556261D01*
X69114402Y-66495363D01*
X69154871Y-66442211D01*
X69202373Y-66395412D01*
X69255198Y-66356816D01*
X69313873Y-66326000D01*
X69376503Y-66303904D01*
X69443886Y-66290398D01*
X69516838Y-66285773D01*
X69590280Y-66290409D01*
G37*
G36*
X70743133Y-66302187D02*
G01*
X70743133Y-67498000D01*
X70525952Y-67498000D01*
X70525952Y-66555271D01*
X70238210Y-66650306D01*
X70238210Y-66475037D01*
X70718587Y-66302187D01*
X70743133Y-66302187D01*
G37*
G36*
X66101016Y-66302187D02*
G01*
X66534645Y-66302187D01*
X66624716Y-66307178D01*
X66701969Y-66321252D01*
X66768238Y-66343366D01*
X66829344Y-66375863D01*
X66878881Y-66416331D01*
X66918301Y-66465145D01*
X66946721Y-66521134D01*
X66964494Y-66586582D01*
X66970765Y-66663568D01*
X66966849Y-66724862D01*
X66955699Y-66778252D01*
X66937938Y-66824915D01*
X66898481Y-66887719D01*
X66845761Y-66939367D01*
X66782108Y-66979985D01*
X66705956Y-67011761D01*
X66635468Y-67047811D01*
X66252691Y-67047811D01*
X66251005Y-66869905D01*
X66537136Y-66869905D01*
X66603016Y-66863242D01*
X66652687Y-66845138D01*
X66693191Y-66815407D01*
X66721930Y-66776628D01*
X66739282Y-66730491D01*
X66745304Y-66676684D01*
X66739290Y-66619152D01*
X66722370Y-66572197D01*
X66693716Y-66533299D01*
X66652687Y-66504053D01*
X66602178Y-66486569D01*
X66534645Y-66480093D01*
X66326476Y-66480093D01*
X66326476Y-67498000D01*
X66101016Y-67498000D01*
X66101016Y-66302187D01*
G37*
G36*
X66774833Y-67498000D02*
G01*
X66498594Y-66964207D01*
X66737171Y-66963401D01*
X67016707Y-67486496D01*
X67016707Y-67498000D01*
X66774833Y-67498000D01*
G37*
G36*
X67697411Y-66302187D02*
G01*
X67697411Y-67498000D01*
X67480231Y-67498000D01*
X67480231Y-66555271D01*
X67192488Y-66650306D01*
X67192488Y-66475037D01*
X67672865Y-66302187D01*
X67697411Y-66302187D01*
G37*
G36*
X72101016Y-66302187D02*
G01*
X72534645Y-66302187D01*
X72624716Y-66307178D01*
X72701969Y-66321252D01*
X72768238Y-66343366D01*
X72829344Y-66375863D01*
X72878881Y-66416331D01*
X72918301Y-66465145D01*
X72946721Y-66521134D01*
X72964494Y-66586582D01*
X72970765Y-66663568D01*
X72966849Y-66724862D01*
X72955699Y-66778252D01*
X72937938Y-66824915D01*
X72898481Y-66887719D01*
X72845761Y-66939367D01*
X72782108Y-66979985D01*
X72705956Y-67011761D01*
X72635468Y-67047811D01*
X72252691Y-67047811D01*
X72251005Y-66869905D01*
X72537136Y-66869905D01*
X72603016Y-66863242D01*
X72652687Y-66845138D01*
X72693191Y-66815407D01*
X72721930Y-66776628D01*
X72739282Y-66730491D01*
X72745304Y-66676684D01*
X72739290Y-66619152D01*
X72722370Y-66572197D01*
X72693716Y-66533299D01*
X72652687Y-66504053D01*
X72602178Y-66486569D01*
X72534645Y-66480093D01*
X72326476Y-66480093D01*
X72326476Y-67498000D01*
X72101016Y-67498000D01*
X72101016Y-66302187D01*
G37*
G36*
X72774833Y-67498000D02*
G01*
X72498594Y-66964207D01*
X72737171Y-66963401D01*
X73016707Y-67486496D01*
X73016707Y-67498000D01*
X72774833Y-67498000D01*
G37*
G36*
X73948298Y-67327494D02*
G01*
X73948298Y-67498000D01*
X73140025Y-67498000D01*
X73140025Y-67352113D01*
X73527712Y-66932553D01*
X73623626Y-66812678D01*
X73654970Y-66762052D01*
X73674037Y-66720281D01*
X73685559Y-66678957D01*
X73689205Y-66641000D01*
X73684049Y-66588278D01*
X73669495Y-66544573D01*
X73645280Y-66507533D01*
X73612561Y-66480093D01*
X73572285Y-66463148D01*
X73521190Y-66457085D01*
X73464646Y-66464311D01*
X73419121Y-66484782D01*
X73382251Y-66517415D01*
X73355154Y-66561133D01*
X73339111Y-66612241D01*
X73333465Y-66672654D01*
X73116211Y-66672654D01*
X73121799Y-66603173D01*
X73138209Y-66538913D01*
X73165377Y-66478847D01*
X73202690Y-66424560D01*
X73249380Y-66377944D01*
X73306428Y-66338457D01*
X73369609Y-66309823D01*
X73441702Y-66292008D01*
X73524488Y-66285773D01*
X73605714Y-66290727D01*
X73674456Y-66304635D01*
X73732656Y-66326440D01*
X73785773Y-66357891D01*
X73828552Y-66396194D01*
X73862202Y-66441771D01*
X73886260Y-66493249D01*
X73901221Y-66552119D01*
X73906459Y-66619898D01*
X73901762Y-66676764D01*
X73887555Y-66733177D01*
X73865215Y-66788107D01*
X73834725Y-66843600D01*
X73798189Y-66897609D01*
X73753978Y-66954022D01*
X73649857Y-67068108D01*
X73417070Y-67327494D01*
X73948298Y-67327494D01*
G37*
G36*
X73784212Y-76156429D02*
G01*
X74009599Y-76156429D01*
X73997908Y-76234314D01*
X73975700Y-76304382D01*
X73943214Y-76367822D01*
X73900299Y-76424342D01*
X73847387Y-76472265D01*
X73783332Y-76512096D01*
X73713179Y-76540266D01*
X73631149Y-76558096D01*
X73535011Y-76564413D01*
X73460970Y-76559779D01*
X73393937Y-76546363D01*
X73332924Y-76524625D01*
X73275858Y-76494144D01*
X73224948Y-76456243D01*
X73179637Y-76410540D01*
X73141243Y-76358636D01*
X73108823Y-76299294D01*
X73082478Y-76231607D01*
X73064254Y-76161087D01*
X73052873Y-76083022D01*
X73048919Y-75996475D01*
X73048919Y-75905397D01*
X73052960Y-75818885D01*
X73064604Y-75740669D01*
X73083284Y-75669824D01*
X73110184Y-75601884D01*
X73143141Y-75542424D01*
X73182055Y-75490526D01*
X73227922Y-75444760D01*
X73279394Y-75406706D01*
X73337027Y-75376000D01*
X73398583Y-75353994D01*
X73465896Y-75340444D01*
X73539920Y-75335773D01*
X73635970Y-75342300D01*
X73717412Y-75360686D01*
X73786630Y-75389702D01*
X73849426Y-75430553D01*
X73901266Y-75479621D01*
X73943214Y-75537494D01*
X73975001Y-75601964D01*
X73997528Y-75673469D01*
X74010478Y-75753136D01*
X73785018Y-75753136D01*
X73773113Y-75680791D01*
X73752631Y-75624322D01*
X73720415Y-75577687D01*
X73675548Y-75543795D01*
X73619308Y-75523711D01*
X73539920Y-75516098D01*
X73477118Y-75522516D01*
X73424735Y-75540718D01*
X73379636Y-75571124D01*
X73342303Y-75614210D01*
X73314383Y-75667203D01*
X73293137Y-75735770D01*
X73281151Y-75811386D01*
X73276797Y-75903711D01*
X73276797Y-75996475D01*
X73280687Y-76085172D01*
X73291525Y-76159873D01*
X73311069Y-76228326D01*
X73337467Y-76282239D01*
X73373395Y-76326670D01*
X73417774Y-76358662D01*
X73470190Y-76378001D01*
X73535011Y-76384894D01*
X73613203Y-76377759D01*
X73669833Y-76358809D01*
X73715824Y-76326485D01*
X73749334Y-76282092D01*
X73771181Y-76227531D01*
X73784212Y-76156429D01*
G37*
G36*
X74963538Y-76377494D02*
G01*
X74963538Y-76548000D01*
X74155265Y-76548000D01*
X74155265Y-76402113D01*
X74542952Y-75982553D01*
X74638866Y-75862678D01*
X74670211Y-75812052D01*
X74689278Y-75770281D01*
X74700799Y-75728957D01*
X74704445Y-75691000D01*
X74699290Y-75638278D01*
X74684735Y-75594573D01*
X74660520Y-75557533D01*
X74627802Y-75530093D01*
X74587526Y-75513148D01*
X74536431Y-75507085D01*
X74479886Y-75514311D01*
X74434362Y-75534782D01*
X74397491Y-75567415D01*
X74370394Y-75611133D01*
X74354351Y-75662241D01*
X74348706Y-75722654D01*
X74131452Y-75722654D01*
X74137040Y-75653173D01*
X74153449Y-75588913D01*
X74180618Y-75528847D01*
X74217930Y-75474560D01*
X74264621Y-75427944D01*
X74321668Y-75388457D01*
X74384850Y-75359823D01*
X74456943Y-75342008D01*
X74539728Y-75335773D01*
X74620954Y-75340727D01*
X74689697Y-75354635D01*
X74747896Y-75376440D01*
X74801014Y-75407891D01*
X74843793Y-75446194D01*
X74877443Y-75491771D01*
X74901501Y-75543249D01*
X74916461Y-75602119D01*
X74921699Y-75669898D01*
X74917003Y-75726764D01*
X74902795Y-75783177D01*
X74880455Y-75838107D01*
X74849965Y-75893600D01*
X74813429Y-75947609D01*
X74769219Y-76004022D01*
X74665098Y-76118108D01*
X74432310Y-76377494D01*
X74963538Y-76377494D01*
G37*
D13*
G36*
X91746842Y-77682187D02*
G01*
X91972303Y-77682187D01*
X91972303Y-78476391D01*
X91965208Y-78566195D01*
X91945161Y-78642164D01*
X91913245Y-78706761D01*
X91869165Y-78763803D01*
X91815945Y-78810375D01*
X91752558Y-78847225D01*
X91683347Y-78872971D01*
X91606708Y-78888896D01*
X91521382Y-78894413D01*
X91434968Y-78888885D01*
X91357533Y-78872949D01*
X91287788Y-78847225D01*
X91223977Y-78810306D01*
X91170783Y-78763726D01*
X91127101Y-78706761D01*
X91095681Y-78642221D01*
X91075920Y-78566250D01*
X91068922Y-78476391D01*
X91068922Y-77682187D01*
X91294309Y-77682187D01*
X91294309Y-78476611D01*
X91301894Y-78555706D01*
X91322153Y-78613411D01*
X91356044Y-78659776D01*
X91400848Y-78691886D01*
X91454863Y-78710625D01*
X91521382Y-78717312D01*
X91588612Y-78710591D01*
X91642355Y-78691886D01*
X91686673Y-78659771D01*
X91719805Y-78613411D01*
X91739465Y-78555766D01*
X91746842Y-78476611D01*
X91746842Y-77682187D01*
G37*
G36*
X92715583Y-77682187D02*
G01*
X92715583Y-78878000D01*
X92498402Y-78878000D01*
X92498402Y-77935271D01*
X92210660Y-78030306D01*
X92210660Y-77855037D01*
X92691036Y-77682187D01*
X92715583Y-77682187D01*
G37*
D14*
%TO.C,R3*%
X66265000Y-58747936D02*
X66265000Y-59202064D01*
X67735000Y-58747936D02*
X67735000Y-59202064D01*
%TO.C,C1*%
X65235000Y-58713748D02*
X65235000Y-59236252D01*
X63765000Y-58713748D02*
X63765000Y-59236252D01*
%TO.C,R4*%
X72265000Y-59202064D02*
X72265000Y-58747936D01*
X73735000Y-59202064D02*
X73735000Y-58747936D01*
%TO.C,Q2*%
X71300000Y-59355000D02*
X71060000Y-59025000D01*
X71540000Y-59025000D01*
X71300000Y-59355000D01*
G36*
X71300000Y-59355000D02*
G01*
X71060000Y-59025000D01*
X71540000Y-59025000D01*
X71300000Y-59355000D01*
G37*
X70760000Y-60535000D02*
X69240000Y-60535000D01*
X70760000Y-60485000D02*
X70760000Y-60535000D01*
X70760000Y-58585000D02*
X70760000Y-59365000D01*
X70760000Y-57415000D02*
X70760000Y-57465000D01*
X69240000Y-60535000D02*
X69240000Y-59535000D01*
X69240000Y-58415000D02*
X69240000Y-57415000D01*
X69240000Y-57415000D02*
X70760000Y-57415000D01*
%TO.C,Q1*%
X71300000Y-64880000D02*
X71060000Y-64550000D01*
X71540000Y-64550000D01*
X71300000Y-64880000D01*
G36*
X71300000Y-64880000D02*
G01*
X71060000Y-64550000D01*
X71540000Y-64550000D01*
X71300000Y-64880000D01*
G37*
X70760000Y-66060000D02*
X69240000Y-66060000D01*
X70760000Y-66010000D02*
X70760000Y-66060000D01*
X70760000Y-64110000D02*
X70760000Y-64890000D01*
X70760000Y-62940000D02*
X70760000Y-62990000D01*
X69240000Y-66060000D02*
X69240000Y-65060000D01*
X69240000Y-63940000D02*
X69240000Y-62940000D01*
X69240000Y-62940000D02*
X70760000Y-62940000D01*
%TO.C,R1*%
X66265000Y-64727064D02*
X66265000Y-64272936D01*
X67735000Y-64727064D02*
X67735000Y-64272936D01*
%TO.C,R2*%
X73735000Y-64727064D02*
X73735000Y-64272936D01*
X72265000Y-64727064D02*
X72265000Y-64272936D01*
%TO.C,C2*%
X73265000Y-73761252D02*
X73265000Y-73238748D01*
X74735000Y-73761252D02*
X74735000Y-73238748D01*
D13*
%TO.C,U1*%
X77155000Y-58371000D02*
X77155000Y-75516000D01*
D10*
X79060000Y-77421000D02*
X93030000Y-77421000D01*
D13*
X79060000Y-77421000D02*
X93030000Y-77421000D01*
X81541000Y-78431000D02*
X81541000Y-77421000D01*
X90036272Y-78931000D02*
X82041000Y-78931000D01*
X90540000Y-77421000D02*
X90536272Y-78431272D01*
X93030000Y-56466000D02*
X79060000Y-56466000D01*
X94935000Y-58371000D02*
X94935000Y-75516000D01*
X77155000Y-58371000D02*
G75*
G02*
X79060000Y-56466000I1905000J0D01*
G01*
X79060000Y-77421000D02*
G75*
G02*
X77155000Y-75516000I0J1905000D01*
G01*
X82041000Y-78931000D02*
G75*
G02*
X81541000Y-78431000I0J500000D01*
G01*
X90536272Y-78431272D02*
G75*
G02*
X90036272Y-78930999I-500018J291D01*
G01*
X93030000Y-56466000D02*
G75*
G02*
X94935000Y-58371000I-1J-1905001D01*
G01*
X94935000Y-75516000D02*
G75*
G02*
X93030000Y-77421000I-1905001J1D01*
G01*
D15*
X94104000Y-76300000D02*
G75*
G02*
X93600000Y-76300000I-252000J0D01*
G01*
X93600000Y-76300000D02*
G75*
G02*
X94104000Y-76300000I252000J0D01*
G01*
X95247000Y-77180000D02*
G75*
G02*
X94743000Y-77180000I-252000J0D01*
G01*
X94743000Y-77180000D02*
G75*
G02*
X95247000Y-77180000I252000J0D01*
G01*
%TD*%
%LPC*%
D16*
%TO.C,J2*%
X62000000Y-66500000D03*
D17*
X62000000Y-69000000D03*
%TD*%
D16*
%TO.C,J1*%
X62000000Y-58000000D03*
D17*
X62000000Y-60500000D03*
%TD*%
D18*
%TO.C,R3*%
X67000000Y-59887500D03*
X67000000Y-58062500D03*
%TD*%
D19*
%TO.C,C1*%
X64500000Y-59925000D03*
X64500000Y-58025000D03*
%TD*%
D20*
%TO.C,R4*%
X73000000Y-59887500D03*
X73000000Y-58062500D03*
%TD*%
D21*
%TO.C,Q2*%
X69062500Y-58975000D03*
X70937500Y-58025000D03*
X70937500Y-59925000D03*
%TD*%
%TO.C,Q1*%
X69062500Y-64500000D03*
X70937500Y-63550000D03*
X70937500Y-65450000D03*
%TD*%
D20*
%TO.C,R1*%
X67000000Y-63587500D03*
X67000000Y-65412500D03*
%TD*%
%TO.C,R2*%
X73000000Y-63587500D03*
X73000000Y-65412500D03*
%TD*%
D22*
%TO.C,REF\u002A\u002A*%
X67000000Y-72500000D03*
%TD*%
D23*
%TO.C,C2*%
X74000000Y-74450000D03*
X74000000Y-72550000D03*
%TD*%
D24*
%TO.C,U1*%
X94500000Y-74500000D03*
D25*
X93665000Y-74500000D03*
D24*
X94500000Y-71960000D03*
D25*
X93665000Y-71960000D03*
D24*
X94500000Y-69420000D03*
D25*
X93665000Y-69420000D03*
D24*
X94500000Y-66880000D03*
D25*
X93665000Y-66880000D03*
D24*
X94500000Y-64340000D03*
D25*
X93665000Y-64340000D03*
D24*
X94500000Y-61800000D03*
D25*
X93665000Y-61800000D03*
D24*
X94500000Y-59260000D03*
D25*
X93665000Y-59260000D03*
X78425000Y-59260000D03*
D26*
X77590000Y-59260000D03*
D25*
X78425000Y-61800000D03*
D26*
X77590000Y-61800000D03*
D25*
X78425000Y-64340000D03*
D26*
X77590000Y-64340000D03*
D25*
X78425000Y-66880000D03*
D26*
X77590000Y-66880000D03*
D25*
X78425000Y-69420000D03*
D26*
X77590000Y-69420000D03*
D25*
X78425000Y-71960000D03*
D26*
X77590000Y-71960000D03*
D25*
X78425000Y-74500000D03*
D26*
X77590000Y-74500000D03*
%TD*%
%LPD*%
M02*
